# MagicaVoxel @ Ephtracy

# group
o House Foundation

# material
mtllib House-0-House Foundation.mtl
usemtl palette

# normals
vn -1 0 0
vn 1 0 0
vn 0 0 1
vn 0 0 -1
vn 0 -1 0
vn 0 1 0

# texcoords
vt 0.0957031 0.5
vt 0.294922 0.5
vt 0.298828 0.5
vt 0.509766 0.5
vt 0.521484 0.5
vt 0.986328 0.5

# verts
v 5 0 15
v 5 0 5
v 5 0.1 15
v 5 0.1 5
v 5 0.2 15
v 5 0.2 5
v 5 0.4 15
v 5 0.4 5
v 5 0.6 15
v 5 0.6 5
v 5 0.7 15
v 5 0.7 5
v 5 0.8 15
v 5 0.8 5
v 15 0 15
v 15 0 5
v 15 0.1 15
v 15 0.1 5
v 15 0.2 15
v 15 0.2 5
v 15 0.4 15
v 15 0.4 5
v 15 0.6 15
v 15 0.6 5
v 15 0.7 15
v 15 0.7 5
v 15 0.8 15
v 15 0.8 5
v 5 0 15
v 5 0.1 15
v 5 0.2 15
v 5 0.4 15
v 5 0.6 15
v 5 0.7 15
v 5 0.8 15
v 15 0 15
v 15 0.1 15
v 15 0.2 15
v 15 0.4 15
v 15 0.6 15
v 15 0.7 15
v 15 0.8 15
v 5 0 5
v 5 0.1 5
v 5 0.2 5
v 5 0.4 5
v 5 0.6 5
v 5 0.7 5
v 5 0.8 5
v 15 0 5
v 15 0.1 5
v 15 0.2 5
v 15 0.4 5
v 15 0.6 5
v 15 0.7 5
v 15 0.8 5
v 5 0 15
v 15 0 15
v 5 0 5
v 15 0 5
v 5 0.8 15
v 15 0.8 15
v 5 0.8 5
v 15 0.8 5

# faces
f 3/1/1 2/1/1 1/1/1
f 4/1/1 2/1/1 3/1/1
f 5/2/1 4/2/1 3/2/1
f 6/2/1 4/2/1 5/2/1
f 7/3/1 6/3/1 5/3/1
f 8/3/1 6/3/1 7/3/1
f 9/4/1 8/4/1 7/4/1
f 10/4/1 8/4/1 9/4/1
f 11/5/1 10/5/1 9/5/1
f 12/5/1 10/5/1 11/5/1
f 13/6/1 12/6/1 11/6/1
f 14/6/1 12/6/1 13/6/1
f 15/1/2 16/1/2 17/1/2
f 17/1/2 16/1/2 18/1/2
f 17/2/2 18/2/2 19/2/2
f 19/2/2 18/2/2 20/2/2
f 19/3/2 20/3/2 21/3/2
f 21/3/2 20/3/2 22/3/2
f 21/4/2 22/4/2 23/4/2
f 23/4/2 22/4/2 24/4/2
f 23/5/2 24/5/2 25/5/2
f 25/5/2 24/5/2 26/5/2
f 25/6/2 26/6/2 27/6/2
f 27/6/2 26/6/2 28/6/2
f 36/1/3 30/1/3 29/1/3
f 37/2/3 31/2/3 30/2/3
f 37/1/3 30/1/3 36/1/3
f 38/3/3 32/3/3 31/3/3
f 38/2/3 31/2/3 37/2/3
f 39/4/3 33/4/3 32/4/3
f 39/3/3 32/3/3 38/3/3
f 40/5/3 34/5/3 33/5/3
f 40/4/3 33/4/3 39/4/3
f 41/6/3 35/6/3 34/6/3
f 41/5/3 34/5/3 40/5/3
f 42/6/3 35/6/3 41/6/3
f 43/1/4 44/1/4 50/1/4
f 44/2/4 45/2/4 51/2/4
f 50/1/4 44/1/4 51/1/4
f 45/3/4 46/3/4 52/3/4
f 51/2/4 45/2/4 52/2/4
f 46/4/4 47/4/4 53/4/4
f 52/3/4 46/3/4 53/3/4
f 47/5/4 48/5/4 54/5/4
f 53/4/4 47/4/4 54/4/4
f 48/6/4 49/6/4 55/6/4
f 54/5/4 48/5/4 55/5/4
f 55/6/4 49/6/4 56/6/4
f 59/1/5 58/1/5 57/1/5
f 60/1/5 58/1/5 59/1/5
f 61/6/6 62/6/6 63/6/6
f 63/6/6 62/6/6 64/6/6
