# MagicaVoxel @ Ephtracy

# group
o 

# material
mtllib Bush-2.mtl
usemtl palette

# normals
vn -1 0 0
vn 1 0 0
vn 0 0 1
vn 0 0 -1
vn 0 -1 0
vn 0 1 0

# texcoords
vt 0.541016 0.5
vt 0.556641 0.5

# verts
v 1.2 2 -1.5
v 1.2 2 -3.5
v 1.2 4 -1.5
v 1.2 4 -3.5
v 1.5 2.3 -1.4
v 1.5 2.3 -1.5
v 1.5 2.3 -3.5
v 1.5 2.3 -3.6
v 1.5 3.7 -1.4
v 1.5 3.7 -1.5
v 1.5 3.7 -3.5
v 1.5 3.7 -3.6
v 1.5 4 -1.8
v 1.5 4 -3.2
v 1.5 4.1 -1.8
v 1.5 4.1 -3.2
v 4.6 2.3 -4.9
v 4.6 2.3 -6.3
v 4.6 2.3 -6.9
v 4.6 2.3 -8.3
v 4.6 3.7 -4.9
v 4.6 3.7 -6.3
v 4.6 3.7 -6.9
v 4.6 3.7 -8.3
v 4.7 2 -4.6
v 4.7 2 -8.6
v 4.7 2.3 -4.9
v 4.7 2.3 -6.3
v 4.7 2.3 -6.9
v 4.7 2.3 -8.3
v 4.7 3.7 -4.9
v 4.7 3.7 -6.3
v 4.7 3.7 -6.9
v 4.7 3.7 -8.3
v 4.7 4 -4.6
v 4.7 4 -8.6
v 5 2.3 -4.5
v 5 2.3 -4.6
v 5 2.3 -8.6
v 5 2.3 -8.7
v 5 3.7 -4.5
v 5 3.7 -4.6
v 5 3.7 -8.6
v 5 3.7 -8.7
v 5.7 4.3 -6
v 5.7 4.3 -7.4
v 5.7 5.7 -6
v 5.7 5.7 -7.4
v 5.8 4 -5.6
v 5.8 4 -7.6
v 5.8 4.3 -6
v 5.8 4.3 -7.4
v 5.8 5.7 -6
v 5.8 5.7 -7.4
v 5.8 6 -5.6
v 5.8 6 -7.6
v 6.1 4.3 -5.5
v 6.1 4.3 -5.6
v 6.1 4.3 -7.6
v 6.1 4.3 -7.7
v 6.1 5.7 -5.5
v 6.1 5.7 -5.6
v 6.1 5.7 -7.6
v 6.1 5.7 -7.7
v 7 2.3 -4.5
v 7 2.3 -4.6
v 7 2.3 -8.6
v 7 2.3 -8.7
v 7 3.7 -4.5
v 7 3.7 -4.6
v 7 3.7 -8.6
v 7 3.7 -8.7
v 2.9 2.3 -1.4
v 2.9 2.3 -1.5
v 2.9 2.3 -3.5
v 2.9 2.3 -3.6
v 2.9 3.7 -1.4
v 2.9 3.7 -1.5
v 2.9 3.7 -3.5
v 2.9 3.7 -3.6
v 2.9 4 -1.8
v 2.9 4 -3.2
v 2.9 4.1 -1.8
v 2.9 4.1 -3.2
v 3.2 2 -1.5
v 3.2 2 -3.5
v 3.2 2.3 -1.8
v 3.2 2.3 -3.2
v 3.2 3.7 -1.8
v 3.2 3.7 -3.2
v 3.2 4 -1.5
v 3.2 4 -3.5
v 3.3 2.3 -1.8
v 3.3 2.3 -3.2
v 3.3 3.7 -1.8
v 3.3 3.7 -3.2
v 6.4 2.3 -4.5
v 6.4 2.3 -4.6
v 6.4 2.3 -8.6
v 6.4 2.3 -8.7
v 6.4 3.7 -4.5
v 6.4 3.7 -4.6
v 6.4 3.7 -8.6
v 6.4 3.7 -8.7
v 7.5 4.3 -5.5
v 7.5 4.3 -5.6
v 7.5 4.3 -7.6
v 7.5 4.3 -7.7
v 7.5 5.7 -5.5
v 7.5 5.7 -5.6
v 7.5 5.7 -7.6
v 7.5 5.7 -7.7
v 7.8 4 -5.6
v 7.8 4 -7.6
v 7.8 4.3 -5.9
v 7.8 4.3 -7.3
v 7.8 5.7 -5.9
v 7.8 5.7 -7.3
v 7.8 6 -5.6
v 7.8 6 -7.6
v 7.9 4.3 -5.9
v 7.9 4.3 -7.3
v 7.9 5.7 -5.9
v 7.9 5.7 -7.3
v 8.4 2.3 -4.5
v 8.4 2.3 -4.6
v 8.4 2.3 -8.6
v 8.4 2.3 -8.7
v 8.4 3.7 -4.5
v 8.4 3.7 -4.6
v 8.4 3.7 -8.6
v 8.4 3.7 -8.7
v 8.7 2 -4.6
v 8.7 2 -8.6
v 8.7 2.3 -4.9
v 8.7 2.3 -6.3
v 8.7 2.3 -6.9
v 8.7 2.3 -8.3
v 8.7 3.7 -4.9
v 8.7 3.7 -6.3
v 8.7 3.7 -6.9
v 8.7 3.7 -8.3
v 8.7 4 -4.6
v 8.7 4 -8.6
v 8.8 2.3 -4.9
v 8.8 2.3 -6.3
v 8.8 2.3 -6.9
v 8.8 2.3 -8.3
v 8.8 3.7 -4.9
v 8.8 3.7 -6.3
v 8.8 3.7 -6.9
v 8.8 3.7 -8.3
v 1.5 2.3 -1.4
v 1.5 3.7 -1.4
v 2.9 2.3 -1.4
v 2.9 3.7 -1.4
v 1.2 2 -1.5
v 1.2 4 -1.5
v 1.5 2.3 -1.5
v 1.5 3.7 -1.5
v 2.9 2.3 -1.5
v 2.9 3.7 -1.5
v 3.2 2 -1.5
v 3.2 4 -1.5
v 1.5 4 -1.8
v 1.5 4.1 -1.8
v 2.9 4 -1.8
v 2.9 4.1 -1.8
v 3.2 2.3 -1.8
v 3.2 3.7 -1.8
v 3.3 2.3 -1.8
v 3.3 3.7 -1.8
v 5 2.3 -4.5
v 5 3.7 -4.5
v 6.4 2.3 -4.5
v 6.4 3.7 -4.5
v 7 2.3 -4.5
v 7 3.7 -4.5
v 8.4 2.3 -4.5
v 8.4 3.7 -4.5
v 4.7 2 -4.6
v 4.7 4 -4.6
v 5 2.3 -4.6
v 5 3.7 -4.6
v 6.4 2.3 -4.6
v 6.4 3.7 -4.6
v 7 2.3 -4.6
v 7 3.7 -4.6
v 8.4 2.3 -4.6
v 8.4 3.7 -4.6
v 8.7 2 -4.6
v 8.7 4 -4.6
v 4.6 2.3 -4.9
v 4.6 3.7 -4.9
v 4.7 2.3 -4.9
v 4.7 3.7 -4.9
v 8.7 2.3 -4.9
v 8.7 3.7 -4.9
v 8.8 2.3 -4.9
v 8.8 3.7 -4.9
v 6.1 4.3 -5.5
v 6.1 5.7 -5.5
v 7.5 4.3 -5.5
v 7.5 5.7 -5.5
v 5.8 4 -5.6
v 5.8 6 -5.6
v 6.1 4.3 -5.6
v 6.1 5.7 -5.6
v 7.5 4.3 -5.6
v 7.5 5.7 -5.6
v 7.8 4 -5.6
v 7.8 6 -5.6
v 7.8 4.3 -5.9
v 7.8 5.7 -5.9
v 7.9 4.3 -5.9
v 7.9 5.7 -5.9
v 5.7 4.3 -6
v 5.7 5.7 -6
v 5.8 4.3 -6
v 5.8 5.7 -6
v 4.6 2.3 -6.9
v 4.6 3.7 -6.9
v 4.7 2.3 -6.9
v 4.7 3.7 -6.9
v 8.7 2.3 -6.9
v 8.7 3.7 -6.9
v 8.8 2.3 -6.9
v 8.8 3.7 -6.9
v 1.5 4 -3.2
v 1.5 4.1 -3.2
v 2.9 4 -3.2
v 2.9 4.1 -3.2
v 3.2 2.3 -3.2
v 3.2 3.7 -3.2
v 3.3 2.3 -3.2
v 3.3 3.7 -3.2
v 1.2 2 -3.5
v 1.2 4 -3.5
v 1.5 2.3 -3.5
v 1.5 3.7 -3.5
v 2.9 2.3 -3.5
v 2.9 3.7 -3.5
v 3.2 2 -3.5
v 3.2 4 -3.5
v 1.5 2.3 -3.6
v 1.5 3.7 -3.6
v 2.9 2.3 -3.6
v 2.9 3.7 -3.6
v 4.6 2.3 -6.3
v 4.6 3.7 -6.3
v 4.7 2.3 -6.3
v 4.7 3.7 -6.3
v 8.7 2.3 -6.3
v 8.7 3.7 -6.3
v 8.8 2.3 -6.3
v 8.8 3.7 -6.3
v 7.8 4.3 -7.3
v 7.8 5.7 -7.3
v 7.9 4.3 -7.3
v 7.9 5.7 -7.3
v 5.7 4.3 -7.4
v 5.7 5.7 -7.4
v 5.8 4.3 -7.4
v 5.8 5.7 -7.4
v 5.8 4 -7.6
v 5.8 6 -7.6
v 6.1 4.3 -7.6
v 6.1 5.7 -7.6
v 7.5 4.3 -7.6
v 7.5 5.7 -7.6
v 7.8 4 -7.6
v 7.8 6 -7.6
v 6.1 4.3 -7.7
v 6.1 5.7 -7.7
v 7.5 4.3 -7.7
v 7.5 5.7 -7.7
v 4.6 2.3 -8.3
v 4.6 3.7 -8.3
v 4.7 2.3 -8.3
v 4.7 3.7 -8.3
v 8.7 2.3 -8.3
v 8.7 3.7 -8.3
v 8.8 2.3 -8.3
v 8.8 3.7 -8.3
v 4.7 2 -8.6
v 4.7 4 -8.6
v 5 2.3 -8.6
v 5 3.7 -8.6
v 6.4 2.3 -8.6
v 6.4 3.7 -8.6
v 7 2.3 -8.6
v 7 3.7 -8.6
v 8.4 2.3 -8.6
v 8.4 3.7 -8.6
v 8.7 2 -8.6
v 8.7 4 -8.6
v 5 2.3 -8.7
v 5 3.7 -8.7
v 6.4 2.3 -8.7
v 6.4 3.7 -8.7
v 7 2.3 -8.7
v 7 3.7 -8.7
v 8.4 2.3 -8.7
v 8.4 3.7 -8.7
v 1.2 2 -1.5
v 3.2 2 -1.5
v 1.2 2 -3.5
v 3.2 2 -3.5
v 4.7 2 -4.6
v 8.7 2 -4.6
v 4.7 2 -8.6
v 8.7 2 -8.6
v 1.5 2.3 -1.4
v 2.9 2.3 -1.4
v 1.5 2.3 -1.5
v 2.9 2.3 -1.5
v 3.2 2.3 -1.8
v 3.3 2.3 -1.8
v 3.2 2.3 -3.2
v 3.3 2.3 -3.2
v 1.5 2.3 -3.5
v 2.9 2.3 -3.5
v 1.5 2.3 -3.6
v 2.9 2.3 -3.6
v 5 2.3 -4.5
v 6.4 2.3 -4.5
v 7 2.3 -4.5
v 8.4 2.3 -4.5
v 5 2.3 -4.6
v 6.4 2.3 -4.6
v 7 2.3 -4.6
v 8.4 2.3 -4.6
v 4.6 2.3 -4.9
v 4.7 2.3 -4.9
v 8.7 2.3 -4.9
v 8.8 2.3 -4.9
v 4.6 2.3 -6.3
v 4.7 2.3 -6.3
v 8.7 2.3 -6.3
v 8.8 2.3 -6.3
v 4.6 2.3 -6.9
v 4.7 2.3 -6.9
v 8.7 2.3 -6.9
v 8.8 2.3 -6.9
v 4.6 2.3 -8.3
v 4.7 2.3 -8.3
v 8.7 2.3 -8.3
v 8.8 2.3 -8.3
v 5 2.3 -8.6
v 6.4 2.3 -8.6
v 7 2.3 -8.6
v 8.4 2.3 -8.6
v 5 2.3 -8.7
v 6.4 2.3 -8.7
v 7 2.3 -8.7
v 8.4 2.3 -8.7
v 6.1 4.3 -5.5
v 7.5 4.3 -5.5
v 6.1 4.3 -5.6
v 7.5 4.3 -5.6
v 7.8 4.3 -5.9
v 7.9 4.3 -5.9
v 5.7 4.3 -6
v 5.8 4.3 -6
v 7.8 4.3 -7.3
v 7.9 4.3 -7.3
v 5.7 4.3 -7.4
v 5.8 4.3 -7.4
v 6.1 4.3 -7.6
v 7.5 4.3 -7.6
v 6.1 4.3 -7.7
v 7.5 4.3 -7.7
v 1.5 3.7 -1.4
v 2.9 3.7 -1.4
v 1.5 3.7 -1.5
v 2.9 3.7 -1.5
v 3.2 3.7 -1.8
v 3.3 3.7 -1.8
v 3.2 3.7 -3.2
v 3.3 3.7 -3.2
v 1.5 3.7 -3.5
v 2.9 3.7 -3.5
v 1.5 3.7 -3.6
v 2.9 3.7 -3.6
v 5 3.7 -4.5
v 6.4 3.7 -4.5
v 7 3.7 -4.5
v 8.4 3.7 -4.5
v 5 3.7 -4.6
v 6.4 3.7 -4.6
v 7 3.7 -4.6
v 8.4 3.7 -4.6
v 4.6 3.7 -4.9
v 4.7 3.7 -4.9
v 8.7 3.7 -4.9
v 8.8 3.7 -4.9
v 4.6 3.7 -6.3
v 4.7 3.7 -6.3
v 8.7 3.7 -6.3
v 8.8 3.7 -6.3
v 4.6 3.7 -6.9
v 4.7 3.7 -6.9
v 8.7 3.7 -6.9
v 8.8 3.7 -6.9
v 4.6 3.7 -8.3
v 4.7 3.7 -8.3
v 8.7 3.7 -8.3
v 8.8 3.7 -8.3
v 5 3.7 -8.6
v 6.4 3.7 -8.6
v 7 3.7 -8.6
v 8.4 3.7 -8.6
v 5 3.7 -8.7
v 6.4 3.7 -8.7
v 7 3.7 -8.7
v 8.4 3.7 -8.7
v 1.2 4 -1.5
v 3.2 4 -1.5
v 1.5 4 -1.8
v 2.9 4 -1.8
v 1.5 4 -3.2
v 2.9 4 -3.2
v 1.2 4 -3.5
v 3.2 4 -3.5
v 4.7 4 -4.6
v 8.7 4 -4.6
v 5.8 4 -5.6
v 7.8 4 -5.6
v 5.8 4 -7.6
v 7.8 4 -7.6
v 4.7 4 -8.6
v 8.7 4 -8.6
v 1.5 4.1 -1.8
v 2.9 4.1 -1.8
v 1.5 4.1 -3.2
v 2.9 4.1 -3.2
v 6.1 5.7 -5.5
v 7.5 5.7 -5.5
v 6.1 5.7 -5.6
v 7.5 5.7 -5.6
v 7.8 5.7 -5.9
v 7.9 5.7 -5.9
v 5.7 5.7 -6
v 5.8 5.7 -6
v 7.8 5.7 -7.3
v 7.9 5.7 -7.3
v 5.7 5.7 -7.4
v 5.8 5.7 -7.4
v 6.1 5.7 -7.6
v 7.5 5.7 -7.6
v 6.1 5.7 -7.7
v 7.5 5.7 -7.7
v 5.8 6 -5.6
v 7.8 6 -5.6
v 5.8 6 -7.6
v 7.8 6 -7.6

# faces
f 3/1/1 2/1/1 1/1/1
f 4/1/1 2/1/1 3/1/1
f 9/2/1 6/2/1 5/2/1
f 10/2/1 6/2/1 9/2/1
f 11/2/1 8/2/1 7/2/1
f 12/2/1 8/2/1 11/2/1
f 15/2/1 14/2/1 13/2/1
f 16/2/1 14/2/1 15/2/1
f 21/2/1 18/2/1 17/2/1
f 22/2/1 18/2/1 21/2/1
f 23/2/1 20/2/1 19/2/1
f 24/2/1 20/2/1 23/2/1
f 27/1/1 26/1/1 25/1/1
f 28/1/1 26/1/1 27/1/1
f 29/1/1 26/1/1 28/1/1
f 30/1/1 26/1/1 29/1/1
f 31/1/1 27/1/1 25/1/1
f 32/1/1 29/1/1 28/1/1
f 33/1/1 29/1/1 32/1/1
f 34/1/1 26/1/1 30/1/1
f 35/1/1 33/1/1 32/1/1
f 35/1/1 34/1/1 33/1/1
f 35/1/1 31/1/1 25/1/1
f 35/1/1 32/1/1 31/1/1
f 36/1/1 26/1/1 34/1/1
f 36/1/1 34/1/1 35/1/1
f 41/2/1 38/2/1 37/2/1
f 42/2/1 38/2/1 41/2/1
f 43/2/1 40/2/1 39/2/1
f 44/2/1 40/2/1 43/2/1
f 47/2/1 46/2/1 45/2/1
f 48/2/1 46/2/1 47/2/1
f 51/1/1 50/1/1 49/1/1
f 52/1/1 50/1/1 51/1/1
f 53/1/1 51/1/1 49/1/1
f 54/1/1 50/1/1 52/1/1
f 55/1/1 53/1/1 49/1/1
f 55/1/1 54/1/1 53/1/1
f 56/1/1 50/1/1 54/1/1
f 56/1/1 54/1/1 55/1/1
f 61/2/1 58/2/1 57/2/1
f 62/2/1 58/2/1 61/2/1
f 63/2/1 60/2/1 59/2/1
f 64/2/1 60/2/1 63/2/1
f 69/2/1 66/2/1 65/2/1
f 70/2/1 66/2/1 69/2/1
f 71/2/1 68/2/1 67/2/1
f 72/2/1 68/2/1 71/2/1
f 73/2/2 74/2/2 77/2/2
f 77/2/2 74/2/2 78/2/2
f 75/2/2 76/2/2 79/2/2
f 79/2/2 76/2/2 80/2/2
f 81/2/2 82/2/2 83/2/2
f 83/2/2 82/2/2 84/2/2
f 85/1/2 86/1/2 87/1/2
f 87/1/2 86/1/2 88/1/2
f 85/1/2 87/1/2 89/1/2
f 88/1/2 86/1/2 90/1/2
f 85/1/2 89/1/2 91/1/2
f 89/1/2 90/1/2 91/1/2
f 90/1/2 86/1/2 92/1/2
f 91/1/2 90/1/2 92/1/2
f 93/2/2 94/2/2 95/2/2
f 95/2/2 94/2/2 96/2/2
f 97/2/2 98/2/2 101/2/2
f 101/2/2 98/2/2 102/2/2
f 99/2/2 100/2/2 103/2/2
f 103/2/2 100/2/2 104/2/2
f 105/2/2 106/2/2 109/2/2
f 109/2/2 106/2/2 110/2/2
f 107/2/2 108/2/2 111/2/2
f 111/2/2 108/2/2 112/2/2
f 113/1/2 114/1/2 115/1/2
f 115/1/2 114/1/2 116/1/2
f 113/1/2 115/1/2 117/1/2
f 116/1/2 114/1/2 118/1/2
f 113/1/2 117/1/2 119/1/2
f 117/1/2 118/1/2 119/1/2
f 118/1/2 114/1/2 120/1/2
f 119/1/2 118/1/2 120/1/2
f 121/2/2 122/2/2 123/2/2
f 123/2/2 122/2/2 124/2/2
f 125/2/2 126/2/2 129/2/2
f 129/2/2 126/2/2 130/2/2
f 127/2/2 128/2/2 131/2/2
f 131/2/2 128/2/2 132/2/2
f 133/1/2 134/1/2 135/1/2
f 135/1/2 134/1/2 136/1/2
f 136/1/2 134/1/2 137/1/2
f 137/1/2 134/1/2 138/1/2
f 133/1/2 135/1/2 139/1/2
f 136/1/2 137/1/2 140/1/2
f 140/1/2 137/1/2 141/1/2
f 138/1/2 134/1/2 142/1/2
f 140/1/2 141/1/2 143/1/2
f 141/1/2 142/1/2 143/1/2
f 133/1/2 139/1/2 143/1/2
f 139/1/2 140/1/2 143/1/2
f 142/1/2 134/1/2 144/1/2
f 143/1/2 142/1/2 144/1/2
f 145/2/2 146/2/2 149/2/2
f 149/2/2 146/2/2 150/2/2
f 147/2/2 148/2/2 151/2/2
f 151/2/2 148/2/2 152/2/2
f 155/2/3 154/2/3 153/2/3
f 156/2/3 154/2/3 155/2/3
f 159/1/3 158/1/3 157/1/3
f 160/1/3 158/1/3 159/1/3
f 161/1/3 159/1/3 157/1/3
f 162/1/3 158/1/3 160/1/3
f 163/1/3 161/1/3 157/1/3
f 163/1/3 162/1/3 161/1/3
f 164/1/3 158/1/3 162/1/3
f 164/1/3 162/1/3 163/1/3
f 167/2/3 166/2/3 165/2/3
f 168/2/3 166/2/3 167/2/3
f 171/2/3 170/2/3 169/2/3
f 172/2/3 170/2/3 171/2/3
f 175/2/3 174/2/3 173/2/3
f 176/2/3 174/2/3 175/2/3
f 179/2/3 178/2/3 177/2/3
f 180/2/3 178/2/3 179/2/3
f 183/1/3 182/1/3 181/1/3
f 184/1/3 182/1/3 183/1/3
f 185/1/3 183/1/3 181/1/3
f 186/1/3 182/1/3 184/1/3
f 187/1/3 185/1/3 181/1/3
f 187/1/3 186/1/3 185/1/3
f 188/1/3 182/1/3 186/1/3
f 188/1/3 186/1/3 187/1/3
f 189/1/3 187/1/3 181/1/3
f 190/1/3 182/1/3 188/1/3
f 191/1/3 189/1/3 181/1/3
f 191/1/3 190/1/3 189/1/3
f 192/1/3 182/1/3 190/1/3
f 192/1/3 190/1/3 191/1/3
f 195/2/3 194/2/3 193/2/3
f 196/2/3 194/2/3 195/2/3
f 199/2/3 198/2/3 197/2/3
f 200/2/3 198/2/3 199/2/3
f 203/2/3 202/2/3 201/2/3
f 204/2/3 202/2/3 203/2/3
f 207/1/3 206/1/3 205/1/3
f 208/1/3 206/1/3 207/1/3
f 209/1/3 207/1/3 205/1/3
f 210/1/3 206/1/3 208/1/3
f 211/1/3 209/1/3 205/1/3
f 211/1/3 210/1/3 209/1/3
f 212/1/3 206/1/3 210/1/3
f 212/1/3 210/1/3 211/1/3
f 215/2/3 214/2/3 213/2/3
f 216/2/3 214/2/3 215/2/3
f 219/2/3 218/2/3 217/2/3
f 220/2/3 218/2/3 219/2/3
f 223/2/3 222/2/3 221/2/3
f 224/2/3 222/2/3 223/2/3
f 227/2/3 226/2/3 225/2/3
f 228/2/3 226/2/3 227/2/3
f 229/2/4 230/2/4 231/2/4
f 231/2/4 230/2/4 232/2/4
f 233/2/4 234/2/4 235/2/4
f 235/2/4 234/2/4 236/2/4
f 237/1/4 238/1/4 239/1/4
f 239/1/4 238/1/4 240/1/4
f 237/1/4 239/1/4 241/1/4
f 240/1/4 238/1/4 242/1/4
f 237/1/4 241/1/4 243/1/4
f 241/1/4 242/1/4 243/1/4
f 242/1/4 238/1/4 244/1/4
f 243/1/4 242/1/4 244/1/4
f 245/2/4 246/2/4 247/2/4
f 247/2/4 246/2/4 248/2/4
f 249/2/4 250/2/4 251/2/4
f 251/2/4 250/2/4 252/2/4
f 253/2/4 254/2/4 255/2/4
f 255/2/4 254/2/4 256/2/4
f 257/2/4 258/2/4 259/2/4
f 259/2/4 258/2/4 260/2/4
f 261/2/4 262/2/4 263/2/4
f 263/2/4 262/2/4 264/2/4
f 265/1/4 266/1/4 267/1/4
f 267/1/4 266/1/4 268/1/4
f 265/1/4 267/1/4 269/1/4
f 268/1/4 266/1/4 270/1/4
f 265/1/4 269/1/4 271/1/4
f 269/1/4 270/1/4 271/1/4
f 270/1/4 266/1/4 272/1/4
f 271/1/4 270/1/4 272/1/4
f 273/2/4 274/2/4 275/2/4
f 275/2/4 274/2/4 276/2/4
f 277/2/4 278/2/4 279/2/4
f 279/2/4 278/2/4 280/2/4
f 281/2/4 282/2/4 283/2/4
f 283/2/4 282/2/4 284/2/4
f 285/1/4 286/1/4 287/1/4
f 287/1/4 286/1/4 288/1/4
f 285/1/4 287/1/4 289/1/4
f 288/1/4 286/1/4 290/1/4
f 285/1/4 289/1/4 291/1/4
f 289/1/4 290/1/4 291/1/4
f 290/1/4 286/1/4 292/1/4
f 291/1/4 290/1/4 292/1/4
f 285/1/4 291/1/4 293/1/4
f 292/1/4 286/1/4 294/1/4
f 285/1/4 293/1/4 295/1/4
f 293/1/4 294/1/4 295/1/4
f 294/1/4 286/1/4 296/1/4
f 295/1/4 294/1/4 296/1/4
f 297/2/4 298/2/4 299/2/4
f 299/2/4 298/2/4 300/2/4
f 301/2/4 302/2/4 303/2/4
f 303/2/4 302/2/4 304/2/4
f 307/1/5 306/1/5 305/1/5
f 308/1/5 306/1/5 307/1/5
f 311/1/5 310/1/5 309/1/5
f 312/1/5 310/1/5 311/1/5
f 315/2/5 314/2/5 313/2/5
f 316/2/5 314/2/5 315/2/5
f 319/2/5 318/2/5 317/2/5
f 320/2/5 318/2/5 319/2/5
f 323/2/5 322/2/5 321/2/5
f 324/2/5 322/2/5 323/2/5
f 329/2/5 326/2/5 325/2/5
f 330/2/5 326/2/5 329/2/5
f 331/2/5 328/2/5 327/2/5
f 332/2/5 328/2/5 331/2/5
f 337/2/5 334/2/5 333/2/5
f 338/2/5 334/2/5 337/2/5
f 339/2/5 336/2/5 335/2/5
f 340/2/5 336/2/5 339/2/5
f 345/2/5 342/2/5 341/2/5
f 346/2/5 342/2/5 345/2/5
f 347/2/5 344/2/5 343/2/5
f 348/2/5 344/2/5 347/2/5
f 353/2/5 350/2/5 349/2/5
f 354/2/5 350/2/5 353/2/5
f 355/2/5 352/2/5 351/2/5
f 356/2/5 352/2/5 355/2/5
f 359/2/5 358/2/5 357/2/5
f 360/2/5 358/2/5 359/2/5
f 365/2/5 362/2/5 361/2/5
f 366/2/5 362/2/5 365/2/5
f 367/2/5 364/2/5 363/2/5
f 368/2/5 364/2/5 367/2/5
f 371/2/5 370/2/5 369/2/5
f 372/2/5 370/2/5 371/2/5
f 373/2/6 374/2/6 375/2/6
f 375/2/6 374/2/6 376/2/6
f 377/2/6 378/2/6 379/2/6
f 379/2/6 378/2/6 380/2/6
f 381/2/6 382/2/6 383/2/6
f 383/2/6 382/2/6 384/2/6
f 385/2/6 386/2/6 389/2/6
f 389/2/6 386/2/6 390/2/6
f 387/2/6 388/2/6 391/2/6
f 391/2/6 388/2/6 392/2/6
f 393/2/6 394/2/6 397/2/6
f 397/2/6 394/2/6 398/2/6
f 395/2/6 396/2/6 399/2/6
f 399/2/6 396/2/6 400/2/6
f 401/2/6 402/2/6 405/2/6
f 405/2/6 402/2/6 406/2/6
f 403/2/6 404/2/6 407/2/6
f 407/2/6 404/2/6 408/2/6
f 409/2/6 410/2/6 413/2/6
f 413/2/6 410/2/6 414/2/6
f 411/2/6 412/2/6 415/2/6
f 415/2/6 412/2/6 416/2/6
f 417/1/6 418/1/6 419/1/6
f 419/1/6 418/1/6 420/1/6
f 417/1/6 419/1/6 421/1/6
f 420/1/6 418/1/6 422/1/6
f 417/1/6 421/1/6 423/1/6
f 421/1/6 422/1/6 423/1/6
f 422/1/6 418/1/6 424/1/6
f 423/1/6 422/1/6 424/1/6
f 425/1/6 426/1/6 427/1/6
f 427/1/6 426/1/6 428/1/6
f 425/1/6 427/1/6 429/1/6
f 428/1/6 426/1/6 430/1/6
f 425/1/6 429/1/6 431/1/6
f 429/1/6 430/1/6 431/1/6
f 430/1/6 426/1/6 432/1/6
f 431/1/6 430/1/6 432/1/6
f 433/2/6 434/2/6 435/2/6
f 435/2/6 434/2/6 436/2/6
f 437/2/6 438/2/6 439/2/6
f 439/2/6 438/2/6 440/2/6
f 441/2/6 442/2/6 445/2/6
f 445/2/6 442/2/6 446/2/6
f 443/2/6 444/2/6 447/2/6
f 447/2/6 444/2/6 448/2/6
f 449/2/6 450/2/6 451/2/6
f 451/2/6 450/2/6 452/2/6
f 453/1/6 454/1/6 455/1/6
f 455/1/6 454/1/6 456/1/6
