# MagicaVoxel @ Ephtracy

# group
o 

# material
mtllib Wall-Plant.mtl
usemtl palette

# normals
vn -1 0 0
vn 1 0 0
vn 0 0 1
vn 0 0 -1
vn 0 -1 0
vn 0 1 0

# texcoords
vt 0.556641 0.5
vt 0.568359 0.5

# verts
v 3.3 7.7 -9.5
v 3.3 7.7 -9.6
v 3.3 7.8 -9.6
v 3.3 7.8 -9.7
v 3.3 7.9 -9.5
v 3.3 7.9 -9.7
v 3.4 7.5 -9.5
v 3.4 7.5 -9.6
v 3.4 7.7 -9.5
v 3.4 7.7 -9.6
v 3.4 7.8 -9.7
v 3.4 7.8 -9.8
v 3.4 7.9 -9.7
v 3.4 7.9 -9.8
v 3.5 7.4 -9.5
v 3.5 7.4 -9.6
v 3.5 7.5 -9.5
v 3.5 7.5 -9.6
v 3.5 7.6 -9.4
v 3.5 7.6 -9.5
v 3.5 7.8 -9.8
v 3.5 7.8 -9.9
v 3.5 7.9 -9.5
v 3.5 7.9 -9.7
v 3.5 7.9 -9.8
v 3.5 7.9 -9.9
v 3.5 8 -9.4
v 3.5 8 -9.7
v 3.6 7.3 -9.5
v 3.6 7.3 -9.6
v 3.6 7.4 -9.5
v 3.6 7.4 -9.6
v 3.6 7.5 -9.4
v 3.6 7.5 -9.5
v 3.6 7.6 -9.4
v 3.6 7.6 -9.5
v 3.6 7.8 -9.9
v 3.6 7.8 -10
v 3.6 7.9 -9.7
v 3.6 7.9 -9.8
v 3.6 7.9 -9.9
v 3.6 7.9 -10
v 3.6 8 -9.7
v 3.6 8 -9.8
v 3.7 7.1 -9.5
v 3.7 7.1 -9.6
v 3.7 7.3 -9.5
v 3.7 7.3 -9.6
v 3.7 7.4 -9.4
v 3.7 7.4 -9.5
v 3.7 7.5 -9.4
v 3.7 7.5 -9.5
v 3.8 6.7 -9.5
v 3.8 6.7 -9.6
v 3.8 7.1 -9.4
v 3.8 7.1 -9.5
v 3.8 7.1 -9.6
v 3.8 7.4 -9.4
v 3.8 7.4 -9.5
v 3.9 6.5 -9.5
v 3.9 6.5 -9.6
v 3.9 6.7 -9.5
v 3.9 6.7 -9.6
v 3.9 6.9 -9.4
v 3.9 6.9 -9.5
v 3.9 7.1 -9.4
v 3.9 7.1 -9.5
v 4.2 7.3 -9.5
v 4.2 7.3 -9.6
v 4.2 7.4 -9.5
v 4.2 7.4 -9.6
v 4.2 7.5 -9.4
v 4.2 7.5 -9.5
v 4.2 7.6 -9.4
v 4.2 7.6 -9.5
v 4.3 7.2 -9.5
v 4.3 7.2 -9.6
v 4.3 7.3 -9.5
v 4.3 7.3 -9.6
v 4.3 7.4 -9.4
v 4.3 7.4 -9.5
v 4.3 7.5 -9.4
v 4.3 7.5 -9.5
v 4.4 7.3 -9.4
v 4.4 7.3 -9.5
v 4.4 7.4 -9.4
v 4.4 7.4 -9.5
v 4.5 7.1 -9.5
v 4.5 7.1 -9.6
v 4.5 7.2 -9.4
v 4.5 7.2 -9.5
v 4.5 7.2 -9.6
v 4.5 7.3 -9.4
v 4.5 7.3 -9.5
v 4.6 6.8 -9.5
v 4.6 6.8 -9.6
v 4.6 7 -9.4
v 4.6 7 -9.5
v 4.6 7.1 -9.5
v 4.6 7.1 -9.6
v 4.6 7.2 -9.4
v 4.6 7.2 -9.5
v 4 6.5 -9.5
v 4 6.5 -9.6
v 4 6.9 -9.4
v 4 6.9 -9.5
v 4 6.9 -9.6
v 4 7.5 -9.4
v 4 7.5 -9.5
v 4.1 6.9 -9.5
v 4.1 6.9 -9.6
v 4.1 7.4 -9.5
v 4.1 7.4 -9.6
v 4.1 7.5 -9.4
v 4.1 7.5 -9.5
v 4.1 7.6 -9.4
v 4.1 7.6 -9.5
v 4.7 6.8 -9.5
v 4.7 6.8 -9.6
v 4.7 6.9 -9.5
v 4.7 6.9 -9.6
v 4.7 7 -9.4
v 4.7 7 -9.5
v 4.7 7.2 -9.4
v 4.7 7.2 -9.5
v 4.8 6.9 -9.5
v 4.8 6.9 -9.6
v 4.8 7.1 -9.5
v 4.8 7.1 -9.6
v 4.8 7.2 -9.4
v 4.8 7.2 -9.5
v 4.8 7.3 -9.4
v 4.8 7.3 -9.5
v 4.9 7.1 -9.5
v 4.9 7.1 -9.6
v 4.9 7.2 -9.5
v 4.9 7.2 -9.6
v 4.9 7.3 -9.4
v 4.9 7.3 -9.5
v 4.9 7.4 -9.4
v 4.9 7.4 -9.5
v 5 7.2 -9.5
v 5 7.2 -9.6
v 5 7.3 -9.5
v 5 7.3 -9.6
v 5 7.4 -9.4
v 5 7.4 -9.5
v 5 7.5 -9.4
v 5 7.5 -9.5
v 5.1 7.3 -9.5
v 5.1 7.3 -9.6
v 5.1 7.4 -9.5
v 5.1 7.4 -9.6
v 5.1 7.5 -9.4
v 5.1 7.5 -9.5
v 5.1 7.6 -9.4
v 5.1 7.6 -9.5
v 5.1 7.8 -9.9
v 5.1 7.8 -10
v 5.1 7.9 -9.9
v 5.1 7.9 -10
v 5.2 7.4 -9.5
v 5.2 7.4 -9.6
v 5.2 7.5 -9.5
v 5.2 7.5 -9.6
v 5.2 7.6 -9.4
v 5.2 7.6 -9.5
v 5.2 7.8 -9.8
v 5.2 7.8 -9.9
v 5.2 7.9 -9.5
v 5.2 7.9 -9.7
v 5.2 7.9 -9.8
v 5.2 7.9 -9.9
v 5.2 8 -9.4
v 5.2 8 -9.5
v 5.2 8 -9.7
v 5.2 8 -9.8
v 5.3 7.5 -9.5
v 5.3 7.5 -9.6
v 5.3 7.7 -9.5
v 5.3 7.7 -9.6
v 5.3 7.8 -9.7
v 5.3 7.8 -9.8
v 5.3 7.9 -9.5
v 5.3 7.9 -9.7
v 5.3 7.9 -9.8
v 5.3 8 -9.5
v 5.3 8 -9.7
v 5.4 7.7 -9.5
v 5.4 7.7 -9.6
v 5.4 7.8 -9.6
v 5.4 7.8 -9.7
v 5.4 7.9 -9.5
v 5.4 7.9 -9.7
v 3.5 7.6 -9.4
v 3.5 8 -9.4
v 3.6 7.5 -9.4
v 3.6 7.6 -9.4
v 3.7 7.4 -9.4
v 3.7 7.5 -9.4
v 3.8 7.1 -9.4
v 3.8 7.4 -9.4
v 3.9 6.9 -9.4
v 3.9 7.1 -9.4
v 4 6.9 -9.4
v 4 7.5 -9.4
v 4.1 7.5 -9.4
v 4.1 7.6 -9.4
v 4.2 7.5 -9.4
v 4.2 7.6 -9.4
v 4.3 7.4 -9.4
v 4.3 7.5 -9.4
v 4.4 7.3 -9.4
v 4.4 7.4 -9.4
v 4.5 7.2 -9.4
v 4.5 7.3 -9.4
v 4.6 7 -9.4
v 4.6 7.2 -9.4
v 4.7 7 -9.4
v 4.7 7.2 -9.4
v 4.8 7.2 -9.4
v 4.8 7.3 -9.4
v 4.9 7.3 -9.4
v 4.9 7.4 -9.4
v 5 7.4 -9.4
v 5 7.5 -9.4
v 5.1 7.5 -9.4
v 5.1 7.6 -9.4
v 5.2 7.6 -9.4
v 5.2 8 -9.4
v 3.3 7.7 -9.5
v 3.3 7.9 -9.5
v 3.4 7.5 -9.5
v 3.4 7.7 -9.5
v 3.5 7.4 -9.5
v 3.5 7.5 -9.5
v 3.5 7.6 -9.5
v 3.5 7.9 -9.5
v 3.6 7.3 -9.5
v 3.6 7.4 -9.5
v 3.6 7.5 -9.5
v 3.6 7.6 -9.5
v 3.7 7.1 -9.5
v 3.7 7.3 -9.5
v 3.7 7.4 -9.5
v 3.7 7.5 -9.5
v 3.8 6.7 -9.5
v 3.8 7.1 -9.5
v 3.8 7.4 -9.5
v 3.9 6.5 -9.5
v 3.9 6.7 -9.5
v 3.9 6.9 -9.5
v 3.9 7.1 -9.5
v 4 6.5 -9.5
v 4 6.9 -9.5
v 4 7.5 -9.5
v 4.1 6.9 -9.5
v 4.1 7.4 -9.5
v 4.1 7.5 -9.5
v 4.1 7.6 -9.5
v 4.2 7.3 -9.5
v 4.2 7.4 -9.5
v 4.2 7.5 -9.5
v 4.2 7.6 -9.5
v 4.3 7.2 -9.5
v 4.3 7.3 -9.5
v 4.3 7.4 -9.5
v 4.3 7.5 -9.5
v 4.4 7.3 -9.5
v 4.4 7.4 -9.5
v 4.5 7.1 -9.5
v 4.5 7.2 -9.5
v 4.5 7.3 -9.5
v 4.6 6.8 -9.5
v 4.6 7 -9.5
v 4.6 7.1 -9.5
v 4.6 7.2 -9.5
v 4.7 6.8 -9.5
v 4.7 6.9 -9.5
v 4.7 7 -9.5
v 4.7 7.2 -9.5
v 4.8 6.9 -9.5
v 4.8 7.1 -9.5
v 4.8 7.2 -9.5
v 4.8 7.3 -9.5
v 4.9 7.1 -9.5
v 4.9 7.2 -9.5
v 4.9 7.3 -9.5
v 4.9 7.4 -9.5
v 5 7.2 -9.5
v 5 7.3 -9.5
v 5 7.4 -9.5
v 5 7.5 -9.5
v 5.1 7.3 -9.5
v 5.1 7.4 -9.5
v 5.1 7.5 -9.5
v 5.1 7.6 -9.5
v 5.2 7.4 -9.5
v 5.2 7.5 -9.5
v 5.2 7.6 -9.5
v 5.2 7.9 -9.5
v 5.2 8 -9.5
v 5.3 7.5 -9.5
v 5.3 7.7 -9.5
v 5.3 7.9 -9.5
v 5.3 8 -9.5
v 5.4 7.7 -9.5
v 5.4 7.9 -9.5
v 3.3 7.7 -9.6
v 3.3 7.8 -9.6
v 3.4 7.5 -9.6
v 3.4 7.7 -9.6
v 3.5 7.4 -9.6
v 3.5 7.5 -9.6
v 3.6 7.3 -9.6
v 3.6 7.4 -9.6
v 3.7 7.1 -9.6
v 3.7 7.3 -9.6
v 3.8 6.7 -9.6
v 3.8 7.1 -9.6
v 3.9 6.5 -9.6
v 3.9 6.7 -9.6
v 4 6.5 -9.6
v 4 6.9 -9.6
v 4.1 6.9 -9.6
v 4.1 7.4 -9.6
v 4.2 7.3 -9.6
v 4.2 7.4 -9.6
v 4.3 7.2 -9.6
v 4.3 7.3 -9.6
v 4.5 7.1 -9.6
v 4.5 7.2 -9.6
v 4.6 6.8 -9.6
v 4.6 7.1 -9.6
v 4.7 6.8 -9.6
v 4.7 6.9 -9.6
v 4.8 6.9 -9.6
v 4.8 7.1 -9.6
v 4.9 7.1 -9.6
v 4.9 7.2 -9.6
v 5 7.2 -9.6
v 5 7.3 -9.6
v 5.1 7.3 -9.6
v 5.1 7.4 -9.6
v 5.2 7.4 -9.6
v 5.2 7.5 -9.6
v 5.3 7.5 -9.6
v 5.3 7.7 -9.6
v 5.4 7.7 -9.6
v 5.4 7.8 -9.6
v 3.3 7.8 -9.7
v 3.3 7.9 -9.7
v 3.4 7.8 -9.7
v 3.4 7.9 -9.7
v 3.5 7.9 -9.7
v 3.5 8 -9.7
v 3.6 7.9 -9.7
v 3.6 8 -9.7
v 5.2 7.9 -9.7
v 5.2 8 -9.7
v 5.3 7.8 -9.7
v 5.3 7.9 -9.7
v 5.3 8 -9.7
v 5.4 7.8 -9.7
v 5.4 7.9 -9.7
v 3.4 7.8 -9.8
v 3.4 7.9 -9.8
v 3.5 7.8 -9.8
v 3.5 7.9 -9.8
v 3.6 7.9 -9.8
v 3.6 8 -9.8
v 5.2 7.8 -9.8
v 5.2 7.9 -9.8
v 5.2 8 -9.8
v 5.3 7.8 -9.8
v 5.3 7.9 -9.8
v 3.5 7.8 -9.9
v 3.5 7.9 -9.9
v 3.6 7.8 -9.9
v 3.6 7.9 -9.9
v 5.1 7.8 -9.9
v 5.1 7.9 -9.9
v 5.2 7.8 -9.9
v 5.2 7.9 -9.9
v 3.6 7.8 -10
v 3.6 7.9 -10
v 5.1 7.8 -10
v 5.1 7.9 -10
v 3.9 6.5 -9.5
v 4 6.5 -9.5
v 3.9 6.5 -9.6
v 4 6.5 -9.6
v 3.8 6.7 -9.5
v 3.9 6.7 -9.5
v 3.8 6.7 -9.6
v 3.9 6.7 -9.6
v 4.6 6.8 -9.5
v 4.7 6.8 -9.5
v 4.6 6.8 -9.6
v 4.7 6.8 -9.6
v 3.9 6.9 -9.4
v 4 6.9 -9.4
v 3.9 6.9 -9.5
v 4 6.9 -9.5
v 4.1 6.9 -9.5
v 4.7 6.9 -9.5
v 4.8 6.9 -9.5
v 4 6.9 -9.6
v 4.1 6.9 -9.6
v 4.7 6.9 -9.6
v 4.8 6.9 -9.6
v 4.6 7 -9.4
v 4.7 7 -9.4
v 4.6 7 -9.5
v 4.7 7 -9.5
v 3.8 7.1 -9.4
v 3.9 7.1 -9.4
v 3.7 7.1 -9.5
v 3.8 7.1 -9.5
v 3.9 7.1 -9.5
v 4.5 7.1 -9.5
v 4.6 7.1 -9.5
v 4.8 7.1 -9.5
v 4.9 7.1 -9.5
v 3.7 7.1 -9.6
v 3.8 7.1 -9.6
v 4.5 7.1 -9.6
v 4.6 7.1 -9.6
v 4.8 7.1 -9.6
v 4.9 7.1 -9.6
v 4.5 7.2 -9.4
v 4.6 7.2 -9.4
v 4.7 7.2 -9.4
v 4.8 7.2 -9.4
v 4.3 7.2 -9.5
v 4.5 7.2 -9.5
v 4.6 7.2 -9.5
v 4.7 7.2 -9.5
v 4.8 7.2 -9.5
v 4.9 7.2 -9.5
v 5 7.2 -9.5
v 4.3 7.2 -9.6
v 4.5 7.2 -9.6
v 4.9 7.2 -9.6
v 5 7.2 -9.6
v 4.4 7.3 -9.4
v 4.5 7.3 -9.4
v 4.8 7.3 -9.4
v 4.9 7.3 -9.4
v 3.6 7.3 -9.5
v 3.7 7.3 -9.5
v 4.2 7.3 -9.5
v 4.3 7.3 -9.5
v 4.4 7.3 -9.5
v 4.5 7.3 -9.5
v 4.8 7.3 -9.5
v 4.9 7.3 -9.5
v 5 7.3 -9.5
v 5.1 7.3 -9.5
v 3.6 7.3 -9.6
v 3.7 7.3 -9.6
v 4.2 7.3 -9.6
v 4.3 7.3 -9.6
v 5 7.3 -9.6
v 5.1 7.3 -9.6
v 3.7 7.4 -9.4
v 3.8 7.4 -9.4
v 4.3 7.4 -9.4
v 4.4 7.4 -9.4
v 4.9 7.4 -9.4
v 5 7.4 -9.4
v 3.5 7.4 -9.5
v 3.6 7.4 -9.5
v 3.7 7.4 -9.5
v 3.8 7.4 -9.5
v 4.1 7.4 -9.5
v 4.2 7.4 -9.5
v 4.3 7.4 -9.5
v 4.4 7.4 -9.5
v 4.9 7.4 -9.5
v 5 7.4 -9.5
v 5.1 7.4 -9.5
v 5.2 7.4 -9.5
v 3.5 7.4 -9.6
v 3.6 7.4 -9.6
v 4.1 7.4 -9.6
v 4.2 7.4 -9.6
v 5.1 7.4 -9.6
v 5.2 7.4 -9.6
v 3.6 7.5 -9.4
v 3.7 7.5 -9.4
v 4 7.5 -9.4
v 4.1 7.5 -9.4
v 4.2 7.5 -9.4
v 4.3 7.5 -9.4
v 5 7.5 -9.4
v 5.1 7.5 -9.4
v 3.4 7.5 -9.5
v 3.5 7.5 -9.5
v 3.6 7.5 -9.5
v 3.7 7.5 -9.5
v 4 7.5 -9.5
v 4.1 7.5 -9.5
v 4.2 7.5 -9.5
v 4.3 7.5 -9.5
v 5 7.5 -9.5
v 5.1 7.5 -9.5
v 5.2 7.5 -9.5
v 5.3 7.5 -9.5
v 3.4 7.5 -9.6
v 3.5 7.5 -9.6
v 5.2 7.5 -9.6
v 5.3 7.5 -9.6
v 3.5 7.6 -9.4
v 3.6 7.6 -9.4
v 4.1 7.6 -9.4
v 4.2 7.6 -9.4
v 5.1 7.6 -9.4
v 5.2 7.6 -9.4
v 3.5 7.6 -9.5
v 3.6 7.6 -9.5
v 4.1 7.6 -9.5
v 4.2 7.6 -9.5
v 5.1 7.6 -9.5
v 5.2 7.6 -9.5
v 3.3 7.7 -9.5
v 3.4 7.7 -9.5
v 5.3 7.7 -9.5
v 5.4 7.7 -9.5
v 3.3 7.7 -9.6
v 3.4 7.7 -9.6
v 5.3 7.7 -9.6
v 5.4 7.7 -9.6
v 3.3 7.8 -9.6
v 5.4 7.8 -9.6
v 3.3 7.8 -9.7
v 3.4 7.8 -9.7
v 5.3 7.8 -9.7
v 5.4 7.8 -9.7
v 3.4 7.8 -9.8
v 3.5 7.8 -9.8
v 5.2 7.8 -9.8
v 5.3 7.8 -9.8
v 3.5 7.8 -9.9
v 3.6 7.8 -9.9
v 5.1 7.8 -9.9
v 5.2 7.8 -9.9
v 3.6 7.8 -10
v 5.1 7.8 -10
v 3.3 7.9 -9.5
v 3.5 7.9 -9.5
v 5.3 7.9 -9.5
v 5.4 7.9 -9.5
v 3.3 7.9 -9.7
v 3.4 7.9 -9.7
v 3.5 7.9 -9.7
v 3.6 7.9 -9.7
v 5.2 7.9 -9.7
v 5.3 7.9 -9.7
v 5.4 7.9 -9.7
v 3.4 7.9 -9.8
v 3.5 7.9 -9.8
v 3.6 7.9 -9.8
v 5.2 7.9 -9.8
v 5.3 7.9 -9.8
v 3.5 7.9 -9.9
v 3.6 7.9 -9.9
v 5.1 7.9 -9.9
v 5.2 7.9 -9.9
v 3.6 7.9 -10
v 5.1 7.9 -10
v 3.5 8 -9.4
v 5.2 8 -9.4
v 5.2 8 -9.5
v 5.3 8 -9.5
v 3.5 8 -9.7
v 3.6 8 -9.7
v 5.2 8 -9.7
v 5.3 8 -9.7
v 3.6 8 -9.8
v 5.2 8 -9.8

# faces
f 3/2/1 2/2/1 1/2/1
f 5/2/1 3/2/1 1/2/1
f 5/2/1 4/2/1 3/2/1
f 6/2/1 4/2/1 5/2/1
f 9/2/1 8/2/1 7/2/1
f 10/2/1 8/2/1 9/2/1
f 13/2/1 12/2/1 11/2/1
f 14/2/1 12/2/1 13/2/1
f 17/2/1 16/2/1 15/2/1
f 18/2/1 16/2/1 17/2/1
f 23/1/1 20/1/1 19/1/1
f 25/2/1 22/2/1 21/2/1
f 26/2/1 22/2/1 25/2/1
f 27/1/1 24/1/1 23/1/1
f 27/1/1 23/1/1 19/1/1
f 28/1/1 24/1/1 27/1/1
f 31/2/1 30/2/1 29/2/1
f 32/2/1 30/2/1 31/2/1
f 35/1/1 34/1/1 33/1/1
f 36/1/1 34/1/1 35/1/1
f 41/2/1 38/2/1 37/2/1
f 42/2/1 38/2/1 41/2/1
f 43/1/1 40/1/1 39/1/1
f 44/1/1 40/1/1 43/1/1
f 47/2/1 46/2/1 45/2/1
f 48/2/1 46/2/1 47/2/1
f 51/1/1 50/1/1 49/1/1
f 52/1/1 50/1/1 51/1/1
f 56/2/1 54/2/1 53/2/1
f 57/2/1 54/2/1 56/2/1
f 58/1/1 56/1/1 55/1/1
f 59/1/1 56/1/1 58/1/1
f 62/2/1 61/2/1 60/2/1
f 63/2/1 61/2/1 62/2/1
f 66/1/1 65/1/1 64/1/1
f 67/1/1 65/1/1 66/1/1
f 70/2/1 69/2/1 68/2/1
f 71/2/1 69/2/1 70/2/1
f 74/1/1 73/1/1 72/1/1
f 75/1/1 73/1/1 74/1/1
f 78/2/1 77/2/1 76/2/1
f 79/2/1 77/2/1 78/2/1
f 82/1/1 81/1/1 80/1/1
f 83/1/1 81/1/1 82/1/1
f 86/1/1 85/1/1 84/1/1
f 87/1/1 85/1/1 86/1/1
f 91/2/1 89/2/1 88/2/1
f 92/2/1 89/2/1 91/2/1
f 93/1/1 91/1/1 90/1/1
f 94/1/1 91/1/1 93/1/1
f 98/2/1 96/2/1 95/2/1
f 99/2/1 96/2/1 98/2/1
f 99/1/1 98/1/1 97/1/1
f 100/2/1 96/2/1 99/2/1
f 101/1/1 99/1/1 97/1/1
f 102/1/1 99/1/1 101/1/1
f 103/2/2 104/2/2 106/2/2
f 106/2/2 104/2/2 107/2/2
f 105/1/2 106/1/2 108/1/2
f 108/1/2 106/1/2 109/1/2
f 110/2/2 111/2/2 112/2/2
f 112/2/2 111/2/2 113/2/2
f 114/1/2 115/1/2 116/1/2
f 116/1/2 115/1/2 117/1/2
f 118/2/2 119/2/2 120/2/2
f 120/2/2 119/2/2 121/2/2
f 122/1/2 123/1/2 124/1/2
f 124/1/2 123/1/2 125/1/2
f 126/2/2 127/2/2 128/2/2
f 128/2/2 127/2/2 129/2/2
f 130/1/2 131/1/2 132/1/2
f 132/1/2 131/1/2 133/1/2
f 134/2/2 135/2/2 136/2/2
f 136/2/2 135/2/2 137/2/2
f 138/1/2 139/1/2 140/1/2
f 140/1/2 139/1/2 141/1/2
f 142/2/2 143/2/2 144/2/2
f 144/2/2 143/2/2 145/2/2
f 146/1/2 147/1/2 148/1/2
f 148/1/2 147/1/2 149/1/2
f 150/2/2 151/2/2 152/2/2
f 152/2/2 151/2/2 153/2/2
f 154/1/2 155/1/2 156/1/2
f 156/1/2 155/1/2 157/1/2
f 158/2/2 159/2/2 160/2/2
f 160/2/2 159/2/2 161/2/2
f 162/2/2 163/2/2 164/2/2
f 164/2/2 163/2/2 165/2/2
f 166/1/2 167/1/2 170/1/2
f 168/2/2 169/2/2 172/2/2
f 172/2/2 169/2/2 173/2/2
f 166/1/2 170/1/2 174/1/2
f 174/1/2 170/1/2 175/1/2
f 171/1/2 172/1/2 176/1/2
f 176/1/2 172/1/2 177/1/2
f 178/2/2 179/2/2 180/2/2
f 180/2/2 179/2/2 181/2/2
f 182/2/2 183/2/2 185/2/2
f 185/2/2 183/2/2 186/2/2
f 184/1/2 185/1/2 187/1/2
f 187/1/2 185/1/2 188/1/2
f 189/2/2 190/2/2 191/2/2
f 189/2/2 191/2/2 193/2/2
f 191/2/2 192/2/2 193/2/2
f 193/2/2 192/2/2 194/2/2
f 198/1/3 196/1/3 195/1/3
f 200/1/3 198/1/3 197/1/3
f 202/1/3 200/1/3 199/1/3
f 204/1/3 202/1/3 201/1/3
f 205/1/3 204/1/3 203/1/3
f 206/1/3 198/1/3 200/1/3
f 206/1/3 204/1/3 205/1/3
f 206/1/3 200/1/3 202/1/3
f 206/1/3 202/1/3 204/1/3
f 207/1/3 198/1/3 206/1/3
f 208/1/3 196/1/3 198/1/3
f 208/1/3 198/1/3 207/1/3
f 210/1/3 196/1/3 208/1/3
f 212/1/3 210/1/3 209/1/3
f 214/1/3 212/1/3 211/1/3
f 216/1/3 214/1/3 213/1/3
f 218/1/3 216/1/3 215/1/3
f 219/1/3 218/1/3 217/1/3
f 220/1/3 216/1/3 218/1/3
f 220/1/3 218/1/3 219/1/3
f 221/1/3 216/1/3 220/1/3
f 222/1/3 214/1/3 216/1/3
f 222/1/3 216/1/3 221/1/3
f 223/1/3 214/1/3 222/1/3
f 224/1/3 212/1/3 214/1/3
f 224/1/3 214/1/3 223/1/3
f 225/1/3 212/1/3 224/1/3
f 226/1/3 210/1/3 212/1/3
f 226/1/3 212/1/3 225/1/3
f 227/1/3 210/1/3 226/1/3
f 228/1/3 196/1/3 210/1/3
f 228/1/3 210/1/3 227/1/3
f 229/1/3 196/1/3 228/1/3
f 230/1/3 196/1/3 229/1/3
f 234/2/3 232/2/3 231/2/3
f 236/2/3 234/2/3 233/2/3
f 237/2/3 234/2/3 236/2/3
f 238/2/3 232/2/3 234/2/3
f 238/2/3 234/2/3 237/2/3
f 240/2/3 237/2/3 236/2/3
f 240/2/3 236/2/3 235/2/3
f 241/2/3 237/2/3 240/2/3
f 242/2/3 237/2/3 241/2/3
f 244/2/3 240/2/3 239/2/3
f 244/2/3 241/2/3 240/2/3
f 245/2/3 241/2/3 244/2/3
f 246/2/3 241/2/3 245/2/3
f 248/2/3 244/2/3 243/2/3
f 248/2/3 245/2/3 244/2/3
f 249/2/3 245/2/3 248/2/3
f 251/2/3 248/2/3 247/2/3
f 252/2/3 248/2/3 251/2/3
f 253/2/3 248/2/3 252/2/3
f 254/2/3 251/2/3 250/2/3
f 254/2/3 252/2/3 251/2/3
f 255/2/3 252/2/3 254/2/3
f 257/2/3 256/2/3 255/2/3
f 258/2/3 256/2/3 257/2/3
f 259/2/3 256/2/3 258/2/3
f 262/2/3 259/2/3 258/2/3
f 262/2/3 260/2/3 259/2/3
f 263/2/3 260/2/3 262/2/3
f 264/2/3 260/2/3 263/2/3
f 266/2/3 262/2/3 261/2/3
f 266/2/3 263/2/3 262/2/3
f 267/2/3 263/2/3 266/2/3
f 268/2/3 263/2/3 267/2/3
f 269/2/3 266/2/3 265/2/3
f 269/2/3 267/2/3 266/2/3
f 270/2/3 267/2/3 269/2/3
f 272/2/3 269/2/3 265/2/3
f 273/2/3 269/2/3 272/2/3
f 276/2/3 272/2/3 271/2/3
f 277/2/3 272/2/3 276/2/3
f 278/2/3 275/2/3 274/2/3
f 279/2/3 275/2/3 278/2/3
f 280/2/3 275/2/3 279/2/3
f 282/2/3 281/2/3 280/2/3
f 282/2/3 280/2/3 279/2/3
f 283/2/3 281/2/3 282/2/3
f 284/2/3 281/2/3 283/2/3
f 286/2/3 284/2/3 283/2/3
f 286/2/3 285/2/3 284/2/3
f 287/2/3 285/2/3 286/2/3
f 288/2/3 285/2/3 287/2/3
f 290/2/3 288/2/3 287/2/3
f 290/2/3 289/2/3 288/2/3
f 291/2/3 289/2/3 290/2/3
f 292/2/3 289/2/3 291/2/3
f 294/2/3 292/2/3 291/2/3
f 294/2/3 293/2/3 292/2/3
f 295/2/3 293/2/3 294/2/3
f 296/2/3 293/2/3 295/2/3
f 298/2/3 296/2/3 295/2/3
f 298/2/3 297/2/3 296/2/3
f 299/2/3 297/2/3 298/2/3
f 300/2/3 297/2/3 299/2/3
f 303/2/3 301/2/3 300/2/3
f 303/2/3 300/2/3 299/2/3
f 304/2/3 301/2/3 303/2/3
f 305/1/3 302/1/3 301/1/3
f 305/2/3 301/2/3 304/2/3
f 306/1/3 302/1/3 305/1/3
f 307/2/3 305/2/3 304/2/3
f 308/2/3 305/2/3 307/2/3
f 309/2/4 310/2/4 312/2/4
f 311/2/4 312/2/4 314/2/4
f 313/2/4 314/2/4 316/2/4
f 315/2/4 316/2/4 318/2/4
f 317/2/4 318/2/4 320/2/4
f 319/2/4 320/2/4 322/2/4
f 321/2/4 322/2/4 323/2/4
f 322/2/4 320/2/4 324/2/4
f 323/2/4 322/2/4 324/2/4
f 324/2/4 320/2/4 325/2/4
f 316/2/4 314/2/4 326/2/4
f 325/2/4 320/2/4 326/2/4
f 318/2/4 316/2/4 326/2/4
f 320/2/4 318/2/4 326/2/4
f 326/2/4 314/2/4 328/2/4
f 327/2/4 328/2/4 330/2/4
f 329/2/4 330/2/4 332/2/4
f 331/2/4 332/2/4 334/2/4
f 333/2/4 334/2/4 335/2/4
f 335/2/4 334/2/4 336/2/4
f 336/2/4 334/2/4 337/2/4
f 334/2/4 332/2/4 338/2/4
f 337/2/4 334/2/4 338/2/4
f 338/2/4 332/2/4 339/2/4
f 332/2/4 330/2/4 340/2/4
f 339/2/4 332/2/4 340/2/4
f 340/2/4 330/2/4 341/2/4
f 330/2/4 328/2/4 342/2/4
f 341/2/4 330/2/4 342/2/4
f 342/2/4 328/2/4 343/2/4
f 328/2/4 314/2/4 344/2/4
f 343/2/4 328/2/4 344/2/4
f 344/2/4 314/2/4 345/2/4
f 314/2/4 312/2/4 346/2/4
f 345/2/4 314/2/4 346/2/4
f 346/2/4 312/2/4 347/2/4
f 312/2/4 310/2/4 348/2/4
f 347/2/4 312/2/4 348/2/4
f 348/2/4 310/2/4 349/2/4
f 349/2/4 310/2/4 350/2/4
f 351/2/4 352/2/4 353/2/4
f 353/2/4 352/2/4 354/2/4
f 355/1/4 356/1/4 357/1/4
f 357/1/4 356/1/4 358/1/4
f 359/1/4 360/1/4 362/1/4
f 362/1/4 360/1/4 363/1/4
f 361/2/4 362/2/4 364/2/4
f 364/2/4 362/2/4 365/2/4
f 366/2/4 367/2/4 368/2/4
f 368/2/4 367/2/4 369/2/4
f 370/1/4 371/1/4 373/1/4
f 373/1/4 371/1/4 374/1/4
f 372/2/4 373/2/4 375/2/4
f 375/2/4 373/2/4 376/2/4
f 377/2/4 378/2/4 379/2/4
f 379/2/4 378/2/4 380/2/4
f 381/2/4 382/2/4 383/2/4
f 383/2/4 382/2/4 384/2/4
f 385/2/4 386/2/4 387/2/4
f 387/2/4 386/2/4 388/2/4
f 391/2/5 390/2/5 389/2/5
f 392/2/5 390/2/5 391/2/5
f 395/2/5 394/2/5 393/2/5
f 396/2/5 394/2/5 395/2/5
f 399/2/5 398/2/5 397/2/5
f 400/2/5 398/2/5 399/2/5
f 403/1/5 402/1/5 401/1/5
f 404/1/5 402/1/5 403/1/5
f 408/2/5 405/2/5 404/2/5
f 409/2/5 405/2/5 408/2/5
f 410/2/5 407/2/5 406/2/5
f 411/2/5 407/2/5 410/2/5
f 414/1/5 413/1/5 412/1/5
f 415/1/5 413/1/5 414/1/5
f 419/1/5 417/1/5 416/1/5
f 420/1/5 417/1/5 419/1/5
f 425/2/5 419/2/5 418/2/5
f 426/2/5 419/2/5 425/2/5
f 427/2/5 422/2/5 421/2/5
f 428/2/5 422/2/5 427/2/5
f 429/2/5 424/2/5 423/2/5
f 430/2/5 424/2/5 429/2/5
f 436/1/5 432/1/5 431/1/5
f 437/1/5 432/1/5 436/1/5
f 438/1/5 434/1/5 433/1/5
f 439/1/5 434/1/5 438/1/5
f 442/2/5 436/2/5 435/2/5
f 443/2/5 436/2/5 442/2/5
f 444/2/5 441/2/5 440/2/5
f 445/2/5 441/2/5 444/2/5
f 454/1/5 447/1/5 446/1/5
f 455/1/5 447/1/5 454/1/5
f 456/1/5 449/1/5 448/1/5
f 457/1/5 449/1/5 456/1/5
f 460/2/5 451/2/5 450/2/5
f 461/2/5 451/2/5 460/2/5
f 462/2/5 453/2/5 452/2/5
f 463/2/5 453/2/5 462/2/5
f 464/2/5 459/2/5 458/2/5
f 465/2/5 459/2/5 464/2/5
f 474/1/5 467/1/5 466/1/5
f 475/1/5 467/1/5 474/1/5
f 478/1/5 469/1/5 468/1/5
f 479/1/5 469/1/5 478/1/5
f 480/1/5 471/1/5 470/1/5
f 481/1/5 471/1/5 480/1/5
f 484/2/5 473/2/5 472/2/5
f 485/2/5 473/2/5 484/2/5
f 486/2/5 477/2/5 476/2/5
f 487/2/5 477/2/5 486/2/5
f 488/2/5 483/2/5 482/2/5
f 489/2/5 483/2/5 488/2/5
f 500/1/5 491/1/5 490/1/5
f 501/1/5 491/1/5 500/1/5
f 502/1/5 493/1/5 492/1/5
f 503/1/5 493/1/5 502/1/5
f 504/1/5 495/1/5 494/1/5
f 505/1/5 495/1/5 504/1/5
f 506/1/5 497/1/5 496/1/5
f 507/1/5 497/1/5 506/1/5
f 510/2/5 499/2/5 498/2/5
f 511/2/5 499/2/5 510/2/5
f 512/2/5 509/2/5 508/2/5
f 513/2/5 509/2/5 512/2/5
f 520/1/5 515/1/5 514/1/5
f 521/1/5 515/1/5 520/1/5
f 522/1/5 517/1/5 516/1/5
f 523/1/5 517/1/5 522/1/5
f 524/1/5 519/1/5 518/1/5
f 525/1/5 519/1/5 524/1/5
f 530/2/5 527/2/5 526/2/5
f 531/2/5 527/2/5 530/2/5
f 532/2/5 529/2/5 528/2/5
f 533/2/5 529/2/5 532/2/5
f 536/2/5 535/2/5 534/2/5
f 537/2/5 535/2/5 536/2/5
f 538/2/5 535/2/5 537/2/5
f 539/2/5 535/2/5 538/2/5
f 540/2/5 538/2/5 537/2/5
f 541/2/5 538/2/5 540/2/5
f 542/2/5 538/2/5 541/2/5
f 543/2/5 538/2/5 542/2/5
f 544/2/5 542/2/5 541/2/5
f 545/2/5 542/2/5 544/2/5
f 546/2/5 542/2/5 545/2/5
f 547/2/5 542/2/5 546/2/5
f 548/2/5 546/2/5 545/2/5
f 549/2/5 546/2/5 548/2/5
f 550/2/6 551/2/6 554/2/6
f 554/2/6 551/2/6 555/2/6
f 555/2/6 551/2/6 556/2/6
f 552/2/6 553/2/6 559/2/6
f 559/2/6 553/2/6 560/2/6
f 556/2/6 557/2/6 561/2/6
f 555/2/6 556/2/6 561/2/6
f 561/2/6 557/2/6 562/2/6
f 562/2/6 557/2/6 563/2/6
f 558/2/6 559/2/6 564/2/6
f 564/2/6 559/2/6 565/2/6
f 562/2/6 563/2/6 566/2/6
f 563/2/6 564/2/6 566/2/6
f 566/2/6 564/2/6 567/2/6
f 567/2/6 564/2/6 568/2/6
f 568/2/6 564/2/6 569/2/6
f 567/2/6 568/2/6 570/2/6
f 570/2/6 568/2/6 571/2/6
f 572/1/6 573/1/6 574/1/6
f 572/1/6 574/1/6 576/1/6
f 574/1/6 575/1/6 576/1/6
f 576/1/6 575/1/6 577/1/6
f 577/1/6 575/1/6 578/1/6
f 578/1/6 575/1/6 579/1/6
f 577/1/6 578/1/6 580/1/6
f 580/1/6 578/1/6 581/1/6
