# MagicaVoxel @ Ephtracy

# group
o Stone 3

# material
mtllib Stones-1-Stone 3.mtl
usemtl palette

# normals
vn -1 0 0
vn 1 0 0
vn 0 0 1
vn 0 0 -1
vn 0 -1 0
vn 0 1 0

# texcoords
vt 0.0722656 0.5
vt 0.115234 0.5

# verts
v 6.6 5 -4.7
v 6.6 5 -5
v 6.6 5 -5.1
v 6.6 5.2 -4.7
v 6.6 5.2 -4.9
v 6.6 5.3 -4.7
v 6.6 5.3 -4.9
v 6.6 5.3 -5
v 6.6 5.3 -5.1
v 6.7 5 -4.6
v 6.7 5 -4.7
v 6.7 5 -5.1
v 6.7 5 -5.3
v 6.7 5 -5.4
v 6.7 5.2 -4.6
v 6.7 5.2 -4.7
v 6.7 5.3 -4.7
v 6.7 5.3 -4.9
v 6.7 5.3 -5
v 6.7 5.3 -5.1
v 6.7 5.3 -5.3
v 6.7 5.4 -4.6
v 6.7 5.4 -4.9
v 6.7 5.4 -5
v 6.7 5.4 -5.2
v 6.7 5.4 -5.4
v 6.7 5.6 -5
v 6.7 5.6 -5.2
v 6.8 5 -5.4
v 6.8 5 -5.6
v 6.8 5.1 -5.4
v 6.8 5.1 -5.5
v 6.8 5.2 -5.4
v 6.8 5.2 -5.5
v 6.8 5.2 -5.6
v 6.8 5.4 -4.8
v 6.8 5.4 -4.9
v 6.8 5.4 -5
v 6.8 5.4 -5.2
v 6.8 5.4 -5.3
v 6.8 5.6 -5
v 6.8 5.6 -5.2
v 6.8 5.8 -4.8
v 6.8 5.8 -5.3
v 6.9 5 -4.5
v 6.9 5 -4.6
v 6.9 5.2 -5.4
v 6.9 5.2 -5.5
v 6.9 5.3 -4.5
v 6.9 5.3 -4.6
v 6.9 5.3 -5.4
v 6.9 5.3 -5.5
v 6.9 5.4 -4.6
v 6.9 5.4 -4.8
v 6.9 5.4 -5.3
v 6.9 5.4 -5.4
v 6.9 5.5 -4.5
v 6.9 5.5 -4.8
v 6.9 5.6 -4.5
v 6.9 5.6 -4.8
v 6.9 5.7 -5.3
v 6.9 5.7 -5.5
v 6.9 5.8 -5
v 6.9 5.8 -5.1
v 6.9 5.8 -5.2
v 6.9 5.9 -5
v 6.9 5.9 -5.1
v 6.9 5.9 -5.2
v 7 5.8 -4.9
v 7 5.8 -5
v 7 5.9 -5
v 7 5.9 -5.1
v 7 6 -4.9
v 7 6 -5.1
v 7.3 5 -4.4
v 7.3 5 -4.5
v 7.3 5 -5.5
v 7.3 5 -5.6
v 7.3 5.1 -4.4
v 7.3 5.1 -4.5
v 7.3 5.1 -5.5
v 7.3 5.1 -5.6
v 7.3 5.2 -4.4
v 7.3 5.2 -4.5
v 7.1 5.4 -5.3
v 7.1 5.4 -5.5
v 7.1 5.5 -5.3
v 7.1 5.5 -5.4
v 7.1 5.7 -5.3
v 7.1 5.7 -5.4
v 7.1 5.7 -5.5
v 7.1 5.8 -5.1
v 7.1 5.8 -5.2
v 7.1 5.9 -5.1
v 7.1 5.9 -5.2
v 7.2 5 -5.5
v 7.2 5 -5.6
v 7.2 5.2 -5.5
v 7.2 5.2 -5.6
v 7.2 5.3 -4.5
v 7.2 5.3 -4.6
v 7.2 5.4 -4.5
v 7.2 5.4 -4.6
v 7.2 5.4 -4.8
v 7.2 5.6 -4.5
v 7.2 5.6 -4.8
v 7.2 5.8 -4.9
v 7.2 5.8 -5.1
v 7.2 6 -4.9
v 7.2 6 -5.1
v 7.3 5.4 -4.8
v 7.3 5.4 -4.9
v 7.3 5.4 -5.2
v 7.3 5.4 -5.3
v 7.3 5.6 -4.8
v 7.3 5.6 -4.9
v 7.3 5.7 -4.9
v 7.3 5.7 -5.2
v 7.3 5.8 -4.8
v 7.3 5.8 -5.3
v 7.4 5.1 -5.4
v 7.4 5.1 -5.5
v 7.4 5.3 -5.4
v 7.4 5.4 -4.9
v 7.4 5.4 -5.1
v 7.4 5.4 -5.2
v 7.4 5.4 -5.4
v 7.4 5.4 -5.5
v 7.4 5.6 -4.9
v 7.4 5.6 -5.1
v 7.4 5.7 -4.9
v 7.4 5.7 -5.2
v 7.5 5 -5.1
v 7.5 5 -5.2
v 7.5 5.1 -5.2
v 7.5 5.1 -5.4
v 7.5 5.3 -4.6
v 7.5 5.3 -4.8
v 7.5 5.3 -5.1
v 7.5 5.3 -5.2
v 7.5 5.3 -5.4
v 7.5 5.4 -4.6
v 7.5 5.4 -4.8
v 7.5 5.4 -5.1
v 7.5 5.4 -5.4
v 7.6 5 -4.8
v 7.6 5 -4.9
v 7.6 5 -5.1
v 7.6 5 -5.2
v 7.6 5 -5.5
v 7.6 5 -5.6
v 7.6 5.1 -5.2
v 7.6 5.1 -5.5
v 7.6 5.1 -5.6
v 7.6 5.2 -4.5
v 7.6 5.2 -4.6
v 7.6 5.2 -4.8
v 7.6 5.2 -4.9
v 7.6 5.3 -4.5
v 7.6 5.3 -5.1
v 7.7 5 -4.4
v 7.7 5 -4.6
v 7.7 5 -4.8
v 7.7 5.2 -4.4
v 7.7 5.2 -4.6
v 7.7 5.2 -4.8
v 7.3 5 -4.4
v 7.3 5.1 -4.4
v 7.3 5.2 -4.4
v 7.4 5.1 -4.4
v 7.4 5.2 -4.4
v 7.7 5 -4.4
v 7.7 5.2 -4.4
v 6.9 5 -4.5
v 6.9 5.3 -4.5
v 6.9 5.5 -4.5
v 6.9 5.6 -4.5
v 7 5.3 -4.5
v 7 5.5 -4.5
v 7.1 5.1 -4.5
v 7.1 5.4 -4.5
v 7.2 5.3 -4.5
v 7.2 5.4 -4.5
v 7.2 5.6 -4.5
v 7.3 5 -4.5
v 7.3 5.1 -4.5
v 7.3 5.2 -4.5
v 7.4 5.2 -4.5
v 7.4 5.3 -4.5
v 7.6 5.2 -4.5
v 7.6 5.3 -4.5
v 6.7 5 -4.6
v 6.7 5.2 -4.6
v 6.7 5.4 -4.6
v 6.8 5.2 -4.6
v 6.8 5.4 -4.6
v 6.9 5 -4.6
v 6.9 5.3 -4.6
v 6.9 5.4 -4.6
v 7.2 5.3 -4.6
v 7.2 5.4 -4.6
v 7.4 5.3 -4.6
v 7.5 5.3 -4.6
v 7.5 5.4 -4.6
v 6.6 5 -4.7
v 6.6 5.2 -4.7
v 6.6 5.3 -4.7
v 6.7 5 -4.7
v 6.7 5.2 -4.7
v 6.7 5.3 -4.7
v 6.8 5.4 -4.8
v 6.8 5.8 -4.8
v 6.9 5.4 -4.8
v 6.9 5.5 -4.8
v 6.9 5.6 -4.8
v 7.2 5.4 -4.8
v 7.2 5.6 -4.8
v 7.3 5.4 -4.8
v 7.3 5.6 -4.8
v 7.3 5.8 -4.8
v 7 5.8 -4.9
v 7 6 -4.9
v 7.1 5.8 -4.9
v 7.1 6 -4.9
v 7.2 5.8 -4.9
v 7.2 6 -4.9
v 7.3 5.4 -4.9
v 7.3 5.6 -4.9
v 7.3 5.7 -4.9
v 7.4 5.4 -4.9
v 7.4 5.6 -4.9
v 7.4 5.7 -4.9
v 6.7 5.4 -5
v 6.7 5.6 -5
v 6.8 5.4 -5
v 6.8 5.6 -5
v 6.9 5.8 -5
v 6.9 5.9 -5
v 7 5.8 -5
v 7 5.9 -5
v 7.5 5 -5.2
v 7.5 5.1 -5.2
v 7.6 5 -5.2
v 7.6 5.1 -5.2
v 7.6 5 -4.8
v 7.6 5.2 -4.8
v 7.7 5 -4.8
v 7.7 5.2 -4.8
v 6.6 5 -5.1
v 6.6 5.3 -5.1
v 6.7 5 -5.1
v 6.7 5.3 -5.1
v 7 5.9 -5.1
v 7 6 -5.1
v 7.1 5.8 -5.1
v 7.1 5.9 -5.1
v 7.1 6 -5.1
v 7.2 5.8 -5.1
v 7.2 6 -5.1
v 7.5 5 -5.1
v 7.5 5.3 -5.1
v 7.6 5 -5.1
v 7.6 5.3 -5.1
v 6.7 5.4 -5.2
v 6.7 5.6 -5.2
v 6.8 5.4 -5.2
v 6.8 5.6 -5.2
v 6.9 5.8 -5.2
v 6.9 5.9 -5.2
v 7 5.8 -5.2
v 7.1 5.8 -5.2
v 7.1 5.9 -5.2
v 7.3 5.4 -5.2
v 7.3 5.7 -5.2
v 7.4 5.4 -5.2
v 7.4 5.7 -5.2
v 6.8 5.4 -5.3
v 6.8 5.8 -5.3
v 6.9 5.4 -5.3
v 6.9 5.7 -5.3
v 7 5.7 -5.3
v 7 5.8 -5.3
v 7.1 5.4 -5.3
v 7.1 5.5 -5.3
v 7.1 5.7 -5.3
v 7.2 5.5 -5.3
v 7.2 5.8 -5.3
v 7.3 5.4 -5.3
v 7.3 5.8 -5.3
v 6.7 5 -5.4
v 6.7 5.4 -5.4
v 6.8 5 -5.4
v 6.8 5.1 -5.4
v 6.8 5.2 -5.4
v 6.8 5.3 -5.4
v 6.9 5.2 -5.4
v 6.9 5.3 -5.4
v 6.9 5.4 -5.4
v 7.4 5.1 -5.4
v 7.4 5.3 -5.4
v 7.4 5.4 -5.4
v 7.5 5.1 -5.4
v 7.5 5.3 -5.4
v 7.5 5.4 -5.4
v 6.9 5.2 -5.5
v 6.9 5.3 -5.5
v 6.9 5.7 -5.5
v 7 5.2 -5.5
v 7 5.3 -5.5
v 7.1 5.4 -5.5
v 7.1 5.7 -5.5
v 7.2 5 -5.5
v 7.2 5.2 -5.5
v 7.3 5 -5.5
v 7.3 5.1 -5.5
v 7.4 5.1 -5.5
v 7.4 5.4 -5.5
v 6.8 5 -5.6
v 6.8 5.2 -5.6
v 7.2 5 -5.6
v 7.2 5.2 -5.6
v 7.3 5 -5.6
v 7.3 5.1 -5.6
v 7.6 5 -5.6
v 7.6 5.1 -5.6
v 7.3 5 -4.4
v 7.7 5 -4.4
v 6.9 5 -4.5
v 7.3 5 -4.5
v 6.7 5 -4.6
v 6.9 5 -4.6
v 7.5 5 -4.6
v 7.7 5 -4.6
v 6.6 5 -4.7
v 6.7 5 -4.7
v 7.6 5 -4.8
v 7.7 5 -4.8
v 7.5 5 -4.9
v 7.6 5 -4.9
v 6.6 5 -5
v 6.8 5 -5
v 6.6 5 -5.1
v 6.7 5 -5.1
v 7.5 5 -5.1
v 7.6 5 -5.1
v 7.4 5 -5.2
v 7.5 5 -5.2
v 7.6 5 -5.2
v 6.7 5 -5.3
v 6.8 5 -5.3
v 6.7 5 -5.4
v 6.8 5 -5.4
v 7.2 5 -5.5
v 7.3 5 -5.5
v 7.4 5 -5.5
v 7.6 5 -5.5
v 6.8 5 -5.6
v 7.2 5 -5.6
v 7.3 5 -5.6
v 7.6 5 -5.6
v 7.5 5.1 -5.2
v 7.6 5.1 -5.2
v 7.4 5.1 -5.4
v 7.5 5.1 -5.4
v 7.3 5.1 -5.5
v 7.4 5.1 -5.5
v 7.6 5.1 -5.5
v 7.3 5.1 -5.6
v 7.6 5.1 -5.6
v 7.3 5.2 -4.4
v 7.4 5.2 -4.4
v 7.7 5.2 -4.4
v 7.3 5.2 -4.5
v 7.4 5.2 -4.5
v 7.6 5.2 -4.5
v 7.6 5.2 -4.6
v 7.7 5.2 -4.6
v 7.6 5.2 -4.8
v 7.7 5.2 -4.8
v 6.8 5.2 -5.4
v 6.9 5.2 -5.4
v 6.8 5.2 -5.5
v 6.9 5.2 -5.5
v 7 5.2 -5.5
v 7.2 5.2 -5.5
v 6.8 5.2 -5.6
v 7.2 5.2 -5.6
v 7.2 5.3 -4.5
v 7.4 5.3 -4.5
v 7.6 5.3 -4.5
v 7.2 5.3 -4.6
v 7.4 5.3 -4.6
v 7.5 5.3 -4.6
v 6.6 5.3 -4.7
v 6.7 5.3 -4.7
v 7.5 5.3 -4.8
v 6.6 5.3 -4.9
v 6.7 5.3 -4.9
v 6.6 5.3 -5
v 6.7 5.3 -5
v 6.6 5.3 -5.1
v 6.7 5.3 -5.1
v 7.5 5.3 -5.1
v 7.6 5.3 -5.1
v 6.7 5.4 -4.6
v 6.8 5.4 -4.6
v 6.9 5.4 -4.6
v 7.2 5.4 -4.6
v 7.5 5.4 -4.6
v 6.8 5.4 -4.8
v 6.9 5.4 -4.8
v 7.2 5.4 -4.8
v 7.3 5.4 -4.8
v 7.5 5.4 -4.8
v 6.7 5.4 -4.9
v 6.8 5.4 -4.9
v 7.3 5.4 -4.9
v 7.4 5.4 -4.9
v 6.7 5.4 -5
v 6.8 5.4 -5
v 7.4 5.4 -5.1
v 7.5 5.4 -5.1
v 6.7 5.4 -5.2
v 6.8 5.4 -5.2
v 7.3 5.4 -5.2
v 7.4 5.4 -5.2
v 6.8 5.4 -5.3
v 6.9 5.4 -5.3
v 7.1 5.4 -5.3
v 7.3 5.4 -5.3
v 6.7 5.4 -5.4
v 6.9 5.4 -5.4
v 7.4 5.4 -5.4
v 7.5 5.4 -5.4
v 7.1 5.4 -5.5
v 7.4 5.4 -5.5
v 6.9 5.6 -4.5
v 7.2 5.6 -4.5
v 6.9 5.6 -4.8
v 7.2 5.6 -4.8
v 6.7 5.6 -5
v 6.8 5.6 -5
v 6.7 5.6 -5.2
v 6.8 5.6 -5.2
v 7.3 5.7 -4.9
v 7.4 5.7 -4.9
v 7.3 5.7 -5.2
v 7.4 5.7 -5.2
v 6.9 5.7 -5.3
v 7 5.7 -5.3
v 7.1 5.7 -5.3
v 7 5.7 -5.4
v 7.1 5.7 -5.4
v 6.9 5.7 -5.5
v 7.1 5.7 -5.5
v 6.8 5.8 -4.8
v 7.3 5.8 -4.8
v 7 5.8 -4.9
v 7.1 5.8 -4.9
v 7.2 5.8 -4.9
v 6.9 5.8 -5
v 7 5.8 -5
v 6.9 5.8 -5.1
v 7.1 5.8 -5.1
v 7.2 5.8 -5.1
v 6.9 5.8 -5.2
v 7 5.8 -5.2
v 7.1 5.8 -5.2
v 7.2 5.8 -5.2
v 6.8 5.8 -5.3
v 7 5.8 -5.3
v 7.2 5.8 -5.3
v 7.3 5.8 -5.3
v 6.9 5.9 -5
v 7 5.9 -5
v 6.9 5.9 -5.1
v 7 5.9 -5.1
v 7.1 5.9 -5.1
v 6.9 5.9 -5.2
v 7.1 5.9 -5.2
v 7 6 -4.9
v 7.1 6 -4.9
v 7.2 6 -4.9
v 7 6 -5.1
v 7.1 6 -5.1
v 7.2 6 -5.1

# faces
f 4/1/1 2/1/1 1/1/1
f 5/1/1 2/1/1 4/1/1
f 6/2/1 5/2/1 4/2/1
f 7/1/1 2/1/1 5/1/1
f 7/2/1 5/2/1 6/2/1
f 8/2/1 3/2/1 2/2/1
f 8/1/1 2/1/1 7/1/1
f 9/2/1 3/2/1 8/2/1
f 15/1/1 11/1/1 10/1/1
f 16/1/1 11/1/1 15/1/1
f 17/2/1 16/2/1 15/2/1
f 20/2/1 13/2/1 12/2/1
f 21/1/1 14/1/1 13/1/1
f 21/2/1 13/2/1 20/2/1
f 22/2/1 17/2/1 15/2/1
f 22/2/1 18/2/1 17/2/1
f 23/1/1 20/1/1 19/1/1
f 23/2/1 18/2/1 22/2/1
f 23/1/1 19/1/1 18/1/1
f 23/1/1 21/1/1 20/1/1
f 24/1/1 21/1/1 23/1/1
f 25/1/1 21/1/1 24/1/1
f 26/1/1 14/1/1 21/1/1
f 26/1/1 21/1/1 25/1/1
f 27/1/1 25/1/1 24/1/1
f 28/1/1 25/1/1 27/1/1
f 31/1/1 30/1/1 29/1/1
f 32/1/1 30/1/1 31/1/1
f 33/2/1 32/2/1 31/2/1
f 34/1/1 30/1/1 32/1/1
f 34/2/1 32/2/1 33/2/1
f 35/1/1 30/1/1 34/1/1
f 41/1/1 37/1/1 36/1/1
f 41/1/1 38/1/1 37/1/1
f 42/1/1 40/1/1 39/1/1
f 43/1/1 41/1/1 36/1/1
f 43/1/1 42/1/1 41/1/1
f 44/1/1 40/1/1 42/1/1
f 44/1/1 42/1/1 43/1/1
f 49/1/1 46/1/1 45/1/1
f 50/1/1 46/1/1 49/1/1
f 51/2/1 48/2/1 47/2/1
f 52/2/1 48/2/1 51/2/1
f 53/2/1 50/2/1 49/2/1
f 56/1/1 52/1/1 51/1/1
f 57/2/1 54/2/1 53/2/1
f 57/2/1 53/2/1 49/2/1
f 58/2/1 54/2/1 57/2/1
f 59/1/1 58/1/1 57/1/1
f 60/1/1 58/1/1 59/1/1
f 61/1/1 56/1/1 55/1/1
f 62/1/1 52/1/1 56/1/1
f 62/1/1 56/1/1 61/1/1
f 66/2/1 64/2/1 63/2/1
f 67/1/1 65/1/1 64/1/1
f 67/2/1 64/2/1 66/2/1
f 68/1/1 65/1/1 67/1/1
f 71/2/1 70/2/1 69/2/1
f 73/2/1 71/2/1 69/2/1
f 73/2/1 72/2/1 71/2/1
f 74/2/1 72/2/1 73/2/1
f 79/1/1 76/1/1 75/1/1
f 80/1/1 76/1/1 79/1/1
f 81/1/1 78/1/1 77/1/1
f 82/1/1 78/1/1 81/1/1
f 83/2/1 80/2/1 79/2/1
f 84/2/1 80/2/1 83/2/1
f 85/1/2 86/1/2 87/1/2
f 87/1/2 86/1/2 88/1/2
f 87/2/2 88/2/2 89/2/2
f 88/1/2 86/1/2 90/1/2
f 89/2/2 88/2/2 90/2/2
f 90/1/2 86/1/2 91/1/2
f 92/1/2 93/1/2 94/1/2
f 94/1/2 93/1/2 95/1/2
f 96/1/2 97/1/2 98/1/2
f 98/1/2 97/1/2 99/1/2
f 100/2/2 101/2/2 102/2/2
f 102/2/2 101/2/2 103/2/2
f 102/1/2 103/1/2 105/1/2
f 103/1/2 104/1/2 105/1/2
f 105/1/2 104/1/2 106/1/2
f 107/1/2 108/1/2 109/1/2
f 109/1/2 108/1/2 110/1/2
f 111/2/2 112/2/2 115/2/2
f 115/2/2 112/2/2 116/2/2
f 115/1/2 116/1/2 117/1/2
f 113/1/2 114/1/2 118/1/2
f 115/1/2 117/1/2 119/1/2
f 117/1/2 118/1/2 119/1/2
f 118/1/2 114/1/2 120/1/2
f 119/1/2 118/1/2 120/1/2
f 121/1/2 122/1/2 123/1/2
f 123/1/2 122/1/2 127/1/2
f 127/1/2 122/1/2 128/1/2
f 124/2/2 125/2/2 129/2/2
f 125/1/2 126/1/2 130/1/2
f 129/2/2 125/2/2 130/2/2
f 129/1/2 130/1/2 131/1/2
f 130/1/2 126/1/2 132/1/2
f 131/1/2 130/1/2 132/1/2
f 133/1/2 134/1/2 135/1/2
f 133/1/2 135/1/2 139/1/2
f 135/2/2 136/2/2 140/2/2
f 139/1/2 135/1/2 140/1/2
f 140/2/2 136/2/2 141/2/2
f 137/1/2 138/1/2 142/1/2
f 138/2/2 139/2/2 143/2/2
f 142/1/2 138/1/2 143/1/2
f 139/1/2 140/1/2 144/1/2
f 143/2/2 139/2/2 144/2/2
f 140/1/2 141/1/2 144/1/2
f 144/1/2 141/1/2 145/1/2
f 149/2/2 150/2/2 152/2/2
f 150/1/2 151/1/2 153/1/2
f 152/2/2 150/2/2 153/2/2
f 153/1/2 151/1/2 154/1/2
f 146/2/2 147/2/2 157/2/2
f 147/1/2 148/1/2 158/1/2
f 157/2/2 147/2/2 158/2/2
f 155/1/2 156/1/2 159/1/2
f 156/1/2 157/1/2 159/1/2
f 157/1/2 158/1/2 159/1/2
f 158/1/2 148/1/2 160/1/2
f 159/1/2 158/1/2 160/1/2
f 161/1/2 162/1/2 164/1/2
f 162/2/2 163/2/2 165/2/2
f 164/1/2 162/1/2 165/1/2
f 165/2/2 163/2/2 166/2/2
f 170/1/3 168/1/3 167/1/3
f 170/2/3 169/2/3 168/2/3
f 171/2/3 169/2/3 170/2/3
f 172/1/3 170/1/3 167/1/3
f 172/1/3 171/1/3 170/1/3
f 173/1/3 171/1/3 172/1/3
f 178/1/3 175/1/3 174/1/3
f 178/2/3 176/2/3 175/2/3
f 179/1/3 177/1/3 176/1/3
f 179/2/3 176/2/3 178/2/3
f 180/1/3 178/1/3 174/1/3
f 180/1/3 179/1/3 178/1/3
f 181/1/3 179/1/3 180/1/3
f 182/2/3 181/2/3 180/2/3
f 183/1/3 179/1/3 181/1/3
f 183/2/3 181/2/3 182/2/3
f 184/1/3 177/1/3 179/1/3
f 184/1/3 179/1/3 183/1/3
f 185/1/3 180/1/3 174/1/3
f 186/2/3 182/2/3 180/2/3
f 186/1/3 180/1/3 185/1/3
f 187/2/3 182/2/3 186/2/3
f 188/2/3 182/2/3 187/2/3
f 189/2/3 182/2/3 188/2/3
f 190/1/3 189/1/3 188/1/3
f 191/1/3 189/1/3 190/1/3
f 195/1/3 193/1/3 192/1/3
f 195/2/3 194/2/3 193/2/3
f 196/2/3 194/2/3 195/2/3
f 197/1/3 195/1/3 192/1/3
f 197/1/3 196/1/3 195/1/3
f 198/1/3 196/1/3 197/1/3
f 199/1/3 196/1/3 198/1/3
f 202/1/3 201/1/3 200/1/3
f 203/1/3 201/1/3 202/1/3
f 204/1/3 201/1/3 203/1/3
f 208/1/3 206/1/3 205/1/3
f 209/2/3 207/2/3 206/2/3
f 209/1/3 206/1/3 208/1/3
f 210/2/3 207/2/3 209/2/3
f 213/1/3 212/1/3 211/1/3
f 214/1/3 212/1/3 213/1/3
f 215/1/3 212/1/3 214/1/3
f 217/1/3 212/1/3 215/1/3
f 218/2/3 217/2/3 216/2/3
f 219/1/3 212/1/3 217/1/3
f 219/2/3 217/2/3 218/2/3
f 220/1/3 212/1/3 219/1/3
f 223/2/3 222/2/3 221/2/3
f 224/2/3 222/2/3 223/2/3
f 225/1/3 224/1/3 223/1/3
f 226/1/3 224/1/3 225/1/3
f 230/2/3 228/2/3 227/2/3
f 231/1/3 229/1/3 228/1/3
f 231/2/3 228/2/3 230/2/3
f 232/1/3 229/1/3 231/1/3
f 235/1/3 234/1/3 233/1/3
f 236/1/3 234/1/3 235/1/3
f 239/2/3 238/2/3 237/2/3
f 240/2/3 238/2/3 239/2/3
f 243/2/3 242/2/3 241/2/3
f 244/2/3 242/2/3 243/2/3
f 245/2/4 246/2/4 247/2/4
f 247/2/4 246/2/4 248/2/4
f 249/2/4 250/2/4 251/2/4
f 251/2/4 250/2/4 252/2/4
f 253/2/4 254/2/4 256/2/4
f 256/2/4 254/2/4 257/2/4
f 255/1/4 256/1/4 258/1/4
f 256/1/4 257/1/4 258/1/4
f 258/1/4 257/1/4 259/1/4
f 260/1/4 261/1/4 262/1/4
f 262/1/4 261/1/4 263/1/4
f 264/1/4 265/1/4 266/1/4
f 266/1/4 265/1/4 267/1/4
f 268/1/4 269/1/4 270/1/4
f 270/1/4 269/1/4 271/1/4
f 271/1/4 269/1/4 272/1/4
f 273/1/4 274/1/4 275/1/4
f 275/1/4 274/1/4 276/1/4
f 277/1/4 278/1/4 279/1/4
f 279/1/4 278/1/4 280/1/4
f 280/1/4 278/1/4 281/1/4
f 281/1/4 278/1/4 282/1/4
f 281/2/4 282/2/4 285/2/4
f 283/1/4 284/1/4 286/1/4
f 284/2/4 285/2/4 286/2/4
f 285/2/4 282/2/4 287/2/4
f 286/2/4 285/2/4 287/2/4
f 283/1/4 286/1/4 288/1/4
f 286/1/4 287/1/4 288/1/4
f 288/1/4 287/1/4 289/1/4
f 290/1/4 291/1/4 292/1/4
f 292/1/4 291/1/4 293/1/4
f 293/1/4 291/1/4 294/1/4
f 294/1/4 291/1/4 295/1/4
f 294/2/4 295/2/4 296/2/4
f 295/1/4 291/1/4 297/1/4
f 296/2/4 295/2/4 297/2/4
f 297/1/4 291/1/4 298/1/4
f 299/2/4 300/2/4 302/2/4
f 300/1/4 301/1/4 303/1/4
f 302/2/4 300/2/4 303/2/4
f 303/1/4 301/1/4 304/1/4
f 305/2/4 306/2/4 308/2/4
f 306/1/4 307/1/4 309/1/4
f 308/2/4 306/2/4 309/2/4
f 308/1/4 309/1/4 310/1/4
f 309/1/4 307/1/4 310/1/4
f 310/1/4 307/1/4 311/1/4
f 308/1/4 310/1/4 313/1/4
f 312/1/4 313/1/4 314/1/4
f 314/1/4 313/1/4 315/1/4
f 315/1/4 313/1/4 316/1/4
f 313/1/4 310/1/4 317/1/4
f 316/1/4 313/1/4 317/1/4
f 318/1/4 319/1/4 320/1/4
f 320/1/4 319/1/4 321/1/4
f 322/1/4 323/1/4 324/1/4
f 324/1/4 323/1/4 325/1/4
f 329/1/5 327/1/5 326/1/5
f 331/1/5 329/1/5 328/1/5
f 332/1/5 327/1/5 329/1/5
f 332/1/5 329/1/5 331/1/5
f 333/1/5 327/1/5 332/1/5
f 335/1/5 331/1/5 330/1/5
f 335/1/5 332/1/5 331/1/5
f 336/2/5 333/2/5 332/2/5
f 337/2/5 333/2/5 336/2/5
f 338/1/5 335/1/5 334/1/5
f 338/1/5 332/1/5 335/1/5
f 338/2/5 336/2/5 332/2/5
f 339/2/5 336/2/5 338/2/5
f 340/1/5 338/1/5 334/1/5
f 340/1/5 339/1/5 338/1/5
f 341/1/5 339/1/5 340/1/5
f 342/2/5 341/2/5 340/2/5
f 343/2/5 341/2/5 342/2/5
f 344/1/5 339/1/5 341/1/5
f 345/1/5 339/1/5 344/1/5
f 346/1/5 344/1/5 341/1/5
f 347/1/5 344/1/5 346/1/5
f 349/2/5 341/2/5 343/2/5
f 350/1/5 346/1/5 341/1/5
f 350/2/5 341/2/5 349/2/5
f 351/1/5 350/1/5 349/1/5
f 352/1/5 346/1/5 350/1/5
f 352/1/5 350/1/5 351/1/5
f 353/1/5 346/1/5 352/1/5
f 354/1/5 346/1/5 353/1/5
f 355/2/5 348/2/5 347/2/5
f 355/1/5 346/1/5 354/1/5
f 355/2/5 347/2/5 346/2/5
f 356/2/5 348/2/5 355/2/5
f 357/1/5 353/1/5 352/1/5
f 358/1/5 353/1/5 357/1/5
f 359/1/5 356/1/5 355/1/5
f 359/1/5 355/1/5 354/1/5
f 360/1/5 356/1/5 359/1/5
f 361/2/6 362/2/6 364/2/6
f 363/2/6 364/2/6 366/2/6
f 364/2/6 362/2/6 367/2/6
f 366/2/6 364/2/6 367/2/6
f 365/1/6 366/1/6 368/1/6
f 366/1/6 367/1/6 368/1/6
f 368/1/6 367/1/6 369/1/6
f 370/2/6 371/2/6 373/2/6
f 371/1/6 372/1/6 374/1/6
f 373/2/6 371/2/6 374/2/6
f 374/1/6 372/1/6 375/1/6
f 375/1/6 372/1/6 376/1/6
f 376/1/6 372/1/6 377/1/6
f 376/2/6 377/2/6 378/2/6
f 378/2/6 377/2/6 379/2/6
f 380/2/6 381/2/6 382/2/6
f 382/2/6 381/2/6 383/2/6
f 382/1/6 383/1/6 386/1/6
f 384/1/6 385/1/6 386/1/6
f 383/1/6 384/1/6 386/1/6
f 386/1/6 385/1/6 387/1/6
f 388/2/6 389/2/6 391/2/6
f 389/1/6 390/1/6 392/1/6
f 391/2/6 389/2/6 392/2/6
f 392/1/6 390/1/6 393/1/6
f 393/1/6 390/1/6 396/1/6
f 394/2/6 395/2/6 397/2/6
f 397/2/6 395/2/6 398/2/6
f 397/1/6 398/1/6 399/1/6
f 399/1/6 398/1/6 400/1/6
f 399/2/6 400/2/6 401/2/6
f 401/2/6 400/2/6 402/2/6
f 396/1/6 390/1/6 403/1/6
f 403/1/6 390/1/6 404/1/6
f 405/2/6 406/2/6 410/2/6
f 406/1/6 407/1/6 410/1/6
f 410/1/6 407/1/6 411/1/6
f 408/1/6 409/1/6 412/1/6
f 412/1/6 409/1/6 413/1/6
f 413/1/6 409/1/6 414/1/6
f 405/2/6 410/2/6 415/2/6
f 415/2/6 410/2/6 416/2/6
f 413/2/6 414/2/6 417/2/6
f 417/2/6 414/2/6 418/2/6
f 415/1/6 416/1/6 419/1/6
f 419/1/6 416/1/6 420/1/6
f 418/2/6 414/2/6 421/2/6
f 421/2/6 414/2/6 422/2/6
f 421/1/6 422/1/6 426/1/6
f 423/1/6 424/1/6 427/1/6
f 425/1/6 426/1/6 430/1/6
f 427/1/6 428/1/6 431/1/6
f 423/1/6 427/1/6 431/1/6
f 431/1/6 428/1/6 432/1/6
f 429/1/6 430/1/6 433/1/6
f 426/1/6 422/1/6 433/1/6
f 430/1/6 426/1/6 433/1/6
f 433/1/6 422/1/6 434/1/6
f 429/1/6 433/1/6 435/1/6
f 435/1/6 433/1/6 436/1/6
f 437/1/6 438/1/6 439/1/6
f 439/1/6 438/1/6 440/1/6
f 441/1/6 442/1/6 443/1/6
f 443/1/6 442/1/6 444/1/6
f 445/1/6 446/1/6 447/1/6
f 447/1/6 446/1/6 448/1/6
f 449/1/6 450/1/6 452/1/6
f 450/2/6 451/2/6 452/2/6
f 452/2/6 451/2/6 453/2/6
f 449/1/6 452/1/6 454/1/6
f 452/1/6 453/1/6 454/1/6
f 454/1/6 453/1/6 455/1/6
f 456/1/6 457/1/6 458/1/6
f 458/1/6 457/1/6 459/1/6
f 459/1/6 457/1/6 460/1/6
f 456/1/6 458/1/6 461/1/6
f 461/1/6 458/1/6 462/1/6
f 456/1/6 461/1/6 463/1/6
f 460/1/6 457/1/6 465/1/6
f 456/1/6 463/1/6 466/1/6
f 464/1/6 465/1/6 468/1/6
f 465/1/6 457/1/6 469/1/6
f 468/1/6 465/1/6 469/1/6
f 466/1/6 467/1/6 470/1/6
f 456/1/6 466/1/6 470/1/6
f 467/2/6 468/2/6 471/2/6
f 470/1/6 467/1/6 471/1/6
f 468/2/6 469/2/6 471/2/6
f 469/1/6 457/1/6 472/1/6
f 471/2/6 469/2/6 472/2/6
f 472/1/6 457/1/6 473/1/6
f 474/2/6 475/2/6 476/2/6
f 476/2/6 475/2/6 477/2/6
f 476/1/6 477/1/6 479/1/6
f 477/1/6 478/1/6 479/1/6
f 479/1/6 478/1/6 480/1/6
f 481/2/6 482/2/6 484/2/6
f 482/1/6 483/1/6 485/1/6
f 484/2/6 482/2/6 485/2/6
f 485/1/6 483/1/6 486/1/6
