# MagicaVoxel @ Ephtracy

# group
o Sign

# material
mtllib Mine-0-Sign.mtl
usemtl palette

# normals
vn -1 0 0
vn 1 0 0
vn 0 0 1
vn 0 0 -1
vn 0 -1 0
vn 0 1 0

# texcoords
vt 0.0644531 0.5
vt 0.115234 0.5
vt 0.439453 0.5

# verts
v -5 2 0.1
v -5 2 -0.1
v -5 8 0.1
v -5 8 -0.1
v -0.2 7.3 -0.1
v -0.2 7.3 -0.2
v -0.2 7.7 -0.1
v -0.2 7.7 -0.2
v 0.2 7.3 -0.1
v 0.2 7.3 -0.2
v 0.2 7.7 -0.1
v 0.2 7.7 -0.2
v 5 2 0.1
v 5 2 -0.1
v 5 8 0.1
v 5 8 -0.1
v -5 2 0.1
v -5 8 0.1
v -1.1 6 0.1
v -1.1 6.2 0.1
v -0.9 6 0.1
v -0.9 6.2 0.1
v 5 2 0.1
v 5 8 0.1
v -5 2 -0.1
v -5 8 -0.1
v -3.8 6.7 -0.1
v -3.8 6.9 -0.1
v -3.5 5.3 -0.1
v -3.5 6.7 -0.1
v -3.3 5.3 -0.1
v -3.3 6.7 -0.1
v -3.2 2.9 -0.1
v -3.2 3.6 -0.1
v -3.2 4.2 -0.1
v -3.2 4.4 -0.1
v -3.1 2.8 -0.1
v -3.1 2.9 -0.1
v -3.1 3.6 -0.1
v -3.1 3.7 -0.1
v -3 3 -0.1
v -3 3.5 -0.1
v -3 6.7 -0.1
v -3 6.9 -0.1
v -2.6 3.7 -0.1
v -2.6 4.2 -0.1
v -2.6 5.4 -0.1
v -2.6 6.8 -0.1
v -2.5 3.5 -0.1
v -2.5 3.6 -0.1
v -2.5 4.3 -0.1
v -2.5 4.4 -0.1
v -2.5 5.3 -0.1
v -2.5 5.4 -0.1
v -2.5 6.8 -0.1
v -2.5 6.9 -0.1
v -2.4 2.8 -0.1
v -2.4 3 -0.1
v -2.4 3.6 -0.1
v -2.4 4.3 -0.1
v -2.4 5.5 -0.1
v -2.4 6.7 -0.1
v -2 2.9 -0.1
v -2 3.6 -0.1
v -2 4.2 -0.1
v -2 4.4 -0.1
v -2 5.5 -0.1
v -2 6.7 -0.1
v -1.9 2.8 -0.1
v -1.9 2.9 -0.1
v -1.9 3.6 -0.1
v -1.9 3.7 -0.1
v -1.9 5.3 -0.1
v -1.9 5.4 -0.1
v -1.9 6.8 -0.1
v -1.9 6.9 -0.1
v -1.8 3 -0.1
v -1.8 3.5 -0.1
v -1.8 5.4 -0.1
v -1.8 6.8 -0.1
v -1.4 3.7 -0.1
v -1.4 4.2 -0.1
v -1.4 5.3 -0.1
v -1.4 6.9 -0.1
v -1.3 3.5 -0.1
v -1.3 3.6 -0.1
v -1.3 4.3 -0.1
v -1.3 4.4 -0.1
v -1.2 2.8 -0.1
v -1.2 3 -0.1
v -1.2 3.6 -0.1
v -1.2 4.3 -0.1
v -1.2 5.5 -0.1
v -1.2 6.9 -0.1
v -1.1 5.5 -0.1
v -1.1 5.7 -0.1
v -1 5.3 -0.1
v -1 5.5 -0.1
v -1 5.7 -0.1
v -1 5.9 -0.1
v -0.9 5.5 -0.1
v -0.9 5.7 -0.1
v -0.9 5.9 -0.1
v -0.9 6.3 -0.1
v -0.8 2.9 -0.1
v -0.8 4.3 -0.1
v -0.8 5.7 -0.1
v -0.8 5.9 -0.1
v -0.8 6.3 -0.1
v -0.8 6.5 -0.1
v -0.7 2.8 -0.1
v -0.7 2.9 -0.1
v -0.7 4.3 -0.1
v -0.7 4.4 -0.1
v -0.7 5.9 -0.1
v -0.7 6.3 -0.1
v -0.7 6.5 -0.1
v -0.7 6.7 -0.1
v -0.6 3 -0.1
v -0.6 4.2 -0.1
v -0.6 6.3 -0.1
v -0.6 6.5 -0.1
v -0.6 6.7 -0.1
v -0.6 6.9 -0.1
v -0.5 6.5 -0.1
v -0.5 6.7 -0.1
v -0.4 5.3 -0.1
v -0.4 6.7 -0.1
v -0.2 3 -0.1
v -0.2 4.2 -0.1
v -0.2 5.3 -0.1
v -0.2 6.9 -0.1
v -0.2 7.3 -0.1
v -0.2 7.7 -0.1
v -0.0999999 2.8 -0.1
v -0.0999999 2.9 -0.1
v -0.0999999 4.3 -0.1
v -0.0999999 4.4 -0.1
v 0 2.9 -0.1
v 0 4.3 -0.1
v 0.2 7.3 -0.1
v 0.2 7.7 -0.1
v 0.4 2.8 -0.1
v 0.4 3.1 -0.1
v 0.4 3.7 -0.1
v 0.4 4.3 -0.1
v 0.5 3.1 -0.1
v 0.5 3.3 -0.1
v 0.5 3.6 -0.1
v 0.5 3.7 -0.1
v 0.5 4.3 -0.1
v 0.5 4.4 -0.1
v 0.6 2.8 -0.1
v 0.6 3 -0.1
v 0.6 3.3 -0.1
v 0.6 3.5 -0.1
v 0.6 3.8 -0.1
v 0.6 4.2 -0.1
v 0.7 3 -0.1
v 0.7 3.2 -0.1
v 0.7 3.5 -0.1
v 0.7 3.6 -0.1
v 0.8 3.2 -0.1
v 0.8 3.4 -0.1
v 0.9 2.8 -0.1
v 0.9 3.4 -0.1
v 0.9 3.8 -0.1
v 0.9 4.2 -0.1
v 0.9 5.4 -0.1
v 0.9 6.8 -0.1
v 1 4.3 -0.1
v 1 4.4 -0.1
v 1 5.3 -0.1
v 1 5.4 -0.1
v 1 6.8 -0.1
v 1 6.9 -0.1
v 1.1 2.8 -0.1
v 1.1 4.3 -0.1
v 1.1 5.5 -0.1
v 1.1 6.7 -0.1
v 1.5 2.8 -0.1
v 1.5 3 -0.1
v 1.5 4.2 -0.1
v 1.5 4.4 -0.1
v 1.5 5.5 -0.1
v 1.5 6.7 -0.1
v 1.6 5.3 -0.1
v 1.6 5.4 -0.1
v 1.6 6.8 -0.1
v 1.6 6.9 -0.1
v 1.7 5.4 -0.1
v 1.7 6.8 -0.1
v 2.1 3 -0.1
v 2.1 4.2 -0.1
v 2.1 5.7 -0.1
v 2.1 6.5 -0.1
v 2.2 2.8 -0.1
v 2.2 2.9 -0.1
v 2.2 4.3 -0.1
v 2.2 4.4 -0.1
v 2.2 5.6 -0.1
v 2.2 5.7 -0.1
v 2.2 6.5 -0.1
v 2.2 6.6 -0.1
v 2.3 2.9 -0.1
v 2.3 4.3 -0.1
v 2.3 5.5 -0.1
v 2.3 5.6 -0.1
v 2.3 5.8 -0.1
v 2.3 6.4 -0.1
v 2.3 6.6 -0.1
v 2.3 6.7 -0.1
v 2.4 5.4 -0.1
v 2.4 5.5 -0.1
v 2.4 5.7 -0.1
v 2.4 5.8 -0.1
v 2.4 6.4 -0.1
v 2.4 6.5 -0.1
v 2.4 6.7 -0.1
v 2.4 6.8 -0.1
v 2.5 5.3 -0.1
v 2.5 5.4 -0.1
v 2.5 5.6 -0.1
v 2.5 5.7 -0.1
v 2.5 6.5 -0.1
v 2.5 6.6 -0.1
v 2.5 6.8 -0.1
v 2.5 6.9 -0.1
v 2.6 5.5 -0.1
v 2.6 5.6 -0.1
v 2.6 6.6 -0.1
v 2.6 6.7 -0.1
v 2.7 5.5 -0.1
v 2.7 6.7 -0.1
v 2.9 5.3 -0.1
v 2.9 6.9 -0.1
v 5 2 -0.1
v 5 8 -0.1
v -0.2 7.3 -0.2
v -0.2 7.7 -0.2
v 0.2 7.3 -0.2
v 0.2 7.7 -0.2
v -5 2 0.1
v 5 2 0.1
v -5 2 -0.1
v 5 2 -0.1
v -0.2 7.3 -0.1
v 0.2 7.3 -0.1
v -0.2 7.3 -0.2
v 0.2 7.3 -0.2
v -0.2 7.7 -0.1
v 0.2 7.7 -0.1
v -0.2 7.7 -0.2
v 0.2 7.7 -0.2
v -5 8 0.1
v 5 8 0.1
v -5 8 -0.1
v 5 8 -0.1

# faces
f 3/1/1 2/1/1 1/1/1
f 4/1/1 2/1/1 3/1/1
f 7/2/1 6/2/1 5/2/1
f 8/2/1 6/2/1 7/2/1
f 9/2/2 10/2/2 11/2/2
f 11/2/2 10/2/2 12/2/2
f 13/1/2 14/1/2 15/1/2
f 15/1/2 14/1/2 16/1/2
f 19/1/3 18/1/3 17/1/3
f 20/1/3 18/1/3 19/1/3
f 21/1/3 19/1/3 17/1/3
f 21/3/3 20/3/3 19/3/3
f 22/1/3 18/1/3 20/1/3
f 22/3/3 20/3/3 21/3/3
f 23/1/3 21/1/3 17/1/3
f 23/1/3 22/1/3 21/1/3
f 24/1/3 18/1/3 22/1/3
f 24/1/3 22/1/3 23/1/3
f 25/1/4 26/1/4 27/1/4
f 27/1/4 26/1/4 28/1/4
f 25/1/4 27/1/4 29/1/4
f 27/3/4 28/3/4 30/3/4
f 29/1/4 27/1/4 30/1/4
f 25/1/4 29/1/4 31/1/4
f 29/3/4 30/3/4 31/3/4
f 30/3/4 28/3/4 32/3/4
f 31/3/4 30/3/4 32/3/4
f 25/1/4 31/1/4 33/1/4
f 31/1/4 32/1/4 33/1/4
f 33/1/4 32/1/4 34/1/4
f 34/1/4 32/1/4 35/1/4
f 35/1/4 32/1/4 36/1/4
f 25/1/4 33/1/4 37/1/4
f 33/3/4 34/3/4 38/3/4
f 37/1/4 33/1/4 38/1/4
f 34/1/4 35/1/4 39/1/4
f 38/3/4 34/3/4 39/3/4
f 39/1/4 35/1/4 40/1/4
f 37/3/4 38/3/4 41/3/4
f 38/3/4 39/3/4 41/3/4
f 39/3/4 40/3/4 41/3/4
f 41/3/4 40/3/4 42/3/4
f 32/3/4 28/3/4 43/3/4
f 36/1/4 32/1/4 43/1/4
f 28/1/4 26/1/4 44/1/4
f 43/3/4 28/3/4 44/3/4
f 42/3/4 40/3/4 45/3/4
f 40/1/4 35/1/4 45/1/4
f 35/3/4 36/3/4 46/3/4
f 45/1/4 35/1/4 46/1/4
f 36/1/4 43/1/4 47/1/4
f 43/1/4 44/1/4 47/1/4
f 47/1/4 44/1/4 48/1/4
f 41/1/4 42/1/4 49/1/4
f 45/3/4 46/3/4 49/3/4
f 42/3/4 45/3/4 49/3/4
f 49/3/4 46/3/4 50/3/4
f 46/3/4 36/3/4 51/3/4
f 50/3/4 46/3/4 51/3/4
f 36/1/4 47/1/4 52/1/4
f 51/3/4 36/3/4 52/3/4
f 52/1/4 47/1/4 53/1/4
f 47/3/4 48/3/4 54/3/4
f 53/1/4 47/1/4 54/1/4
f 48/1/4 44/1/4 55/1/4
f 54/3/4 48/3/4 55/3/4
f 44/1/4 26/1/4 56/1/4
f 55/1/4 44/1/4 56/1/4
f 25/1/4 37/1/4 57/1/4
f 37/3/4 41/3/4 57/3/4
f 49/1/4 50/1/4 58/1/4
f 57/3/4 41/3/4 58/3/4
f 41/1/4 49/1/4 58/1/4
f 50/3/4 51/3/4 59/3/4
f 58/1/4 50/1/4 59/1/4
f 52/1/4 53/1/4 60/1/4
f 59/3/4 51/3/4 60/3/4
f 51/1/4 52/1/4 60/1/4
f 54/3/4 55/3/4 61/3/4
f 53/3/4 54/3/4 61/3/4
f 55/3/4 56/3/4 61/3/4
f 61/3/4 56/3/4 62/3/4
f 59/1/4 60/1/4 63/1/4
f 58/1/4 59/1/4 63/1/4
f 57/1/4 58/1/4 63/1/4
f 63/1/4 60/1/4 64/1/4
f 64/1/4 60/1/4 65/1/4
f 60/1/4 53/1/4 66/1/4
f 65/1/4 60/1/4 66/1/4
f 61/1/4 62/1/4 67/1/4
f 53/3/4 61/3/4 67/3/4
f 62/3/4 56/3/4 68/3/4
f 67/1/4 62/1/4 68/1/4
f 25/1/4 57/1/4 69/1/4
f 57/1/4 63/1/4 69/1/4
f 63/3/4 64/3/4 70/3/4
f 69/1/4 63/1/4 70/1/4
f 64/1/4 65/1/4 71/1/4
f 70/3/4 64/3/4 71/3/4
f 71/1/4 65/1/4 72/1/4
f 53/3/4 67/3/4 73/3/4
f 66/1/4 53/1/4 73/1/4
f 67/3/4 68/3/4 73/3/4
f 73/3/4 68/3/4 74/3/4
f 68/3/4 56/3/4 75/3/4
f 74/3/4 68/3/4 75/3/4
f 56/1/4 26/1/4 76/1/4
f 75/3/4 56/3/4 76/3/4
f 69/3/4 70/3/4 77/3/4
f 71/3/4 72/3/4 77/3/4
f 70/3/4 71/3/4 77/3/4
f 77/3/4 72/3/4 78/3/4
f 73/1/4 74/1/4 79/1/4
f 74/3/4 75/3/4 79/3/4
f 75/1/4 76/1/4 80/1/4
f 79/3/4 75/3/4 80/3/4
f 78/3/4 72/3/4 81/3/4
f 72/1/4 65/1/4 81/1/4
f 65/3/4 66/3/4 82/3/4
f 81/1/4 65/1/4 82/1/4
f 79/1/4 80/1/4 83/1/4
f 73/1/4 79/1/4 83/1/4
f 66/1/4 73/1/4 83/1/4
f 80/1/4 76/1/4 84/1/4
f 83/1/4 80/1/4 84/1/4
f 76/1/4 26/1/4 84/1/4
f 77/1/4 78/1/4 85/1/4
f 81/3/4 82/3/4 85/3/4
f 78/3/4 81/3/4 85/3/4
f 85/3/4 82/3/4 86/3/4
f 82/3/4 66/3/4 87/3/4
f 86/3/4 82/3/4 87/3/4
f 66/1/4 83/1/4 88/1/4
f 87/3/4 66/3/4 88/3/4
f 25/1/4 69/1/4 89/1/4
f 69/3/4 77/3/4 89/3/4
f 85/1/4 86/1/4 90/1/4
f 89/3/4 77/3/4 90/3/4
f 77/1/4 85/1/4 90/1/4
f 86/3/4 87/3/4 91/3/4
f 90/1/4 86/1/4 91/1/4
f 87/1/4 88/1/4 92/1/4
f 91/3/4 87/3/4 92/3/4
f 83/3/4 84/3/4 93/3/4
f 84/1/4 26/1/4 94/1/4
f 93/3/4 84/3/4 94/3/4
f 83/3/4 93/3/4 95/3/4
f 93/1/4 94/1/4 95/1/4
f 95/1/4 94/1/4 96/1/4
f 89/1/4 90/1/4 97/1/4
f 88/1/4 83/1/4 97/1/4
f 95/3/4 96/3/4 97/3/4
f 83/3/4 95/3/4 97/3/4
f 91/1/4 92/1/4 97/1/4
f 90/1/4 91/1/4 97/1/4
f 92/1/4 88/1/4 97/1/4
f 97/3/4 96/3/4 98/3/4
f 96/1/4 94/1/4 99/1/4
f 98/3/4 96/3/4 99/3/4
f 99/1/4 94/1/4 100/1/4
f 97/1/4 98/1/4 101/1/4
f 98/3/4 99/3/4 101/3/4
f 99/3/4 100/3/4 101/3/4
f 101/3/4 100/3/4 102/3/4
f 100/1/4 94/1/4 103/1/4
f 102/3/4 100/3/4 103/3/4
f 103/1/4 94/1/4 104/1/4
f 101/1/4 102/1/4 105/1/4
f 89/1/4 97/1/4 105/1/4
f 97/1/4 101/1/4 105/1/4
f 105/1/4 102/1/4 106/1/4
f 103/3/4 104/3/4 107/3/4
f 106/1/4 102/1/4 107/1/4
f 102/3/4 103/3/4 107/3/4
f 107/3/4 104/3/4 108/3/4
f 104/1/4 94/1/4 109/1/4
f 108/3/4 104/3/4 109/3/4
f 109/1/4 94/1/4 110/1/4
f 25/1/4 89/1/4 111/1/4
f 89/1/4 105/1/4 111/1/4
f 105/3/4 106/3/4 112/3/4
f 111/1/4 105/1/4 112/1/4
f 107/1/4 108/1/4 113/1/4
f 112/3/4 106/3/4 113/3/4
f 106/1/4 107/1/4 113/1/4
f 113/1/4 108/1/4 114/1/4
f 109/3/4 110/3/4 115/3/4
f 114/1/4 108/1/4 115/1/4
f 108/3/4 109/3/4 115/3/4
f 115/3/4 110/3/4 116/3/4
f 110/1/4 94/1/4 117/1/4
f 116/3/4 110/3/4 117/3/4
f 117/1/4 94/1/4 118/1/4
f 111/3/4 112/3/4 119/3/4
f 113/3/4 114/3/4 119/3/4
f 112/3/4 113/3/4 119/3/4
f 119/3/4 114/3/4 120/3/4
f 115/1/4 116/1/4 121/1/4
f 117/3/4 118/3/4 121/3/4
f 116/3/4 117/3/4 121/3/4
f 114/1/4 115/1/4 121/1/4
f 121/3/4 118/3/4 122/3/4
f 118/1/4 94/1/4 123/1/4
f 122/3/4 118/3/4 123/3/4
f 94/1/4 26/1/4 124/1/4
f 123/1/4 94/1/4 124/1/4
f 121/1/4 122/1/4 125/1/4
f 122/3/4 123/3/4 125/3/4
f 123/3/4 124/3/4 125/3/4
f 125/3/4 124/3/4 126/3/4
f 114/1/4 121/1/4 127/1/4
f 121/1/4 125/1/4 127/1/4
f 125/1/4 126/1/4 127/1/4
f 126/3/4 124/3/4 128/3/4
f 127/1/4 126/1/4 128/1/4
f 119/1/4 120/1/4 129/1/4
f 111/3/4 119/3/4 129/3/4
f 120/3/4 114/3/4 130/3/4
f 129/1/4 120/1/4 130/1/4
f 114/1/4 127/1/4 131/1/4
f 127/3/4 128/3/4 131/3/4
f 124/1/4 26/1/4 132/1/4
f 131/3/4 128/3/4 132/3/4
f 128/3/4 124/3/4 132/3/4
f 132/1/4 26/1/4 133/1/4
f 133/1/4 26/1/4 134/1/4
f 111/3/4 129/3/4 135/3/4
f 25/1/4 111/1/4 135/1/4
f 129/3/4 130/3/4 135/3/4
f 135/3/4 130/3/4 136/3/4
f 130/3/4 114/3/4 137/3/4
f 136/3/4 130/3/4 137/3/4
f 114/1/4 131/1/4 138/1/4
f 137/3/4 114/3/4 138/3/4
f 132/1/4 133/1/4 138/1/4
f 131/1/4 132/1/4 138/1/4
f 136/3/4 137/3/4 139/3/4
f 135/1/4 136/1/4 139/1/4
f 137/1/4 138/1/4 140/1/4
f 139/3/4 137/3/4 140/3/4
f 138/1/4 133/1/4 141/1/4
f 140/1/4 138/1/4 141/1/4
f 139/1/4 140/1/4 141/1/4
f 134/1/4 26/1/4 142/1/4
f 25/1/4 135/1/4 143/1/4
f 141/1/4 142/1/4 143/1/4
f 135/1/4 139/1/4 143/1/4
f 139/1/4 141/1/4 143/1/4
f 143/1/4 142/1/4 144/1/4
f 144/1/4 142/1/4 145/1/4
f 145/1/4 142/1/4 146/1/4
f 143/3/4 144/3/4 147/3/4
f 144/1/4 145/1/4 147/1/4
f 147/1/4 145/1/4 148/1/4
f 148/1/4 145/1/4 149/1/4
f 145/3/4 146/3/4 150/3/4
f 149/1/4 145/1/4 150/1/4
f 146/1/4 142/1/4 151/1/4
f 150/3/4 146/3/4 151/3/4
f 151/1/4 142/1/4 152/1/4
f 25/1/4 143/1/4 153/1/4
f 143/3/4 147/3/4 153/3/4
f 147/3/4 148/3/4 153/3/4
f 153/3/4 148/3/4 154/3/4
f 148/1/4 149/1/4 155/1/4
f 154/3/4 148/3/4 155/3/4
f 155/1/4 149/1/4 156/1/4
f 149/3/4 150/3/4 157/3/4
f 151/3/4 152/3/4 157/3/4
f 150/3/4 151/3/4 157/3/4
f 157/3/4 152/3/4 158/3/4
f 153/1/4 154/1/4 159/1/4
f 155/3/4 156/3/4 159/3/4
f 154/3/4 155/3/4 159/3/4
f 159/3/4 156/3/4 160/3/4
f 156/1/4 149/1/4 161/1/4
f 160/3/4 156/3/4 161/3/4
f 149/3/4 157/3/4 162/3/4
f 161/1/4 149/1/4 162/1/4
f 159/1/4 160/1/4 163/1/4
f 160/3/4 161/3/4 163/3/4
f 161/3/4 162/3/4 163/3/4
f 163/3/4 162/3/4 164/3/4
f 153/1/4 159/1/4 165/1/4
f 25/1/4 153/1/4 165/1/4
f 163/1/4 164/1/4 165/1/4
f 159/1/4 163/1/4 165/1/4
f 164/3/4 162/3/4 166/3/4
f 165/1/4 164/1/4 166/1/4
f 162/3/4 157/3/4 167/3/4
f 166/3/4 162/3/4 167/3/4
f 157/1/4 158/1/4 167/1/4
f 158/3/4 152/3/4 168/3/4
f 167/1/4 158/1/4 168/1/4
f 152/1/4 142/1/4 169/1/4
f 169/1/4 142/1/4 170/1/4
f 168/3/4 152/3/4 171/3/4
f 165/3/4 166/3/4 171/3/4
f 166/3/4 167/3/4 171/3/4
f 167/3/4 168/3/4 171/3/4
f 152/1/4 169/1/4 172/1/4
f 171/3/4 152/3/4 172/3/4
f 172/1/4 169/1/4 173/1/4
f 169/3/4 170/3/4 174/3/4
f 173/1/4 169/1/4 174/1/4
f 170/1/4 142/1/4 175/1/4
f 174/3/4 170/3/4 175/3/4
f 175/1/4 142/1/4 176/1/4
f 165/3/4 171/3/4 177/3/4
f 25/1/4 165/1/4 177/1/4
f 172/1/4 173/1/4 178/1/4
f 177/3/4 171/3/4 178/3/4
f 171/1/4 172/1/4 178/1/4
f 173/3/4 174/3/4 179/3/4
f 175/3/4 176/3/4 179/3/4
f 174/3/4 175/3/4 179/3/4
f 179/3/4 176/3/4 180/3/4
f 25/1/4 177/1/4 181/1/4
f 177/1/4 178/1/4 181/1/4
f 181/1/4 178/1/4 182/1/4
f 182/1/4 178/1/4 183/1/4
f 178/1/4 173/1/4 184/1/4
f 183/1/4 178/1/4 184/1/4
f 179/1/4 180/1/4 185/1/4
f 173/3/4 179/3/4 185/3/4
f 180/3/4 176/3/4 186/3/4
f 185/1/4 180/1/4 186/1/4
f 173/3/4 185/3/4 187/3/4
f 184/1/4 173/1/4 187/1/4
f 185/3/4 186/3/4 187/3/4
f 187/3/4 186/3/4 188/3/4
f 186/3/4 176/3/4 189/3/4
f 188/3/4 186/3/4 189/3/4
f 176/1/4 142/1/4 190/1/4
f 189/3/4 176/3/4 190/3/4
f 187/1/4 188/1/4 191/1/4
f 188/3/4 189/3/4 191/3/4
f 189/1/4 190/1/4 192/1/4
f 191/3/4 189/3/4 192/3/4
f 182/1/4 183/1/4 193/1/4
f 181/3/4 182/3/4 193/3/4
f 183/3/4 184/3/4 194/3/4
f 193/1/4 183/1/4 194/1/4
f 191/1/4 192/1/4 195/1/4
f 195/1/4 192/1/4 196/1/4
f 181/3/4 193/3/4 197/3/4
f 25/1/4 181/1/4 197/1/4
f 193/3/4 194/3/4 197/3/4
f 197/3/4 194/3/4 198/3/4
f 194/3/4 184/3/4 199/3/4
f 198/3/4 194/3/4 199/3/4
f 187/1/4 191/1/4 200/1/4
f 199/3/4 184/3/4 200/3/4
f 184/1/4 187/1/4 200/1/4
f 191/1/4 195/1/4 200/1/4
f 200/1/4 195/1/4 201/1/4
f 195/3/4 196/3/4 202/3/4
f 201/1/4 195/1/4 202/1/4
f 196/1/4 192/1/4 203/1/4
f 202/3/4 196/3/4 203/3/4
f 203/1/4 192/1/4 204/1/4
f 198/3/4 199/3/4 205/3/4
f 197/1/4 198/1/4 205/1/4
f 200/1/4 201/1/4 206/1/4
f 205/3/4 199/3/4 206/3/4
f 199/1/4 200/1/4 206/1/4
f 206/1/4 201/1/4 207/1/4
f 203/3/4 204/3/4 208/3/4
f 207/1/4 201/1/4 208/1/4
f 201/3/4 202/3/4 208/3/4
f 202/3/4 203/3/4 208/3/4
f 208/3/4 204/3/4 209/3/4
f 209/3/4 204/3/4 210/3/4
f 204/1/4 192/1/4 211/1/4
f 210/3/4 204/3/4 211/3/4
f 211/1/4 192/1/4 212/1/4
f 206/1/4 207/1/4 213/1/4
f 205/1/4 206/1/4 213/1/4
f 207/3/4 208/3/4 214/3/4
f 213/1/4 207/1/4 214/1/4
f 208/3/4 209/3/4 214/3/4
f 214/3/4 209/3/4 215/3/4
f 209/1/4 210/1/4 216/1/4
f 215/3/4 209/3/4 216/3/4
f 211/3/4 212/3/4 217/3/4
f 216/1/4 210/1/4 217/1/4
f 210/3/4 211/3/4 217/3/4
f 217/3/4 212/3/4 218/3/4
f 212/1/4 192/1/4 219/1/4
f 218/3/4 212/3/4 219/3/4
f 192/1/4 190/1/4 220/1/4
f 219/1/4 192/1/4 220/1/4
f 205/1/4 213/1/4 221/1/4
f 214/3/4 215/3/4 222/3/4
f 221/1/4 213/1/4 222/1/4
f 213/3/4 214/3/4 222/3/4
f 222/3/4 215/3/4 223/3/4
f 217/1/4 218/1/4 224/1/4
f 223/3/4 215/3/4 224/3/4
f 215/1/4 216/1/4 224/1/4
f 216/1/4 217/1/4 224/1/4
f 218/3/4 219/3/4 225/3/4
f 224/1/4 218/1/4 225/1/4
f 219/3/4 220/3/4 225/3/4
f 225/3/4 220/3/4 226/3/4
f 220/1/4 190/1/4 227/1/4
f 226/3/4 220/3/4 227/3/4
f 190/1/4 142/1/4 228/1/4
f 227/1/4 190/1/4 228/1/4
f 222/3/4 223/3/4 229/3/4
f 221/3/4 222/3/4 229/3/4
f 223/1/4 224/1/4 230/1/4
f 229/3/4 223/3/4 230/3/4
f 225/1/4 226/1/4 230/1/4
f 224/1/4 225/1/4 230/1/4
f 226/3/4 227/3/4 231/3/4
f 230/1/4 226/1/4 231/1/4
f 227/3/4 228/3/4 231/3/4
f 231/3/4 228/3/4 232/3/4
f 221/3/4 229/3/4 233/3/4
f 229/1/4 230/1/4 233/1/4
f 231/1/4 232/1/4 233/1/4
f 230/1/4 231/1/4 233/1/4
f 232/3/4 228/3/4 234/3/4
f 233/1/4 232/1/4 234/1/4
f 221/3/4 233/3/4 235/3/4
f 205/1/4 221/1/4 235/1/4
f 233/3/4 234/3/4 235/3/4
f 234/3/4 228/3/4 236/3/4
f 235/3/4 234/3/4 236/3/4
f 228/1/4 142/1/4 236/1/4
f 205/1/4 235/1/4 237/1/4
f 197/1/4 205/1/4 237/1/4
f 235/1/4 236/1/4 237/1/4
f 25/1/4 197/1/4 237/1/4
f 142/1/4 26/1/4 238/1/4
f 237/1/4 236/1/4 238/1/4
f 236/1/4 142/1/4 238/1/4
f 239/2/4 240/2/4 241/2/4
f 241/2/4 240/2/4 242/2/4
f 245/1/5 244/1/5 243/1/5
f 246/1/5 244/1/5 245/1/5
f 249/2/5 248/2/5 247/2/5
f 250/2/5 248/2/5 249/2/5
f 251/2/6 252/2/6 253/2/6
f 253/2/6 252/2/6 254/2/6
f 255/1/6 256/1/6 257/1/6
f 257/1/6 256/1/6 258/1/6
