# MagicaVoxel @ Ephtracy

# group
o Torch

# material
mtllib Mine-1-Torch.mtl
usemtl palette

# normals
vn -1 0 0
vn 1 0 0
vn 0 0 1
vn 0 0 -1
vn 0 -1 0
vn 0 1 0

# texcoords
vt 0.0644531 0.5
vt 0.283203 0.5
vt 0.388672 0.5

# verts
v -6.1 0.5 9.8
v -6.1 0.5 9.4
v -6.1 3.7 9.8
v -6.1 3.7 9.4
v -6.1 4.1 9.8
v -6.1 4.1 9.7
v -6.1 4.1 9.5
v -6.1 4.1 9.4
v -6.1 4.2 9.7
v -6.1 4.2 9.5
v -6 0.5 10
v -6 0.5 9.8
v -6 0.5 9.4
v -6 0.5 9.2
v -6 3.7 10
v -6 3.7 9.8
v -6 3.7 9.4
v -6 3.7 9.2
v -6 4.1 10
v -6 4.1 9.9
v -6 4.1 9.8
v -6 4.1 9.7
v -6 4.1 9.5
v -6 4.1 9.4
v -6 4.1 9.3
v -6 4.1 9.2
v -6 4.2 9.9
v -6 4.2 9.8
v -6 4.2 9.7
v -6 4.2 9.5
v -6 4.2 9.4
v -6 4.2 9.3
v -6 4.3 9.8
v -6 4.3 9.7
v -6 4.3 9.5
v -6 4.3 9.4
v -6 4.4 9.7
v -6 4.4 9.5
v -5.9 4.1 10
v -5.9 4.1 9.9
v -5.9 4.1 9.3
v -5.9 4.1 9.2
v -5.9 4.2 10
v -5.9 4.2 9.9
v -5.9 4.2 9.8
v -5.9 4.2 9.4
v -5.9 4.2 9.3
v -5.9 4.2 9.2
v -5.9 4.3 9.9
v -5.9 4.3 9.8
v -5.9 4.3 9.7
v -5.9 4.3 9.5
v -5.9 4.3 9.4
v -5.9 4.3 9.3
v -5.9 4.4 9.8
v -5.9 4.4 9.7
v -5.9 4.4 9.5
v -5.9 4.4 9.4
v -5.9 4.5 9.7
v -5.9 4.5 9.5
v -5.8 0.5 10.1
v -5.8 0.5 10
v -5.8 0.5 9.2
v -5.8 0.5 9.1
v -5.8 3.7 10.1
v -5.8 3.7 10
v -5.8 3.7 9.2
v -5.8 3.7 9.1
v -5.8 4.1 10.1
v -5.8 4.1 10
v -5.8 4.1 9.2
v -5.8 4.1 9.1
v -5.8 4.2 10
v -5.8 4.2 9.9
v -5.8 4.2 9.3
v -5.8 4.2 9.2
v -5.8 4.3 10
v -5.8 4.3 9.9
v -5.8 4.3 9.8
v -5.8 4.3 9.4
v -5.8 4.3 9.3
v -5.8 4.3 9.2
v -5.8 4.4 9.9
v -5.8 4.4 9.8
v -5.8 4.4 9.7
v -5.8 4.4 9.5
v -5.8 4.4 9.4
v -5.8 4.4 9.3
v -5.8 4.5 9.8
v -5.8 4.5 9.7
v -5.8 4.5 9.5
v -5.8 4.5 9.4
v -5.7 4.1 10.1
v -5.7 4.1 10
v -5.7 4.1 9.2
v -5.7 4.1 9.1
v -5.7 4.2 10.1
v -5.7 4.2 10
v -5.7 4.2 9.2
v -5.7 4.2 9.1
v -5.7 4.3 10
v -5.7 4.3 9.9
v -5.7 4.3 9.3
v -5.7 4.3 9.2
v -5.7 4.4 10
v -5.7 4.4 9.9
v -5.7 4.4 9.8
v -5.7 4.4 9.4
v -5.7 4.4 9.3
v -5.7 4.4 9.2
v -5.7 4.5 9.9
v -5.7 4.5 9.8
v -5.7 4.5 9.4
v -5.7 4.5 9.3
v -5.5 4.1 10.1
v -5.5 4.1 10
v -5.5 4.1 9.2
v -5.5 4.1 9.1
v -5.5 4.2 10.1
v -5.5 4.2 10
v -5.5 4.2 9.2
v -5.5 4.2 9.1
v -5.5 4.3 10
v -5.5 4.3 9.9
v -5.5 4.3 9.3
v -5.5 4.3 9.2
v -5.5 4.4 10
v -5.5 4.4 9.9
v -5.5 4.4 9.8
v -5.5 4.4 9.4
v -5.5 4.4 9.3
v -5.5 4.4 9.2
v -5.5 4.5 9.9
v -5.5 4.5 9.8
v -5.5 4.5 9.4
v -5.5 4.5 9.3
v -5.4 0.5 10.1
v -5.4 0.5 10
v -5.4 0.5 9.2
v -5.4 0.5 9.1
v -5.4 3.7 10.1
v -5.4 3.7 10
v -5.4 3.7 9.2
v -5.4 3.7 9.1
v -5.4 4.1 10.1
v -5.4 4.1 10
v -5.4 4.1 9.2
v -5.4 4.1 9.1
v -5.4 4.2 10
v -5.4 4.2 9.9
v -5.4 4.2 9.3
v -5.4 4.2 9.2
v -5.4 4.3 10
v -5.4 4.3 9.9
v -5.4 4.3 9.8
v -5.4 4.3 9.4
v -5.4 4.3 9.3
v -5.4 4.3 9.2
v -5.4 4.4 9.9
v -5.4 4.4 9.8
v -5.4 4.4 9.7
v -5.4 4.4 9.5
v -5.4 4.4 9.4
v -5.4 4.4 9.3
v -5.4 4.5 9.8
v -5.4 4.5 9.7
v -5.4 4.5 9.5
v -5.4 4.5 9.4
v -5.3 4.1 10
v -5.3 4.1 9.9
v -5.3 4.1 9.3
v -5.3 4.1 9.2
v -5.3 4.2 10
v -5.3 4.2 9.9
v -5.3 4.2 9.8
v -5.3 4.2 9.4
v -5.3 4.2 9.3
v -5.3 4.2 9.2
v -5.3 4.3 9.9
v -5.3 4.3 9.8
v -5.3 4.3 9.7
v -5.3 4.3 9.5
v -5.3 4.3 9.4
v -5.3 4.3 9.3
v -5.3 4.4 9.8
v -5.3 4.4 9.7
v -5.3 4.4 9.5
v -5.3 4.4 9.4
v -5.3 4.5 9.7
v -5.3 4.5 9.5
v -5.2 0.5 10
v -5.2 0.5 9.8
v -5.2 0.5 9.4
v -5.2 0.5 9.2
v -5.2 3.7 10
v -5.2 3.7 9.8
v -5.2 3.7 9.4
v -5.2 3.7 9.2
v -5.2 4.1 10
v -5.2 4.1 9.9
v -5.2 4.1 9.8
v -5.2 4.1 9.7
v -5.2 4.1 9.5
v -5.2 4.1 9.4
v -5.2 4.1 9.3
v -5.2 4.1 9.2
v -5.2 4.2 9.9
v -5.2 4.2 9.8
v -5.2 4.2 9.7
v -5.2 4.2 9.5
v -5.2 4.2 9.4
v -5.2 4.2 9.3
v -5.2 4.3 9.8
v -5.2 4.3 9.7
v -5.2 4.3 9.5
v -5.2 4.3 9.4
v -5.2 4.4 9.7
v -5.2 4.4 9.5
v -5.1 0.5 9.8
v -5.1 0.5 9.4
v -5.1 3.7 9.8
v -5.1 3.7 9.4
v -5.1 4.1 9.8
v -5.1 4.1 9.7
v -5.1 4.1 9.5
v -5.1 4.1 9.4
v -5.1 4.2 9.7
v -5.1 4.2 9.5
v -5.8 0.5 10.1
v -5.8 3.7 10.1
v -5.8 4.1 10.1
v -5.7 4.1 10.1
v -5.7 4.2 10.1
v -5.5 4.1 10.1
v -5.5 4.2 10.1
v -5.4 0.5 10.1
v -5.4 3.7 10.1
v -5.4 4.1 10.1
v -6 0.5 10
v -6 3.7 10
v -6 4.1 10
v -5.9 4.1 10
v -5.9 4.2 10
v -5.8 0.5 10
v -5.8 3.7 10
v -5.8 4.1 10
v -5.8 4.2 10
v -5.8 4.3 10
v -5.7 4.1 10
v -5.7 4.2 10
v -5.7 4.3 10
v -5.7 4.4 10
v -5.5 4.1 10
v -5.5 4.2 10
v -5.5 4.3 10
v -5.5 4.4 10
v -5.4 0.5 10
v -5.4 3.7 10
v -5.4 4.1 10
v -5.4 4.2 10
v -5.4 4.3 10
v -5.3 4.1 10
v -5.3 4.2 10
v -5.2 0.5 10
v -5.2 3.7 10
v -5.2 4.1 10
v -6 4.1 9.9
v -6 4.2 9.9
v -5.9 4.1 9.9
v -5.9 4.2 9.9
v -5.9 4.3 9.9
v -5.8 4.2 9.9
v -5.8 4.3 9.9
v -5.8 4.4 9.9
v -5.7 4.3 9.9
v -5.7 4.4 9.9
v -5.7 4.5 9.9
v -5.5 4.3 9.9
v -5.5 4.4 9.9
v -5.5 4.5 9.9
v -5.4 4.2 9.9
v -5.4 4.3 9.9
v -5.4 4.4 9.9
v -5.3 4.1 9.9
v -5.3 4.2 9.9
v -5.3 4.3 9.9
v -5.2 4.1 9.9
v -5.2 4.2 9.9
v -6.1 0.5 9.8
v -6.1 3.7 9.8
v -6.1 4.1 9.8
v -6 0.5 9.8
v -6 3.7 9.8
v -6 4.1 9.8
v -6 4.2 9.8
v -6 4.3 9.8
v -5.9 4.2 9.8
v -5.9 4.3 9.8
v -5.9 4.4 9.8
v -5.8 4.3 9.8
v -5.8 4.4 9.8
v -5.8 4.5 9.8
v -5.7 4.4 9.8
v -5.7 4.5 9.8
v -5.5 4.4 9.8
v -5.5 4.5 9.8
v -5.4 4.3 9.8
v -5.4 4.4 9.8
v -5.4 4.5 9.8
v -5.3 4.2 9.8
v -5.3 4.3 9.8
v -5.3 4.4 9.8
v -5.2 0.5 9.8
v -5.2 3.7 9.8
v -5.2 4.1 9.8
v -5.2 4.2 9.8
v -5.2 4.3 9.8
v -5.1 0.5 9.8
v -5.1 3.7 9.8
v -5.1 4.1 9.8
v -6.1 4.1 9.7
v -6.1 4.2 9.7
v -6 4.1 9.7
v -6 4.2 9.7
v -6 4.3 9.7
v -6 4.4 9.7
v -5.9 4.3 9.7
v -5.9 4.4 9.7
v -5.9 4.5 9.7
v -5.8 4.4 9.7
v -5.8 4.5 9.7
v -5.4 4.4 9.7
v -5.4 4.5 9.7
v -5.3 4.3 9.7
v -5.3 4.4 9.7
v -5.3 4.5 9.7
v -5.2 4.1 9.7
v -5.2 4.2 9.7
v -5.2 4.3 9.7
v -5.2 4.4 9.7
v -5.1 4.1 9.7
v -5.1 4.2 9.7
v -6.1 4.1 9.5
v -6.1 4.2 9.5
v -6 4.1 9.5
v -6 4.2 9.5
v -6 4.3 9.5
v -6 4.4 9.5
v -5.9 4.3 9.5
v -5.9 4.4 9.5
v -5.9 4.5 9.5
v -5.8 4.4 9.5
v -5.8 4.5 9.5
v -5.4 4.4 9.5
v -5.4 4.5 9.5
v -5.3 4.3 9.5
v -5.3 4.4 9.5
v -5.3 4.5 9.5
v -5.2 4.1 9.5
v -5.2 4.2 9.5
v -5.2 4.3 9.5
v -5.2 4.4 9.5
v -5.1 4.1 9.5
v -5.1 4.2 9.5
v -6.1 0.5 9.4
v -6.1 3.7 9.4
v -6.1 4.1 9.4
v -6 0.5 9.4
v -6 3.7 9.4
v -6 4.1 9.4
v -6 4.2 9.4
v -6 4.3 9.4
v -5.9 4.2 9.4
v -5.9 4.3 9.4
v -5.9 4.4 9.4
v -5.8 4.3 9.4
v -5.8 4.4 9.4
v -5.8 4.5 9.4
v -5.7 4.4 9.4
v -5.7 4.5 9.4
v -5.5 4.4 9.4
v -5.5 4.5 9.4
v -5.4 4.3 9.4
v -5.4 4.4 9.4
v -5.4 4.5 9.4
v -5.3 4.2 9.4
v -5.3 4.3 9.4
v -5.3 4.4 9.4
v -5.2 0.5 9.4
v -5.2 3.7 9.4
v -5.2 4.1 9.4
v -5.2 4.2 9.4
v -5.2 4.3 9.4
v -5.1 0.5 9.4
v -5.1 3.7 9.4
v -5.1 4.1 9.4
v -6 4.1 9.3
v -6 4.2 9.3
v -5.9 4.1 9.3
v -5.9 4.2 9.3
v -5.9 4.3 9.3
v -5.8 4.2 9.3
v -5.8 4.3 9.3
v -5.8 4.4 9.3
v -5.7 4.3 9.3
v -5.7 4.4 9.3
v -5.7 4.5 9.3
v -5.5 4.3 9.3
v -5.5 4.4 9.3
v -5.5 4.5 9.3
v -5.4 4.2 9.3
v -5.4 4.3 9.3
v -5.4 4.4 9.3
v -5.3 4.1 9.3
v -5.3 4.2 9.3
v -5.3 4.3 9.3
v -5.2 4.1 9.3
v -5.2 4.2 9.3
v -6 0.5 9.2
v -6 3.7 9.2
v -6 4.1 9.2
v -5.9 4.1 9.2
v -5.9 4.2 9.2
v -5.8 0.5 9.2
v -5.8 3.7 9.2
v -5.8 4.1 9.2
v -5.8 4.2 9.2
v -5.8 4.3 9.2
v -5.7 4.1 9.2
v -5.7 4.2 9.2
v -5.7 4.3 9.2
v -5.7 4.4 9.2
v -5.5 4.1 9.2
v -5.5 4.2 9.2
v -5.5 4.3 9.2
v -5.5 4.4 9.2
v -5.4 0.5 9.2
v -5.4 3.7 9.2
v -5.4 4.1 9.2
v -5.4 4.2 9.2
v -5.4 4.3 9.2
v -5.3 4.1 9.2
v -5.3 4.2 9.2
v -5.2 0.5 9.2
v -5.2 3.7 9.2
v -5.2 4.1 9.2
v -5.8 0.5 9.1
v -5.8 3.7 9.1
v -5.8 4.1 9.1
v -5.7 4.1 9.1
v -5.7 4.2 9.1
v -5.5 4.1 9.1
v -5.5 4.2 9.1
v -5.4 0.5 9.1
v -5.4 3.7 9.1
v -5.4 4.1 9.1
v -5.8 0.5 10.1
v -5.4 0.5 10.1
v -6 0.5 10
v -5.8 0.5 10
v -5.4 0.5 10
v -5.2 0.5 10
v -6.1 0.5 9.8
v -6 0.5 9.8
v -5.2 0.5 9.8
v -5.1 0.5 9.8
v -6.1 0.5 9.4
v -6 0.5 9.4
v -5.2 0.5 9.4
v -5.1 0.5 9.4
v -6 0.5 9.2
v -5.8 0.5 9.2
v -5.4 0.5 9.2
v -5.2 0.5 9.2
v -5.8 0.5 9.1
v -5.4 0.5 9.1
v -5.8 4.1 10.1
v -5.7 4.1 10.1
v -5.5 4.1 10.1
v -5.4 4.1 10.1
v -6 4.1 10
v -5.9 4.1 10
v -5.8 4.1 10
v -5.7 4.1 10
v -5.5 4.1 10
v -5.4 4.1 10
v -5.3 4.1 10
v -5.2 4.1 10
v -6 4.1 9.9
v -5.9 4.1 9.9
v -5.3 4.1 9.9
v -5.2 4.1 9.9
v -6.1 4.1 9.8
v -6 4.1 9.8
v -5.2 4.1 9.8
v -5.1 4.1 9.8
v -6.1 4.1 9.7
v -6 4.1 9.7
v -5.2 4.1 9.7
v -5.1 4.1 9.7
v -6.1 4.1 9.5
v -6 4.1 9.5
v -5.2 4.1 9.5
v -5.1 4.1 9.5
v -6.1 4.1 9.4
v -6 4.1 9.4
v -5.2 4.1 9.4
v -5.1 4.1 9.4
v -6 4.1 9.3
v -5.9 4.1 9.3
v -5.3 4.1 9.3
v -5.2 4.1 9.3
v -6 4.1 9.2
v -5.9 4.1 9.2
v -5.8 4.1 9.2
v -5.7 4.1 9.2
v -5.5 4.1 9.2
v -5.4 4.1 9.2
v -5.3 4.1 9.2
v -5.2 4.1 9.2
v -5.8 4.1 9.1
v -5.7 4.1 9.1
v -5.5 4.1 9.1
v -5.4 4.1 9.1
v -5.7 4.2 10.1
v -5.5 4.2 10.1
v -5.9 4.2 10
v -5.8 4.2 10
v -5.7 4.2 10
v -5.5 4.2 10
v -5.4 4.2 10
v -5.3 4.2 10
v -6 4.2 9.9
v -5.9 4.2 9.9
v -5.8 4.2 9.9
v -5.4 4.2 9.9
v -5.3 4.2 9.9
v -5.2 4.2 9.9
v -6 4.2 9.8
v -5.9 4.2 9.8
v -5.3 4.2 9.8
v -5.2 4.2 9.8
v -6.1 4.2 9.7
v -6 4.2 9.7
v -5.2 4.2 9.7
v -5.1 4.2 9.7
v -6.1 4.2 9.5
v -6 4.2 9.5
v -5.2 4.2 9.5
v -5.1 4.2 9.5
v -6 4.2 9.4
v -5.9 4.2 9.4
v -5.3 4.2 9.4
v -5.2 4.2 9.4
v -6 4.2 9.3
v -5.9 4.2 9.3
v -5.8 4.2 9.3
v -5.4 4.2 9.3
v -5.3 4.2 9.3
v -5.2 4.2 9.3
v -5.9 4.2 9.2
v -5.8 4.2 9.2
v -5.7 4.2 9.2
v -5.5 4.2 9.2
v -5.4 4.2 9.2
v -5.3 4.2 9.2
v -5.7 4.2 9.1
v -5.5 4.2 9.1
v -5.8 4.3 10
v -5.7 4.3 10
v -5.5 4.3 10
v -5.4 4.3 10
v -5.9 4.3 9.9
v -5.8 4.3 9.9
v -5.7 4.3 9.9
v -5.5 4.3 9.9
v -5.4 4.3 9.9
v -5.3 4.3 9.9
v -6 4.3 9.8
v -5.9 4.3 9.8
v -5.8 4.3 9.8
v -5.4 4.3 9.8
v -5.3 4.3 9.8
v -5.2 4.3 9.8
v -6 4.3 9.7
v -5.9 4.3 9.7
v -5.3 4.3 9.7
v -5.2 4.3 9.7
v -6 4.3 9.5
v -5.9 4.3 9.5
v -5.3 4.3 9.5
v -5.2 4.3 9.5
v -6 4.3 9.4
v -5.9 4.3 9.4
v -5.8 4.3 9.4
v -5.4 4.3 9.4
v -5.3 4.3 9.4
v -5.2 4.3 9.4
v -5.9 4.3 9.3
v -5.8 4.3 9.3
v -5.7 4.3 9.3
v -5.5 4.3 9.3
v -5.4 4.3 9.3
v -5.3 4.3 9.3
v -5.8 4.3 9.2
v -5.7 4.3 9.2
v -5.5 4.3 9.2
v -5.4 4.3 9.2
v -5.7 4.4 10
v -5.5 4.4 10
v -5.8 4.4 9.9
v -5.7 4.4 9.9
v -5.5 4.4 9.9
v -5.4 4.4 9.9
v -5.9 4.4 9.8
v -5.8 4.4 9.8
v -5.7 4.4 9.8
v -5.5 4.4 9.8
v -5.4 4.4 9.8
v -5.3 4.4 9.8
v -6 4.4 9.7
v -5.9 4.4 9.7
v -5.8 4.4 9.7
v -5.4 4.4 9.7
v -5.3 4.4 9.7
v -5.2 4.4 9.7
v -6 4.4 9.5
v -5.9 4.4 9.5
v -5.8 4.4 9.5
v -5.4 4.4 9.5
v -5.3 4.4 9.5
v -5.2 4.4 9.5
v -5.9 4.4 9.4
v -5.8 4.4 9.4
v -5.7 4.4 9.4
v -5.5 4.4 9.4
v -5.4 4.4 9.4
v -5.3 4.4 9.4
v -5.8 4.4 9.3
v -5.7 4.4 9.3
v -5.5 4.4 9.3
v -5.4 4.4 9.3
v -5.7 4.4 9.2
v -5.5 4.4 9.2
v -5.7 4.5 9.9
v -5.5 4.5 9.9
v -5.8 4.5 9.8
v -5.7 4.5 9.8
v -5.5 4.5 9.8
v -5.4 4.5 9.8
v -5.9 4.5 9.7
v -5.8 4.5 9.7
v -5.7 4.5 9.7
v -5.5 4.5 9.7
v -5.4 4.5 9.7
v -5.3 4.5 9.7
v -5.9 4.5 9.5
v -5.8 4.5 9.5
v -5.7 4.5 9.5
v -5.5 4.5 9.5
v -5.4 4.5 9.5
v -5.3 4.5 9.5
v -5.8 4.5 9.4
v -5.7 4.5 9.4
v -5.5 4.5 9.4
v -5.4 4.5 9.4
v -5.7 4.5 9.3
v -5.5 4.5 9.3

# faces
f 3/2/1 2/2/1 1/2/1
f 4/2/1 2/2/1 3/2/1
f 5/1/1 4/1/1 3/1/1
f 6/1/1 4/1/1 5/1/1
f 7/1/1 4/1/1 6/1/1
f 8/1/1 4/1/1 7/1/1
f 9/1/1 7/1/1 6/1/1
f 10/1/1 7/1/1 9/1/1
f 15/2/1 12/2/1 11/2/1
f 16/2/1 12/2/1 15/2/1
f 17/2/1 14/2/1 13/2/1
f 18/2/1 14/2/1 17/2/1
f 19/1/1 16/1/1 15/1/1
f 20/1/1 16/1/1 19/1/1
f 21/1/1 16/1/1 20/1/1
f 24/1/1 18/1/1 17/1/1
f 25/1/1 18/1/1 24/1/1
f 26/1/1 18/1/1 25/1/1
f 27/3/1 22/3/1 21/3/1
f 27/3/1 21/3/1 20/3/1
f 28/3/1 22/3/1 27/3/1
f 29/3/1 22/3/1 28/3/1
f 30/3/1 25/3/1 24/3/1
f 30/3/1 24/3/1 23/3/1
f 31/3/1 25/3/1 30/3/1
f 32/3/1 25/3/1 31/3/1
f 33/1/1 29/1/1 28/1/1
f 34/3/1 30/3/1 29/3/1
f 34/1/1 29/1/1 33/1/1
f 35/1/1 31/1/1 30/1/1
f 35/3/1 30/3/1 34/3/1
f 36/1/1 31/1/1 35/1/1
f 37/1/1 35/1/1 34/1/1
f 38/1/1 35/1/1 37/1/1
f 43/3/1 40/3/1 39/3/1
f 44/3/1 40/3/1 43/3/1
f 47/3/1 42/3/1 41/3/1
f 48/3/1 42/3/1 47/3/1
f 49/3/1 45/3/1 44/3/1
f 50/3/1 45/3/1 49/3/1
f 53/3/1 47/3/1 46/3/1
f 54/3/1 47/3/1 53/3/1
f 55/3/1 51/3/1 50/3/1
f 56/3/1 51/3/1 55/3/1
f 57/3/1 53/3/1 52/3/1
f 58/3/1 53/3/1 57/3/1
f 59/1/1 57/1/1 56/1/1
f 60/1/1 57/1/1 59/1/1
f 65/2/1 62/2/1 61/2/1
f 66/2/1 62/2/1 65/2/1
f 67/2/1 64/2/1 63/2/1
f 68/2/1 64/2/1 67/2/1
f 69/1/1 66/1/1 65/1/1
f 70/1/1 66/1/1 69/1/1
f 71/1/1 68/1/1 67/1/1
f 72/1/1 68/1/1 71/1/1
f 77/1/1 74/1/1 73/1/1
f 78/1/1 74/1/1 77/1/1
f 81/1/1 76/1/1 75/1/1
f 82/1/1 76/1/1 81/1/1
f 83/3/1 79/3/1 78/3/1
f 84/3/1 79/3/1 83/3/1
f 87/3/1 81/3/1 80/3/1
f 88/3/1 81/3/1 87/3/1
f 89/1/1 85/1/1 84/1/1
f 90/1/1 85/1/1 89/1/1
f 91/1/1 87/1/1 86/1/1
f 92/1/1 87/1/1 91/1/1
f 97/1/1 94/1/1 93/1/1
f 98/1/1 94/1/1 97/1/1
f 99/1/1 96/1/1 95/1/1
f 100/1/1 96/1/1 99/1/1
f 105/1/1 102/1/1 101/1/1
f 106/1/1 102/1/1 105/1/1
f 109/1/1 104/1/1 103/1/1
f 110/1/1 104/1/1 109/1/1
f 111/1/1 107/1/1 106/1/1
f 112/1/1 107/1/1 111/1/1
f 113/1/1 109/1/1 108/1/1
f 114/1/1 109/1/1 113/1/1
f 115/1/2 116/1/2 119/1/2
f 119/1/2 116/1/2 120/1/2
f 117/1/2 118/1/2 121/1/2
f 121/1/2 118/1/2 122/1/2
f 123/1/2 124/1/2 127/1/2
f 127/1/2 124/1/2 128/1/2
f 125/1/2 126/1/2 131/1/2
f 131/1/2 126/1/2 132/1/2
f 128/1/2 129/1/2 133/1/2
f 133/1/2 129/1/2 134/1/2
f 130/1/2 131/1/2 135/1/2
f 135/1/2 131/1/2 136/1/2
f 137/2/2 138/2/2 141/2/2
f 141/2/2 138/2/2 142/2/2
f 139/2/2 140/2/2 143/2/2
f 143/2/2 140/2/2 144/2/2
f 141/1/2 142/1/2 145/1/2
f 145/1/2 142/1/2 146/1/2
f 143/1/2 144/1/2 147/1/2
f 147/1/2 144/1/2 148/1/2
f 149/1/2 150/1/2 153/1/2
f 153/1/2 150/1/2 154/1/2
f 151/1/2 152/1/2 157/1/2
f 157/1/2 152/1/2 158/1/2
f 154/3/2 155/3/2 159/3/2
f 159/3/2 155/3/2 160/3/2
f 156/3/2 157/3/2 163/3/2
f 163/3/2 157/3/2 164/3/2
f 160/1/2 161/1/2 165/1/2
f 165/1/2 161/1/2 166/1/2
f 162/1/2 163/1/2 167/1/2
f 167/1/2 163/1/2 168/1/2
f 169/3/2 170/3/2 173/3/2
f 173/3/2 170/3/2 174/3/2
f 171/3/2 172/3/2 177/3/2
f 177/3/2 172/3/2 178/3/2
f 174/3/2 175/3/2 179/3/2
f 179/3/2 175/3/2 180/3/2
f 176/3/2 177/3/2 183/3/2
f 183/3/2 177/3/2 184/3/2
f 180/3/2 181/3/2 185/3/2
f 185/3/2 181/3/2 186/3/2
f 182/3/2 183/3/2 187/3/2
f 187/3/2 183/3/2 188/3/2
f 186/1/2 187/1/2 189/1/2
f 189/1/2 187/1/2 190/1/2
f 191/2/2 192/2/2 195/2/2
f 195/2/2 192/2/2 196/2/2
f 193/2/2 194/2/2 197/2/2
f 197/2/2 194/2/2 198/2/2
f 195/1/2 196/1/2 199/1/2
f 199/1/2 196/1/2 200/1/2
f 200/1/2 196/1/2 201/1/2
f 197/1/2 198/1/2 204/1/2
f 204/1/2 198/1/2 205/1/2
f 205/1/2 198/1/2 206/1/2
f 201/3/2 202/3/2 207/3/2
f 200/3/2 201/3/2 207/3/2
f 207/3/2 202/3/2 208/3/2
f 208/3/2 202/3/2 209/3/2
f 204/3/2 205/3/2 210/3/2
f 203/3/2 204/3/2 210/3/2
f 210/3/2 205/3/2 211/3/2
f 211/3/2 205/3/2 212/3/2
f 208/1/2 209/1/2 213/1/2
f 209/3/2 210/3/2 214/3/2
f 213/1/2 209/1/2 214/1/2
f 210/1/2 211/1/2 215/1/2
f 214/3/2 210/3/2 215/3/2
f 215/1/2 211/1/2 216/1/2
f 214/1/2 215/1/2 217/1/2
f 217/1/2 215/1/2 218/1/2
f 219/2/2 220/2/2 221/2/2
f 221/2/2 220/2/2 222/2/2
f 221/1/2 222/1/2 223/1/2
f 223/1/2 222/1/2 224/1/2
f 224/1/2 222/1/2 225/1/2
f 225/1/2 222/1/2 226/1/2
f 224/1/2 225/1/2 227/1/2
f 227/1/2 225/1/2 228/1/2
f 232/1/3 231/1/3 230/1/3
f 234/1/3 232/1/3 230/1/3
f 234/1/3 233/1/3 232/1/3
f 235/1/3 233/1/3 234/1/3
f 236/2/3 230/2/3 229/2/3
f 237/1/3 234/1/3 230/1/3
f 237/2/3 230/2/3 236/2/3
f 238/1/3 234/1/3 237/1/3
f 242/1/3 241/1/3 240/1/3
f 244/2/3 240/2/3 239/2/3
f 245/1/3 242/1/3 240/1/3
f 245/2/3 240/2/3 244/2/3
f 246/3/3 243/3/3 242/3/3
f 246/1/3 242/1/3 245/1/3
f 247/3/3 243/3/3 246/3/3
f 249/3/3 247/3/3 246/3/3
f 250/1/3 248/1/3 247/1/3
f 250/3/3 247/3/3 249/3/3
f 251/1/3 248/1/3 250/1/3
f 254/3/3 251/3/3 250/3/3
f 255/1/3 252/1/3 251/1/3
f 255/3/3 251/3/3 254/3/3
f 256/1/3 252/1/3 255/1/3
f 259/3/3 254/3/3 253/3/3
f 260/1/3 255/1/3 254/1/3
f 260/3/3 254/3/3 259/3/3
f 261/1/3 255/1/3 260/1/3
f 262/1/3 259/1/3 258/1/3
f 262/3/3 260/3/3 259/3/3
f 263/3/3 260/3/3 262/3/3
f 264/2/3 258/2/3 257/2/3
f 265/1/3 262/1/3 258/1/3
f 265/2/3 258/2/3 264/2/3
f 266/1/3 262/1/3 265/1/3
f 269/3/3 268/3/3 267/3/3
f 270/3/3 268/3/3 269/3/3
f 272/3/3 271/3/3 270/3/3
f 273/3/3 271/3/3 272/3/3
f 275/3/3 274/3/3 273/3/3
f 276/3/3 274/3/3 275/3/3
f 279/1/3 277/1/3 276/1/3
f 280/1/3 277/1/3 279/1/3
f 282/3/3 279/3/3 278/3/3
f 283/3/3 279/3/3 282/3/3
f 285/3/3 282/3/3 281/3/3
f 286/3/3 282/3/3 285/3/3
f 287/3/3 285/3/3 284/3/3
f 288/3/3 285/3/3 287/3/3
f 292/2/3 290/2/3 289/2/3
f 293/1/3 291/1/3 290/1/3
f 293/2/3 290/2/3 292/2/3
f 294/1/3 291/1/3 293/1/3
f 297/1/3 296/1/3 295/1/3
f 298/1/3 296/1/3 297/1/3
f 300/3/3 299/3/3 298/3/3
f 301/3/3 299/3/3 300/3/3
f 303/1/3 302/1/3 301/1/3
f 304/1/3 302/1/3 303/1/3
f 308/1/3 306/1/3 305/1/3
f 309/1/3 306/1/3 308/1/3
f 311/3/3 308/3/3 307/3/3
f 312/3/3 308/3/3 311/3/3
f 316/1/3 311/1/3 310/1/3
f 317/1/3 311/1/3 316/1/3
f 318/2/3 314/2/3 313/2/3
f 319/1/3 315/1/3 314/1/3
f 319/2/3 314/2/3 318/2/3
f 320/1/3 315/1/3 319/1/3
f 323/1/3 322/1/3 321/1/3
f 324/1/3 322/1/3 323/1/3
f 327/1/3 326/1/3 325/1/3
f 328/1/3 326/1/3 327/1/3
f 330/1/3 329/1/3 328/1/3
f 331/1/3 329/1/3 330/1/3
f 335/1/3 333/1/3 332/1/3
f 336/1/3 333/1/3 335/1/3
f 339/1/3 335/1/3 334/1/3
f 340/1/3 335/1/3 339/1/3
f 341/1/3 338/1/3 337/1/3
f 342/1/3 338/1/3 341/1/3
f 343/1/4 344/1/4 345/1/4
f 345/1/4 344/1/4 346/1/4
f 347/1/4 348/1/4 349/1/4
f 349/1/4 348/1/4 350/1/4
f 350/1/4 351/1/4 352/1/4
f 352/1/4 351/1/4 353/1/4
f 354/1/4 355/1/4 357/1/4
f 357/1/4 355/1/4 358/1/4
f 356/1/4 357/1/4 361/1/4
f 361/1/4 357/1/4 362/1/4
f 359/1/4 360/1/4 363/1/4
f 363/1/4 360/1/4 364/1/4
f 365/2/4 366/2/4 368/2/4
f 366/1/4 367/1/4 369/1/4
f 368/2/4 366/2/4 369/2/4
f 369/1/4 367/1/4 370/1/4
f 371/1/4 372/1/4 373/1/4
f 373/1/4 372/1/4 374/1/4
f 374/3/4 375/3/4 376/3/4
f 376/3/4 375/3/4 377/3/4
f 377/1/4 378/1/4 379/1/4
f 379/1/4 378/1/4 380/1/4
f 381/1/4 382/1/4 384/1/4
f 384/1/4 382/1/4 385/1/4
f 383/3/4 384/3/4 387/3/4
f 387/3/4 384/3/4 388/3/4
f 386/1/4 387/1/4 392/1/4
f 392/1/4 387/1/4 393/1/4
f 389/2/4 390/2/4 394/2/4
f 390/1/4 391/1/4 395/1/4
f 394/2/4 390/2/4 395/2/4
f 395/1/4 391/1/4 396/1/4
f 397/3/4 398/3/4 399/3/4
f 399/3/4 398/3/4 400/3/4
f 400/3/4 401/3/4 402/3/4
f 402/3/4 401/3/4 403/3/4
f 403/3/4 404/3/4 405/3/4
f 405/3/4 404/3/4 406/3/4
f 406/1/4 407/1/4 409/1/4
f 409/1/4 407/1/4 410/1/4
f 408/3/4 409/3/4 412/3/4
f 412/3/4 409/3/4 413/3/4
f 411/3/4 412/3/4 415/3/4
f 415/3/4 412/3/4 416/3/4
f 414/3/4 415/3/4 417/3/4
f 417/3/4 415/3/4 418/3/4
f 420/1/4 421/1/4 422/1/4
f 419/2/4 420/2/4 424/2/4
f 420/1/4 422/1/4 425/1/4
f 424/2/4 420/2/4 425/2/4
f 422/3/4 423/3/4 426/3/4
f 425/1/4 422/1/4 426/1/4
f 426/3/4 423/3/4 427/3/4
f 426/3/4 427/3/4 429/3/4
f 427/1/4 428/1/4 430/1/4
f 429/3/4 427/3/4 430/3/4
f 430/1/4 428/1/4 431/1/4
f 430/3/4 431/3/4 434/3/4
f 431/1/4 432/1/4 435/1/4
f 434/3/4 431/3/4 435/3/4
f 435/1/4 432/1/4 436/1/4
f 433/3/4 434/3/4 439/3/4
f 434/1/4 435/1/4 440/1/4
f 439/3/4 434/3/4 440/3/4
f 440/1/4 435/1/4 441/1/4
f 438/1/4 439/1/4 442/1/4
f 439/3/4 440/3/4 442/3/4
f 442/3/4 440/3/4 443/3/4
f 437/2/4 438/2/4 444/2/4
f 438/1/4 442/1/4 445/1/4
f 444/2/4 438/2/4 445/2/4
f 445/1/4 442/1/4 446/1/4
f 448/1/4 449/1/4 450/1/4
f 448/1/4 450/1/4 452/1/4
f 450/1/4 451/1/4 452/1/4
f 452/1/4 451/1/4 453/1/4
f 447/2/4 448/2/4 454/2/4
f 448/1/4 452/1/4 455/1/4
f 454/2/4 448/2/4 455/2/4
f 455/1/4 452/1/4 456/1/4
f 460/2/5 458/2/5 457/2/5
f 461/2/5 458/2/5 460/2/5
f 464/2/5 460/2/5 459/2/5
f 464/2/5 462/2/5 461/2/5
f 464/2/5 461/2/5 460/2/5
f 465/2/5 462/2/5 464/2/5
f 467/2/5 464/2/5 463/2/5
f 467/2/5 466/2/5 465/2/5
f 467/2/5 465/2/5 464/2/5
f 468/2/5 466/2/5 467/2/5
f 469/2/5 466/2/5 468/2/5
f 470/2/5 466/2/5 469/2/5
f 471/2/5 469/2/5 468/2/5
f 472/2/5 469/2/5 471/2/5
f 473/2/5 469/2/5 472/2/5
f 474/2/5 469/2/5 473/2/5
f 475/2/5 473/2/5 472/2/5
f 476/2/5 473/2/5 475/2/5
f 477/1/6 478/1/6 483/1/6
f 483/1/6 478/1/6 484/1/6
f 479/1/6 480/1/6 485/1/6
f 485/1/6 480/1/6 486/1/6
f 481/1/6 482/1/6 489/1/6
f 489/1/6 482/1/6 490/1/6
f 487/1/6 488/1/6 491/1/6
f 491/1/6 488/1/6 492/1/6
f 493/1/6 494/1/6 497/1/6
f 497/1/6 494/1/6 498/1/6
f 495/1/6 496/1/6 499/1/6
f 499/1/6 496/1/6 500/1/6
f 501/1/6 502/1/6 505/1/6
f 505/1/6 502/1/6 506/1/6
f 503/1/6 504/1/6 507/1/6
f 507/1/6 504/1/6 508/1/6
f 509/1/6 510/1/6 513/1/6
f 513/1/6 510/1/6 514/1/6
f 511/1/6 512/1/6 519/1/6
f 519/1/6 512/1/6 520/1/6
f 515/1/6 516/1/6 521/1/6
f 521/1/6 516/1/6 522/1/6
f 517/1/6 518/1/6 523/1/6
f 523/1/6 518/1/6 524/1/6
f 525/1/6 526/1/6 529/1/6
f 529/1/6 526/1/6 530/1/6
f 527/3/6 528/3/6 534/3/6
f 534/3/6 528/3/6 535/3/6
f 531/3/6 532/3/6 536/3/6
f 536/3/6 532/3/6 537/3/6
f 533/3/6 534/3/6 539/3/6
f 539/3/6 534/3/6 540/3/6
f 537/3/6 538/3/6 541/3/6
f 541/3/6 538/3/6 542/3/6
f 543/1/6 544/1/6 547/1/6
f 547/1/6 544/1/6 548/1/6
f 545/1/6 546/1/6 549/1/6
f 549/1/6 546/1/6 550/1/6
f 551/3/6 552/3/6 555/3/6
f 555/3/6 552/3/6 556/3/6
f 553/3/6 554/3/6 559/3/6
f 559/3/6 554/3/6 560/3/6
f 556/3/6 557/3/6 561/3/6
f 561/3/6 557/3/6 562/3/6
f 558/3/6 559/3/6 565/3/6
f 565/3/6 559/3/6 566/3/6
f 563/1/6 564/1/6 567/1/6
f 567/1/6 564/1/6 568/1/6
f 569/1/6 570/1/6 574/1/6
f 574/1/6 570/1/6 575/1/6
f 571/1/6 572/1/6 576/1/6
f 576/1/6 572/1/6 577/1/6
f 573/3/6 574/3/6 580/3/6
f 580/3/6 574/3/6 581/3/6
f 577/3/6 578/3/6 582/3/6
f 582/3/6 578/3/6 583/3/6
f 579/1/6 580/1/6 585/1/6
f 585/1/6 580/1/6 586/1/6
f 583/1/6 584/1/6 587/1/6
f 587/1/6 584/1/6 588/1/6
f 589/1/6 590/1/6 593/1/6
f 593/1/6 590/1/6 594/1/6
f 591/1/6 592/1/6 597/1/6
f 597/1/6 592/1/6 598/1/6
f 594/3/6 595/3/6 599/3/6
f 599/3/6 595/3/6 600/3/6
f 596/3/6 597/3/6 603/3/6
f 603/3/6 597/3/6 604/3/6
f 600/1/6 601/1/6 605/1/6
f 605/1/6 601/1/6 606/1/6
f 602/1/6 603/1/6 607/1/6
f 607/1/6 603/1/6 608/1/6
f 609/1/6 610/1/6 612/1/6
f 612/1/6 610/1/6 613/1/6
f 611/3/6 612/3/6 616/3/6
f 616/3/6 612/3/6 617/3/6
f 613/3/6 614/3/6 618/3/6
f 618/3/6 614/3/6 619/3/6
f 615/3/6 616/3/6 622/3/6
f 622/3/6 616/3/6 623/3/6
f 619/3/6 620/3/6 624/3/6
f 624/3/6 620/3/6 625/3/6
f 621/1/6 622/1/6 627/1/6
f 627/1/6 622/1/6 628/1/6
f 625/1/6 626/1/6 631/1/6
f 631/1/6 626/1/6 632/1/6
f 628/3/6 629/3/6 633/3/6
f 633/3/6 629/3/6 634/3/6
f 630/3/6 631/3/6 637/3/6
f 637/3/6 631/3/6 638/3/6
f 634/3/6 635/3/6 639/3/6
f 639/3/6 635/3/6 640/3/6
f 636/3/6 637/3/6 641/3/6
f 641/3/6 637/3/6 642/3/6
f 640/1/6 641/1/6 643/1/6
f 643/1/6 641/1/6 644/1/6
f 645/1/6 646/1/6 648/1/6
f 648/1/6 646/1/6 649/1/6
f 647/1/6 648/1/6 652/1/6
f 648/3/6 649/3/6 653/3/6
f 652/1/6 648/1/6 653/1/6
f 649/1/6 650/1/6 654/1/6
f 653/3/6 649/3/6 654/3/6
f 654/1/6 650/1/6 655/1/6
f 651/1/6 652/1/6 657/1/6
f 652/3/6 653/3/6 658/3/6
f 657/1/6 652/1/6 658/1/6
f 653/3/6 654/3/6 658/3/6
f 654/3/6 655/3/6 658/3/6
f 658/3/6 655/3/6 659/3/6
f 659/3/6 655/3/6 660/3/6
f 655/1/6 656/1/6 661/1/6
f 660/3/6 655/3/6 661/3/6
f 661/1/6 656/1/6 662/1/6
f 658/1/6 659/1/6 663/1/6
f 659/3/6 660/3/6 664/3/6
f 663/1/6 659/1/6 664/1/6
f 660/1/6 661/1/6 665/1/6
f 664/3/6 660/3/6 665/3/6
f 665/1/6 661/1/6 666/1/6
f 664/1/6 665/1/6 667/1/6
f 667/1/6 665/1/6 668/1/6
