# Blender v2.79 (sub 0) OBJ File: ''
# www.blender.org
mtllib wall23.mtl
o Plane
v -9.000000 -1.250000 -0.000000
v 9.000000 -1.250000 -0.000000
v -9.000000 1.250000 0.000000
v 9.000000 1.250000 0.000000
v -9.000000 -1.250000 -0.402000
v 9.000000 -1.250000 -0.402000
v -9.000000 1.250000 -0.402000
v 9.000000 1.250000 -0.402000
vt 0.999048 0.601942
vt -0.000906 0.592378
vt 0.002946 0.189561
vt 1.002900 0.199125
vt 0.999048 0.601942
vt 0.995195 1.004759
vt -0.004759 0.995195
vt -0.000906 0.592378
vt 0.003566 0.124788
vt 1.003520 0.134351
vt 1.004140 0.069578
vt 1.003520 0.134351
vt 0.003566 0.124787
vt 0.004185 0.060014
vt 0.143068 0.061342
vt 0.143688 -0.003431
vt 0.282570 -0.002102
vt 0.281951 0.062670
vt 0.004185 0.060014
vt 0.004805 -0.004759
vt 0.143688 -0.003431
vt 0.143068 0.061342
vn 0.0000 -0.0000 1.0000
vn 0.0000 0.0000 -1.0000
vn 0.0000 1.0000 0.0000
vn 0.0000 -1.0000 0.0000
vn 1.0000 -0.0000 0.0000
vn -1.0000 -0.0000 0.0000
usemtl Material.001
s off
f 1/1/1 2/2/1 4/3/1 3/4/1
f 5/5/2 7/6/2 8/7/2 6/8/2
f 4/3/3 8/9/3 7/10/3 3/4/3
f 1/11/4 5/12/4 6/13/4 2/14/4
f 2/15/5 6/16/5 8/17/5 4/18/5
f 3/19/6 7/20/6 5/21/6 1/22/6
