# Blender v2.80 (sub 75) OBJ File: 'wall4.blend'
# www.blender.org
mtllib wallfront.mtl
o Plane
v -5.550000 0.284658 -0.000000
v 5.550000 0.284658 -0.000000
v -5.550000 4.284658 0.000000
v 5.550000 4.284658 0.000000
v -5.550000 0.284658 -0.402000
v 5.550000 0.284658 -0.402000
v -5.550000 4.284658 -0.402000
v 5.550000 4.284658 -0.402000
vt 0.999506 1.000494
vt -0.000493 0.999506
vt -0.000064 0.565007
vt 0.999936 0.565995
vt 1.000365 0.131496
vt 0.999936 0.565995
vt -0.000064 0.565007
vt 0.000366 0.130508
vt 1.000452 0.044162
vt 1.000408 0.087829
vt 0.000409 0.086841
vt 0.000452 0.043173
vt 0.360812 0.043529
vt 0.360855 -0.000138
vt 0.721216 0.000218
vt 0.721173 0.043886
vt 0.000452 0.043173
vt 0.000495 -0.000494
vt 0.360855 -0.000138
vt 0.360812 0.043529
vt 0.000366 0.130508
vt 0.000409 0.086841
vt 1.000408 0.087829
vt 1.000365 0.131496
vn 0.0000 -0.0000 1.0000
vn 0.0000 0.0000 -1.0000
vn 0.0000 -1.0000 0.0000
vn 1.0000 0.0000 0.0000
vn -1.0000 0.0000 0.0000
vn 0.0000 1.0000 0.0000
usemtl Material.002
s off
f 1/1/1 2/2/1 4/3/1 3/4/1
f 5/5/2 7/6/2 8/7/2 6/8/2
f 1/9/3 5/10/3 6/11/3 2/12/3
f 2/13/4 6/14/4 8/15/4 4/16/4
f 3/17/5 7/18/5 5/19/5 1/20/5
f 4/21/6 8/22/6 7/23/6 3/24/6
