# MagicaVoxel @ Ephtracy

# group
o 

# material
mtllib Avalanche-0.mtl
usemtl palette

# normals
vn -1 0 0
vn 1 0 0
vn 0 0 1
vn 0 0 -1
vn 0 -1 0
vn 0 1 0

# texcoords
vt 0.0683594 0.5
vt 0.111328 0.5
vt 0.123047 0.5

# verts
v -0.5 2 21.3
v -0.5 2 20.6
v -0.5 2 20.3
v -0.5 2.1 20.7
v -0.5 2.1 20.6
v -0.5 2.2 21.2
v -0.5 2.2 21.1
v -0.5 2.2 20.6
v -0.5 2.2 20.5
v -0.5 2.2 20.3
v -0.5 2.3 20.7
v -0.5 2.3 20.5
v -0.5 2.4 21.2
v -0.5 2.4 21.1
v -0.5 2.6 20.7
v -0.5 2.6 20.5
v -0.5 2.7 21.1
v -0.5 2.7 20.7
v -0.5 2.8 20.7
v -0.5 2.8 20.6
v -0.5 2.8 20.5
v -0.5 3 21.3
v -0.5 3 21.1
v -0.5 3 20.6
v -0.5 3 20.3
v 0.5 2 21.3
v 0.5 2 21.2
v 0.5 2 20.7
v 0.5 2 20.3
v 0.5 2.2 21.3
v 0.5 2.2 21.2
v 0.5 2.2 20.7
v 0.5 2.2 20.4
v 0.5 2.2 20.3
v 0.5 2.3 21
v 0.5 2.3 20.9
v 0.5 2.3 20.4
v 0.5 2.3 20.3
v 0.5 2.4 21
v 0.5 2.4 20.9
v 0.5 2.7 20.4
v 0.5 2.7 20.3
v 0.5 2.8 21.3
v 0.5 2.8 20.9
v 0.5 2.8 20.5
v 0.5 2.8 20.4
v 0.5 2.8 20.3
v 0.5 3 21.3
v 0.5 3 20.9
v 0.5 3 20.5
v 0.5 3 20.3
v -0.5 2 21.3
v -0.5 3 21.3
v -0.4 2 21.3
v -0.4 2.1 21.3
v -0.4 2.8 21.3
v -0.4 2.9 21.3
v -0.3 2.8 21.3
v -0.3 2.9 21.3
v -0.2 2.4 21.3
v -0.2 2.5 21.3
v 0 2 21.3
v 0 2.1 21.3
v 0 2.4 21.3
v 0 2.5 21.3
v 0.1 2.5 21.3
v 0.1 2.7 21.3
v 0.2 2.8 21.3
v 0.2 3 21.3
v 0.3 2 21.3
v 0.3 2.2 21.3
v 0.3 2.5 21.3
v 0.3 2.7 21.3
v 0.5 2 21.3
v 0.5 2.2 21.3
v 0.5 2.8 21.3
v 0.5 3 21.3
v -0.5 2 20.3
v -0.5 2.2 20.3
v -0.5 3 20.3
v -0.4 2 20.3
v -0.4 2.2 20.3
v -0.2 2.3 20.3
v -0.2 2.5 20.3
v -0.1 2.5 20.3
v -0.1 2.7 20.3
v 0 2.4 20.3
v 0 2.6 20.3
v 0 2.7 20.3
v 0.1 2.3 20.3
v 0.1 2.4 20.3
v 0.2 2.4 20.3
v 0.2 2.6 20.3
v 0.3 2 20.3
v 0.3 2.3 20.3
v 0.3 2.8 20.3
v 0.3 3 20.3
v 0.4 2 20.3
v 0.4 2.2 20.3
v 0.4 2.7 20.3
v 0.4 2.8 20.3
v 0.5 2 20.3
v 0.5 2.2 20.3
v 0.5 2.3 20.3
v 0.5 2.7 20.3
v 0.5 2.8 20.3
v 0.5 3 20.3
v -0.5 2 21.3
v -0.4 2 21.3
v 0 2 21.3
v 0.3 2 21.3
v 0.5 2 21.3
v -0.4 2 21.2
v 0 2 21.2
v 0.3 2 21.2
v 0.5 2 21.2
v 0.4 2 20.7
v 0.5 2 20.7
v -0.5 2 20.6
v -0.4 2 20.6
v 0.3 2 20.4
v 0.4 2 20.4
v -0.5 2 20.3
v -0.4 2 20.3
v 0.3 2 20.3
v 0.4 2 20.3
v 0.5 2 20.3
v -0.5 3 21.3
v 0.2 3 21.3
v 0.5 3 21.3
v -0.4 3 21.2
v -0.2 3 21.2
v -0.5 3 21.1
v -0.4 3 21.1
v -0.3 3 21.1
v -0.3 3 21
v -0.2 3 21
v 0.2 3 20.9
v 0.5 3 20.9
v 0.2 3 20.7
v 0.3 3 20.7
v -0.5 3 20.6
v -0.3 3 20.6
v 0.3 3 20.6
v 0.4 3 20.6
v 0.2 3 20.5
v 0.3 3 20.5
v 0.4 3 20.5
v 0.5 3 20.5
v -0.5 3 20.3
v 0.3 3 20.3
v 0.5 3 20.3

# faces
f 4/2/1 2/2/1 1/2/1
f 5/3/1 3/3/1 2/3/1
f 5/2/1 2/2/1 4/2/1
f 6/2/1 4/2/1 1/2/1
f 7/2/1 4/2/1 6/2/1
f 8/3/1 3/3/1 5/3/1
f 8/1/1 5/1/1 4/1/1
f 9/3/1 3/3/1 8/3/1
f 10/3/1 3/3/1 9/3/1
f 11/2/1 4/2/1 7/2/1
f 11/1/1 8/1/1 4/1/1
f 11/1/1 9/1/1 8/1/1
f 12/2/1 10/2/1 9/2/1
f 12/1/1 9/1/1 11/1/1
f 13/3/1 7/3/1 6/3/1
f 13/2/1 6/2/1 1/2/1
f 14/2/1 12/2/1 11/2/1
f 14/3/1 7/3/1 13/3/1
f 14/2/1 11/2/1 7/2/1
f 15/2/1 14/2/1 13/2/1
f 15/2/1 12/2/1 14/2/1
f 16/2/1 10/2/1 12/2/1
f 16/2/1 12/2/1 15/2/1
f 17/2/1 15/2/1 13/2/1
f 18/1/1 16/1/1 15/1/1
f 18/2/1 15/2/1 17/2/1
f 19/3/1 18/3/1 17/3/1
f 19/1/1 16/1/1 18/1/1
f 20/1/1 16/1/1 19/1/1
f 21/2/1 10/2/1 16/2/1
f 21/1/1 16/1/1 20/1/1
f 22/2/1 13/2/1 1/2/1
f 22/2/1 17/2/1 13/2/1
f 23/3/1 20/3/1 19/3/1
f 23/2/1 17/2/1 22/2/1
f 23/3/1 19/3/1 17/3/1
f 24/2/1 21/2/1 20/2/1
f 24/3/1 20/3/1 23/3/1
f 25/2/1 10/2/1 21/2/1
f 25/2/1 21/2/1 24/2/1
f 26/1/2 27/1/2 30/1/2
f 27/2/2 28/2/2 31/2/2
f 30/1/2 27/1/2 31/1/2
f 28/3/2 29/3/2 32/3/2
f 31/2/2 28/2/2 32/2/2
f 32/3/2 29/3/2 33/3/2
f 33/3/2 29/3/2 34/3/2
f 30/2/2 31/2/2 35/2/2
f 31/2/2 32/2/2 35/2/2
f 32/2/2 33/2/2 35/2/2
f 35/2/2 33/2/2 36/2/2
f 33/1/2 34/1/2 37/1/2
f 36/2/2 33/2/2 37/2/2
f 37/1/2 34/1/2 38/1/2
f 35/3/2 36/3/2 39/3/2
f 30/2/2 35/2/2 39/2/2
f 37/2/2 38/2/2 40/2/2
f 39/3/2 36/3/2 40/3/2
f 36/2/2 37/2/2 40/2/2
f 39/2/2 40/2/2 41/2/2
f 40/2/2 38/2/2 41/2/2
f 41/2/2 38/2/2 42/2/2
f 30/2/2 39/2/2 43/2/2
f 39/2/2 41/2/2 43/2/2
f 43/2/2 41/2/2 44/2/2
f 44/2/2 41/2/2 45/2/2
f 41/1/2 42/1/2 46/1/2
f 45/2/2 41/2/2 46/2/2
f 46/1/2 42/1/2 47/1/2
f 43/3/2 44/3/2 48/3/2
f 44/2/2 45/2/2 49/2/2
f 48/3/2 44/3/2 49/3/2
f 45/3/2 46/3/2 50/3/2
f 49/2/2 45/2/2 50/2/2
f 46/3/2 47/3/2 50/3/2
f 50/3/2 47/3/2 51/3/2
f 54/2/3 53/2/3 52/2/3
f 55/2/3 53/2/3 54/2/3
f 56/2/3 53/2/3 55/2/3
f 57/2/3 53/2/3 56/2/3
f 58/2/3 56/2/3 55/2/3
f 58/1/3 57/1/3 56/1/3
f 59/2/3 53/2/3 57/2/3
f 59/1/3 57/1/3 58/1/3
f 60/2/3 58/2/3 55/2/3
f 60/2/3 59/2/3 58/2/3
f 61/2/3 59/2/3 60/2/3
f 62/3/3 55/3/3 54/3/3
f 63/2/3 60/2/3 55/2/3
f 63/3/3 55/3/3 62/3/3
f 64/3/3 61/3/3 60/3/3
f 64/2/3 60/2/3 63/2/3
f 65/2/3 59/2/3 61/2/3
f 65/3/3 61/3/3 64/3/3
f 66/2/3 64/2/3 63/2/3
f 66/2/3 59/2/3 65/2/3
f 66/2/3 65/2/3 64/2/3
f 66/2/3 63/2/3 62/2/3
f 67/2/3 59/2/3 66/2/3
f 68/2/3 59/2/3 67/2/3
f 69/2/3 53/2/3 59/2/3
f 69/2/3 59/2/3 68/2/3
f 70/2/3 66/2/3 62/2/3
f 71/2/3 66/2/3 70/2/3
f 72/1/3 67/1/3 66/1/3
f 72/2/3 66/2/3 71/2/3
f 73/2/3 68/2/3 67/2/3
f 73/1/3 67/1/3 72/1/3
f 74/1/3 71/1/3 70/1/3
f 75/2/3 72/2/3 71/2/3
f 75/1/3 71/1/3 74/1/3
f 75/2/3 73/2/3 72/2/3
f 76/2/3 68/2/3 73/2/3
f 76/2/3 73/2/3 75/2/3
f 76/3/3 69/3/3 68/3/3
f 77/3/3 69/3/3 76/3/3
f 78/3/4 79/3/4 81/3/4
f 79/2/4 80/2/4 82/2/4
f 81/3/4 79/3/4 82/3/4
f 81/2/4 82/2/4 83/2/4
f 82/2/4 80/2/4 83/2/4
f 83/2/4 80/2/4 84/2/4
f 83/3/4 84/3/4 85/3/4
f 84/2/4 80/2/4 85/2/4
f 85/2/4 80/2/4 86/2/4
f 83/3/4 85/3/4 87/3/4
f 85/3/4 86/3/4 87/3/4
f 87/3/4 86/3/4 88/3/4
f 86/2/4 80/2/4 89/2/4
f 88/3/4 86/3/4 89/3/4
f 81/2/4 83/2/4 90/2/4
f 83/3/4 87/3/4 90/3/4
f 87/1/4 88/1/4 91/1/4
f 90/3/4 87/3/4 91/3/4
f 90/2/4 91/2/4 92/2/4
f 91/1/4 88/1/4 92/1/4
f 88/2/4 89/2/4 93/2/4
f 92/1/4 88/1/4 93/1/4
f 81/2/4 90/2/4 94/2/4
f 90/2/4 92/2/4 94/2/4
f 92/2/4 93/2/4 94/2/4
f 94/2/4 93/2/4 95/2/4
f 89/2/4 80/2/4 96/2/4
f 95/2/4 93/2/4 96/2/4
f 93/2/4 89/2/4 96/2/4
f 96/2/4 80/2/4 97/2/4
f 94/1/4 95/1/4 98/1/4
f 98/1/4 95/1/4 99/1/4
f 95/2/4 96/2/4 100/2/4
f 96/3/4 97/3/4 101/3/4
f 100/2/4 96/2/4 101/2/4
f 98/3/4 99/3/4 102/3/4
f 99/1/4 95/1/4 103/1/4
f 102/3/4 99/3/4 103/3/4
f 95/2/4 100/2/4 104/2/4
f 103/1/4 95/1/4 104/1/4
f 100/1/4 101/1/4 105/1/4
f 104/2/4 100/2/4 105/2/4
f 101/3/4 97/3/4 106/3/4
f 105/1/4 101/1/4 106/1/4
f 106/3/4 97/3/4 107/3/4
f 113/2/5 109/2/5 108/2/5
f 113/3/5 110/3/5 109/3/5
f 114/2/5 111/2/5 110/2/5
f 114/3/5 110/3/5 113/3/5
f 115/1/5 112/1/5 111/1/5
f 115/2/5 111/2/5 114/2/5
f 116/1/5 112/1/5 115/1/5
f 117/2/5 114/2/5 113/2/5
f 117/2/5 115/2/5 114/2/5
f 117/2/5 116/2/5 115/2/5
f 118/2/5 116/2/5 117/2/5
f 119/2/5 113/2/5 108/2/5
f 119/2/5 117/2/5 113/2/5
f 120/2/5 117/2/5 119/2/5
f 121/2/5 117/2/5 120/2/5
f 122/3/5 118/3/5 117/3/5
f 122/2/5 117/2/5 121/2/5
f 123/3/5 120/3/5 119/3/5
f 124/2/5 121/2/5 120/2/5
f 124/3/5 120/3/5 123/3/5
f 125/1/5 122/1/5 121/1/5
f 125/2/5 121/2/5 124/2/5
f 126/3/5 118/3/5 122/3/5
f 126/1/5 122/1/5 125/1/5
f 127/3/5 118/3/5 126/3/5
f 128/2/6 129/2/6 131/2/6
f 131/2/6 129/2/6 132/2/6
f 128/2/6 131/2/6 133/2/6
f 131/1/6 132/1/6 134/1/6
f 133/2/6 131/2/6 134/2/6
f 134/1/6 132/1/6 135/1/6
f 133/3/6 134/3/6 136/3/6
f 135/1/6 132/1/6 136/1/6
f 134/3/6 135/3/6 136/3/6
f 132/2/6 129/2/6 137/2/6
f 136/1/6 132/1/6 137/1/6
f 129/3/6 130/3/6 138/3/6
f 137/2/6 129/2/6 138/2/6
f 136/2/6 137/2/6 138/2/6
f 138/3/6 130/3/6 139/3/6
f 136/2/6 138/2/6 140/2/6
f 138/2/6 139/2/6 140/2/6
f 140/2/6 139/2/6 141/2/6
f 133/3/6 136/3/6 142/3/6
f 136/2/6 140/2/6 143/2/6
f 142/3/6 136/3/6 143/3/6
f 141/2/6 139/2/6 144/2/6
f 140/1/6 141/1/6 144/1/6
f 144/2/6 139/2/6 145/2/6
f 143/2/6 140/2/6 146/2/6
f 142/2/6 143/2/6 146/2/6
f 144/1/6 145/1/6 146/1/6
f 140/1/6 144/1/6 146/1/6
f 146/1/6 145/1/6 147/1/6
f 145/2/6 139/2/6 148/2/6
f 147/1/6 145/1/6 148/1/6
f 148/2/6 139/2/6 149/2/6
f 146/2/6 147/2/6 150/2/6
f 142/2/6 146/2/6 150/2/6
f 148/3/6 149/3/6 151/3/6
f 150/2/6 147/2/6 151/2/6
f 147/3/6 148/3/6 151/3/6
f 151/3/6 149/3/6 152/3/6
