# MagicaVoxel @ Ephtracy

# group
o beach

# material
mtllib Beach-0-beach.mtl
usemtl palette

# normals
vn -1 0 0
vn 1 0 0
vn 0 0 1
vn 0 0 -1
vn 0 -1 0
vn 0 1 0

# texcoords
vt 0.0957031 0.5
vt 0.294922 0.5
vt 0.298828 0.5
vt 0.458984 0.5
vt 0.509766 0.5

# verts
v 4 0 -15.2
v 4 0 -25.2
v 4 0.1 -15.2
v 4 0.1 -25.2
v 4 0.2 -15.2
v 4 0.2 -25.2
v 4 0.4 -15.2
v 4 0.4 -25.2
v 4 0.6 -15.2
v 4 0.6 -25.2
v 14 0 -15.2
v 14 0 -25.2
v 14 0.1 -15.2
v 14 0.1 -25.2
v 14 0.2 -15.2
v 14 0.2 -25.2
v 14 0.4 -15.2
v 14 0.4 -25.2
v 14 0.5 -15.2
v 14 0.5 -25.2
v 14 0.6 -15.2
v 14 0.6 -25.2
v 4 0 -15.2
v 4 0.1 -15.2
v 4 0.2 -15.2
v 4 0.4 -15.2
v 4 0.6 -15.2
v 6.6 0.4 -15.2
v 6.6 0.5 -15.2
v 14 0 -15.2
v 14 0.1 -15.2
v 14 0.2 -15.2
v 14 0.4 -15.2
v 14 0.5 -15.2
v 14 0.6 -15.2
v 4 0 -25.2
v 4 0.1 -25.2
v 4 0.2 -25.2
v 4 0.4 -25.2
v 4 0.6 -25.2
v 6.6 0.4 -25.2
v 6.6 0.5 -25.2
v 14 0 -25.2
v 14 0.1 -25.2
v 14 0.2 -25.2
v 14 0.4 -25.2
v 14 0.5 -25.2
v 14 0.6 -25.2
v 4 0 -15.2
v 14 0 -15.2
v 4 0 -25.2
v 14 0 -25.2
v 4 0.6 -15.2
v 14 0.6 -15.2
v 4 0.6 -25.2
v 14 0.6 -25.2

# faces
f 3/1/1 2/1/1 1/1/1
f 4/1/1 2/1/1 3/1/1
f 5/2/1 4/2/1 3/2/1
f 6/2/1 4/2/1 5/2/1
f 7/3/1 6/3/1 5/3/1
f 8/3/1 6/3/1 7/3/1
f 9/4/1 8/4/1 7/4/1
f 10/4/1 8/4/1 9/4/1
f 11/1/2 12/1/2 13/1/2
f 13/1/2 12/1/2 14/1/2
f 13/2/2 14/2/2 15/2/2
f 15/2/2 14/2/2 16/2/2
f 15/3/2 16/3/2 17/3/2
f 17/3/2 16/3/2 18/3/2
f 17/5/2 18/5/2 19/5/2
f 19/5/2 18/5/2 20/5/2
f 19/4/2 20/4/2 21/4/2
f 21/4/2 20/4/2 22/4/2
f 28/3/3 26/3/3 25/3/3
f 28/4/3 27/4/3 26/4/3
f 29/4/3 27/4/3 28/4/3
f 30/1/3 24/1/3 23/1/3
f 31/2/3 25/2/3 24/2/3
f 31/1/3 24/1/3 30/1/3
f 32/3/3 28/3/3 25/3/3
f 32/2/3 25/2/3 31/2/3
f 33/5/3 29/5/3 28/5/3
f 33/3/3 28/3/3 32/3/3
f 34/4/3 27/4/3 29/4/3
f 34/5/3 29/5/3 33/5/3
f 35/4/3 27/4/3 34/4/3
f 38/3/4 39/3/4 41/3/4
f 39/4/4 40/4/4 41/4/4
f 41/4/4 40/4/4 42/4/4
f 36/1/4 37/1/4 43/1/4
f 37/2/4 38/2/4 44/2/4
f 43/1/4 37/1/4 44/1/4
f 38/3/4 41/3/4 45/3/4
f 44/2/4 38/2/4 45/2/4
f 41/5/4 42/5/4 46/5/4
f 45/3/4 41/3/4 46/3/4
f 42/4/4 40/4/4 47/4/4
f 46/5/4 42/5/4 47/5/4
f 47/4/4 40/4/4 48/4/4
f 51/1/5 50/1/5 49/1/5
f 52/1/5 50/1/5 51/1/5
f 53/4/6 54/4/6 55/4/6
f 55/4/6 54/4/6 56/4/6
